<?xml version="1.0" encoding="UTF-8"?>
<svg xmlns="http://www.w3.org/2000/svg" xmlns:xlink="http://www.w3.org/1999/xlink" version="1.2" >
<font id="Animal Light">
<font-face  font-family="Animal" units-per-em="1000" ascent="750" descent="-200" font-style="normal" font-weight="300" font-stretch="normal" cap-height="700" x-height="500" underline-position="-75" underline-thickness="50" />
<missing-glyph  horiz-adv-x="766" d="M282 461 C318 461 341 486 341 524 C341 565 312 616 275 616 C225 616 215 574 215 537 C215 496 244 461 282 461 L282 461 Z M475 451 C513 451 542 487 542 527 C542 565 531 607 481 607 C445 607 415 555 415 515 C415 477 438 451 475 451 L475 451 Z M134 307 C180 307 200 341 200 378 C200 421 168 462 127 462 C89 462 63 432 63 392 C63 350 93 307 134 307 L134 307 Z M634 286 C673 286 700 324 700 362 C700 396 679 428 639 428 C603 428 573 393 573 352 C573 318 592 286 634 286 L634 286 Z M380 80 C480 80 540 140 540 211 C540 267 510 312 480 351 C454 382 430 410 380 410 C330 410 306 382 280 351 C250 312 220 267 220 211 C220 140 280 80 380 80 L380 80 Z " />
<glyph glyph-name="NULL" d="" />
<glyph glyph-name="CR" unicode="&#xd;" horiz-adv-x="250" d="" />
<glyph glyph-name="space" unicode="&#x20;" horiz-adv-x="239" d="" />
<glyph glyph-name="exclam" unicode="&#x21;" horiz-adv-x="230" d="M115 143 C130 143 146 157 146 178 L158 673 C159 703 139 717 115 717 C92 717 71 703 72 673 L84 178 C84 157 100 143 115 143 L115 143 Z M115 -12 C145 -12 166 9 166 39 C166 68 145 89 115 89 C85 89 65 68 65 39 C65 9 85 -12 115 -12 L115 -12 Z " />
<glyph glyph-name="quotedbl" unicode="&#x22;" horiz-adv-x="431" d="M86 621 C78 699 174 690 168 632 L152 436 C147 403 103 397 100 437 L86 621 Z M263 621 C255 699 351 690 345 632 L329 436 C324 403 280 397 277 437 L263 621 Z " />
<glyph glyph-name="dollar" unicode="&#x24;" horiz-adv-x="600" d="M488 153 C488 251 411 288 337 322 L337 554 C376 549 405 530 420 503 C404 498 394 484 394 466 C394 442 410 425 435 425 C458 425 475 442 475 468 C475 546 421 601 337 610 L337 672 C337 697 326 710 311 710 C295 710 284 697 284 672 L284 611 C194 601 136 537 136 446 C136 348 209 310 282 277 L282 47 C221 52 182 84 151 100 C122 117 100 92 119 63 C141 27 204 -4 282 -9 L282 -62 C282 -86 293 -100 309 -100 C325 -100 335 -86 335 -62 L335 -8 C428 3 488 64 488 153 L488 153 Z M199 453 C199 505 232 543 284 553 L284 346 C236 370 199 400 199 453 L199 453 Z M335 253 C384 228 423 200 423 146 C423 97 389 60 335 49 L335 253 Z " />
<glyph glyph-name="ampersand" unicode="&#x26;" horiz-adv-x="614" d="M510 58 C464 58 414 91 368 140 C374 238 426 292 501 292 C523 292 537 306 537 325 C537 345 523 359 500 359 C419 359 360 284 351 159 C304 214 261 284 229 352 C334 368 401 441 402 544 C402 653 329 710 253 710 C177 710 107 653 107 544 C107 494 126 425 157 354 C78 342 27 276 27 182 C27 68 102 -9 214 -9 C283 -9 336 21 356 70 C406 27 459 0 510 0 C532 0 545 12 545 29 C545 46 532 58 510 58 L510 58 Z M253 662 C298 662 341 621 341 544 C341 451 293 385 221 370 C189 440 169 505 169 544 C169 622 210 662 253 662 L253 662 Z M248 42 C153 42 89 112 89 216 C89 281 118 327 165 337 C208 245 271 149 341 84 C326 58 292 42 248 42 L248 42 Z " />
<glyph glyph-name="quotesingle" unicode="&#x27;" horiz-adv-x="254" d="M86 621 C78 699 174 690 168 632 L152 436 C147 403 103 397 100 437 L86 621 Z " />
<glyph glyph-name="parenleft" unicode="&#x28;" horiz-adv-x="282" d="M217 -157 C231 -157 236 -151 236 -142 C236 -111 135 47 135 311 C135 565 236 715 236 746 C236 755 231 761 217 761 C201 761 192 753 175 727 C104 606 66 456 66 311 C66 157 105 -4 175 -123 C192 -150 201 -157 217 -157 L217 -157 Z " />
<glyph glyph-name="parenright" unicode="&#x29;" horiz-adv-x="299" d="M112 -158 C128 -158 137 -151 154 -124 C224 -5 263 157 263 311 C263 456 225 606 154 726 C137 753 128 760 112 760 C98 760 93 754 93 745 C93 715 194 565 194 311 C194 47 93 -112 93 -143 C93 -152 98 -158 112 -158 L112 -158 Z " />
<glyph glyph-name="comma" unicode="&#x2c;" horiz-adv-x="210" d="M102 90 C70 90 48 71 48 40 C48 9 70 -11 102 -11 C104 -11 107 -11 109 -10 C98 -53 71 -89 49 -111 C24 -134 55 -163 75 -145 C113 -111 158 -49 158 18 C158 63 134 90 102 90 L102 90 Z " />
<glyph glyph-name="hyphen" unicode="&#x2d;" horiz-adv-x="415" d="M342 296 C363 296 377 308 377 325 C377 342 363 354 341 354 L74 354 C53 354 38 342 38 325 C38 308 53 296 73 296 L342 296 Z " />
<glyph glyph-name="period" unicode="&#x2e;" horiz-adv-x="205" d="M101 -11 C132 -11 152 10 152 40 C152 69 131 90 101 90 C71 90 51 69 51 40 C51 10 71 -11 101 -11 L101 -11 Z " />
<glyph glyph-name="zero" unicode="0" horiz-adv-x="610" d="M305 -10 C433 -10 519 134 519 351 C519 566 433 710 305 710 C177 710 91 566 91 351 C91 134 177 -10 305 -10 L305 -10 Z M305 47 C217 47 159 168 159 351 C159 532 217 653 305 653 C393 653 451 532 451 351 C451 168 393 47 305 47 L305 47 Z " />
<glyph glyph-name="one" unicode="1" horiz-adv-x="284" d="M196 710 C176 710 160 702 113 681 C65 658 47 652 47 630 C47 613 59 599 74 599 C83 599 88 602 131 619 C139 622 148 626 159 631 L158 33 C158 8 173 -10 194 -10 C215 -9 230 9 230 34 L231 674 C231 695 217 710 196 710 L196 710 Z " />
<glyph glyph-name="two" unicode="2" horiz-adv-x="451" d="M111 52 C222 213 408 337 408 527 C408 637 325 710 230 710 C135 710 51 650 51 560 C51 527 70 506 98 506 C127 506 146 526 146 557 C146 578 133 593 113 597 C130 631 173 653 217 653 C275 653 345 599 345 518 C345 368 197 256 50 56 C27 25 45 0 64 0 L378 0 C398 0 413 10 413 25 C413 42 398 52 377 52 L111 52 Z " />
<glyph glyph-name="three" unicode="3" horiz-adv-x="487" d="M274 362 C349 385 403 446 403 526 C403 638 317 710 217 710 C115 710 48 645 48 547 C48 520 67 502 94 502 C123 502 142 519 142 544 C142 567 127 583 104 586 C114 627 152 653 206 653 C268 653 339 603 339 525 C339 443 267 386 203 386 C183 386 168 374 168 356 C168 341 183 330 203 330 C293 330 367 273 367 186 C367 102 296 47 211 47 C170 47 121 61 89 80 C53 103 16 67 53 38 C91 9 158 -10 219 -10 C345 -10 428 71 428 193 C428 279 369 341 274 362 L274 362 Z " />
<glyph glyph-name="four" unicode="4" horiz-adv-x="565" d="M440 259 L440 466 C440 492 426 510 406 510 C386 510 372 492 372 466 L372 259 L168 259 L166 265 L290 665 C298 693 280 711 263 711 C251 711 237 702 232 683 L93 246 C84 219 96 202 125 202 L372 202 L372 34 C372 8 386 -10 405 -10 C426 -10 440 8 440 34 L440 202 L485 202 C505 202 519 213 519 230 C519 248 505 259 485 259 L440 259 Z " />
<glyph glyph-name="five" unicode="5" horiz-adv-x="482" d="M136 415 L136 643 L355 643 C374 643 388 654 388 672 C388 689 374 700 354 700 L107 700 C90 700 79 687 79 667 L79 415 C79 381 102 358 133 358 L229 358 C303 358 360 291 360 191 C360 105 293 47 218 47 C169 47 127 67 102 88 C70 114 31 74 68 41 C103 10 160 -10 212 -10 C331 -10 428 73 428 198 C428 328 347 415 232 415 L136 415 Z " />
<glyph glyph-name="six" unicode="6" horiz-adv-x="512" d="M279 -10 C395 -10 473 86 473 231 C473 374 403 470 300 470 C246 470 202 446 171 404 L169 405 C206 504 280 596 378 660 C417 685 380 729 332 698 C174 595 73 453 73 238 C73 100 157 -10 279 -10 L279 -10 Z M273 46 C196 46 141 130 141 257 C141 351 197 414 272 414 C352 414 405 341 405 230 C405 119 352 46 273 46 L273 46 Z " />
<glyph glyph-name="seven" unicode="7" horiz-adv-x="508" d="M100 700 C80 700 66 689 66 672 C66 654 80 643 100 643 L383 643 L385 639 L171 46 C152 -10 214 -36 236 27 L459 656 C469 686 458 700 426 700 L100 700 Z " />
<glyph glyph-name="eight" unicode="8" horiz-adv-x="532" d="M375 372 C429 402 461 461 461 536 C461 640 390 709 284 709 C175 709 103 640 103 536 C103 461 136 402 190 372 C122 341 81 274 81 188 C81 69 162 -10 284 -10 C403 -10 483 69 483 188 C483 274 442 341 375 372 L375 372 Z M284 653 C349 653 393 606 393 536 C393 451 349 393 284 393 C216 393 171 451 171 536 C171 606 216 653 284 653 L284 653 Z M284 47 C203 47 149 103 149 188 C149 283 203 347 284 347 C362 347 414 283 414 188 C414 103 362 47 284 47 L284 47 Z " />
<glyph glyph-name="nine" unicode="9" horiz-adv-x="600" d="M212 0 C382 0 490 175 490 437 C490 603 408 713 285 713 C168 713 90 627 90 496 C90 373 161 290 268 290 C335 290 388 320 416 368 L419 367 C403 181 321 65 205 65 C137 65 137 0 212 0 L212 0 Z M291 346 C211 346 159 408 159 502 C159 595 211 657 290 657 C368 657 422 572 422 441 C422 384 364 346 291 346 L291 346 Z " />
<glyph glyph-name="colon" unicode="&#x3a;" horiz-adv-x="205" d="M101 339 C132 339 152 360 152 390 C152 419 131 440 101 440 C71 440 51 419 51 390 C51 360 71 339 101 339 L101 339 Z M101 -12 C132 -12 152 9 152 39 C152 68 131 89 101 89 C71 89 51 68 51 39 C51 9 71 -12 101 -12 L101 -12 Z " />
<glyph glyph-name="semicolon" unicode="&#x3b;" horiz-adv-x="210" d="M101 339 C132 339 152 360 152 390 C152 419 131 440 101 440 C71 440 51 419 51 390 C51 360 71 339 101 339 L101 339 Z M102 90 C70 90 48 71 48 40 C48 9 70 -11 102 -11 C104 -11 107 -11 109 -10 C98 -53 71 -89 49 -111 C24 -134 55 -163 75 -145 C113 -111 158 -49 158 18 C158 63 134 90 102 90 L102 90 Z " />
<glyph glyph-name="question" unicode="&#x3f;" horiz-adv-x="411" d="M108 601 C122 637 156 660 201 660 C261 660 299 611 299 541 C299 378 165 416 165 181 C165 159 177 144 194 144 C211 144 223 160 223 182 C223 375 358 343 358 550 C358 649 296 717 201 717 C110 717 51 651 51 564 C51 536 69 519 95 519 C120 519 138 535 137 561 C137 581 126 596 108 601 L108 601 Z M192 89 C162 89 142 68 142 39 C142 9 162 -12 192 -12 C223 -12 243 9 243 39 C243 68 222 89 192 89 L192 89 Z " />
<glyph glyph-name="at" unicode="&#x40;" horiz-adv-x="1016" d="M408 -210 C476 -210 546 -200 580 -183 C641 -156 613 -100 554 -126 C516 -142 461 -153 418 -153 C250 -153 139 15 139 267 C139 525 296 696 533 696 C743 696 884 546 884 321 C884 157 842 48 778 48 C714 48 672 129 672 252 L672 474 C619 506 555 528 511 528 C384 528 298 413 298 240 C298 90 359 -10 451 -10 C531 -10 589 47 609 138 L615 135 C637 47 695 -9 775 -9 C881 -9 952 124 952 324 C952 582 786 753 535 753 C257 753 71 557 71 263 C71 -21 206 -210 408 -210 L408 -210 Z M476 47 C410 47 366 126 366 244 C366 379 424 468 499 468 C543 468 571 454 604 438 L604 280 C604 140 552 47 476 47 L476 47 Z " />
<glyph glyph-name="A" unicode="A" horiz-adv-x="609" d="M375 651 C363 692 334 710 300 710 C267 710 240 692 228 651 L50 42 C41 10 55 -10 76 -10 C93 -10 107 1 115 28 L170 218 L433 218 L491 28 C499 2 514 -10 531 -10 C552 -10 569 9 559 42 L375 651 Z M297 654 L300 654 L416 274 L187 274 L297 654 Z " />
<glyph glyph-name="B" unicode="B" horiz-adv-x="580" d="M357 356 C430 381 475 444 475 525 C475 636 395 710 278 710 C166 710 96 686 96 649 L96 41 C96 22 108 6 127 3 C174 -5 241 -10 305 -10 C424 -10 504 62 504 171 C504 265 447 334 357 356 L357 356 Z M305 47 C256 47 204 51 164 57 L165 639 C190 647 229 652 272 652 C354 652 404 599 404 522 C404 437 349 380 263 378 C247 376 239 368 239 354 C239 339 249 331 263 331 C368 331 436 268 436 174 C436 97 384 47 305 47 L305 47 Z " />
<glyph glyph-name="C" unicode="C" horiz-adv-x="537" d="M473 185 C455 185 443 170 441 145 C440 88 393 48 320 48 C197 48 159 168 159 350 C159 582 223 653 320 653 C387 653 428 615 440 557 C426 552 417 537 417 519 C417 491 433 475 455 475 C477 475 494 495 494 527 C494 639 425 710 320 710 C144 710 91 566 91 350 C91 74 182 -10 320 -10 C428 -10 498 52 500 143 C500 167 489 184 473 185 L473 185 Z " />
<glyph glyph-name="D" unicode="D" horiz-adv-x="605" d="M264 -1 C421 -1 514 140 514 350 C514 603 424 710 271 710 C161 710 96 688 96 651 L96 63 C96 17 200 -1 264 -1 L264 -1 Z M274 57 C243 57 200 64 164 74 L164 639 C191 647 230 653 276 653 C402 653 446 536 446 350 C446 167 382 57 274 57 L274 57 Z " />
<glyph glyph-name="E" unicode="E" horiz-adv-x="442" d="M164 58 L164 317 L311 317 C331 317 345 328 345 345 C345 362 331 374 311 374 L164 374 L164 643 L392 643 C412 643 425 654 425 672 C425 689 412 700 391 700 L130 700 C110 700 96 686 96 664 L96 31 C96 12 110 0 129 0 L392 0 C412 0 425 11 425 28 C425 46 412 58 391 58 L164 58 Z " />
<glyph glyph-name="F" unicode="F" horiz-adv-x="442" d="M130 700 C110 700 96 686 96 664 L96 34 C96 8 110 -10 129 -10 C150 -10 164 8 164 34 L164 314 L311 314 C331 314 345 325 345 343 C345 360 331 371 311 371 L164 371 L164 643 L392 643 C412 643 425 654 425 672 C425 689 412 700 391 700 L130 700 Z " />
<glyph glyph-name="G" unicode="G" horiz-adv-x="557" d="M322 325 C302 325 288 314 288 297 C288 279 302 268 321 268 L441 268 L441 154 C441 90 393 47 320 47 C202 47 159 168 159 350 C159 571 223 653 320 653 C388 653 432 612 440 548 C424 543 415 530 415 513 C415 490 431 475 454 475 C477 475 493 496 493 527 C493 637 424 710 320 710 C152 710 91 566 91 350 C91 87 182 -10 320 -10 C428 -10 499 56 499 155 L499 295 C499 313 487 325 471 325 L322 325 Z " />
<glyph glyph-name="H" unicode="H" horiz-adv-x="589" d="M459 710 C438 710 424 692 424 666 L424 378 L164 378 L164 666 C164 692 150 710 130 710 C110 710 96 692 96 666 L96 34 C96 8 110 -10 129 -10 C150 -10 164 8 164 34 L164 318 L424 318 L424 34 C424 8 438 -10 458 -10 C479 -10 493 8 493 34 L493 666 C493 692 479 710 459 710 L459 710 Z " />
<glyph glyph-name="I" unicode="I" horiz-adv-x="260" d="M130 -10 C152 -10 166 8 166 34 L166 666 C166 692 152 710 131 710 C111 710 97 692 97 666 L97 34 C97 8 111 -10 130 -10 L130 -10 Z " />
<glyph glyph-name="J" unicode="J" horiz-adv-x="455" d="M330 710 C310 710 296 692 296 666 L296 157 C296 91 253 47 190 47 C131 47 91 81 85 132 C108 135 123 148 123 167 C123 192 105 208 79 208 C53 208 36 185 36 151 C36 56 101 -10 200 -10 C299 -10 364 57 364 157 L364 666 C364 692 350 710 330 710 L330 710 Z " />
<glyph glyph-name="K" unicode="K" horiz-adv-x="546" d="M130 710 C110 710 96 692 96 666 L96 34 C96 8 110 -10 129 -10 C150 -10 164 8 164 34 L164 666 C164 692 150 710 130 710 L130 710 Z M510 658 C516 665 519 674 519 682 C519 698 503 710 484 710 C468 710 455 701 445 687 L254 417 C242 400 238 387 238 374 C238 356 246 339 261 314 L450 8 C458 -5 470 -10 481 -10 C494 -10 512 0 512 15 C512 22 509 35 503 45 L305 375 L510 658 Z " />
<glyph glyph-name="L" unicode="L" horiz-adv-x="442" d="M164 58 L164 666 C164 692 150 710 129 710 C110 710 96 692 96 666 L96 31 C96 12 110 0 130 0 L388 0 C408 0 422 12 422 29 C422 47 408 58 389 58 L164 58 Z " />
<glyph glyph-name="M" unicode="M" horiz-adv-x="793" d="M91 33 C89 4 98 -10 115 -10 C131 -10 149 3 150 27 L195 653 L204 653 L338 180 C346 151 368 136 391 136 C412 136 434 151 442 180 L570 653 L580 653 L634 26 C636 2 653 -11 671 -11 C688 -11 703 3 700 32 L638 658 C635 692 609 709 578 709 C547 709 524 692 516 657 L396 197 L386 197 L257 658 C248 692 225 709 194 709 C165 709 143 692 141 658 L91 33 Z " />
<glyph glyph-name="N" unicode="N" horiz-adv-x="621" d="M496 710 C479 710 468 696 468 676 L468 47 L461 47 L221 662 C211 691 184 710 149 710 C117 710 96 691 96 662 L96 23 C96 3 108 -11 125 -11 C142 -11 153 3 153 23 L153 653 L159 653 L399 38 C410 8 438 -10 471 -10 C504 -10 525 8 525 38 L525 676 C525 696 514 710 496 710 L496 710 Z " />
<glyph glyph-name="O" unicode="O" horiz-adv-x="610" d="M305 -10 C456 -10 519 127 519 351 C519 610 435 710 305 710 C154 710 91 573 91 351 C91 90 175 -10 305 -10 L305 -10 Z M305 47 C201 47 159 161 159 351 C159 571 217 653 305 653 C409 653 451 539 451 351 C451 129 393 47 305 47 L305 47 Z " />
<glyph glyph-name="P" unicode="P" horiz-adv-x="560" d="M256 711 C177 711 96 695 96 660 L96 34 C96 8 110 -10 130 -10 C150 -10 164 8 164 34 L164 643 C199 652 231 656 263 656 C363 656 426 598 426 460 C426 360 364 296 270 294 C250 293 236 284 236 270 C236 253 250 242 271 242 C405 242 494 331 494 466 C494 625 416 711 256 711 L256 711 Z " />
<glyph glyph-name="Q" unicode="Q" horiz-adv-x="614" d="M461 -156 C497 -156 523 -142 523 -112 C523 -52 425 -116 331 -13 L331 -8 C466 23 507 175 507 351 C507 616 462 710 299 710 C137 710 91 598 91 351 C91 123 160 -8 280 -8 C320 -109 388 -156 461 -156 L461 -156 Z M300 48 C194 48 157 149 157 351 C157 556 194 649 299 649 C407 649 441 561 441 351 C441 153 400 48 300 48 L300 48 Z " />
<glyph glyph-name="R" unicode="R" horiz-adv-x="595" d="M335 298 C437 327 489 404 489 487 C489 591 412 688 264 688 C150 688 96 667 96 620 L96 38 C96 8 110 -10 127 -10 C145 -10 159 8 159 38 L159 615 C191 624 226 629 246 629 C363 629 427 561 427 484 C427 423 384 366 306 335 C274 321 270 308 270 298 C270 285 279 275 289 264 L461 25 C477 3 491 -10 502 -10 C524 -10 544 12 522 42 L335 298 Z " />
<glyph glyph-name="S" unicode="S" horiz-adv-x="528" d="M156 529 C156 602 204 653 274 653 C330 653 372 631 390 594 C374 587 365 572 365 553 C365 529 382 511 408 511 C434 511 453 529 453 556 C453 649 383 710 279 710 C163 710 89 632 89 523 C89 297 399 345 399 162 C399 93 345 48 265 48 C208 48 158 79 116 107 C82 131 50 92 83 60 C120 17 194 -9 265 -9 C388 -9 471 63 471 168 C471 398 156 348 156 529 L156 529 Z " />
<glyph glyph-name="T" unicode="T" horiz-adv-x="444" d="M14 700 C-6 700 -20 689 -20 672 C-20 654 -6 643 13 643 L188 643 L188 34 C188 8 202 -10 221 -10 C242 -10 256 8 256 34 L256 643 L431 643 C450 643 464 654 464 672 C464 689 450 700 430 700 L14 700 Z " />
<glyph glyph-name="U" unicode="U" horiz-adv-x="610" d="M305 -10 C433 -10 519 82 519 228 L519 666 C519 692 505 710 485 710 C465 710 451 692 451 666 L451 228 C451 116 392 47 305 47 C218 47 159 116 159 228 L159 666 C159 692 145 710 125 710 C105 710 91 692 91 666 L91 228 C91 82 177 -10 305 -10 L305 -10 Z " />
<glyph glyph-name="V" unicode="V" horiz-adv-x="608" d="M505 710 C489 710 472 699 466 672 L313 46 L302 46 L145 672 C138 698 121 710 105 710 C84 710 67 690 76 658 L231 51 C241 11 271 -10 307 -10 C342 -10 370 11 380 51 L532 658 C540 689 527 710 505 710 L505 710 Z " />
<glyph glyph-name="W" unicode="W" horiz-adv-x="724" d="M652 709 C634 709 620 695 616 672 L524 46 L513 46 L414 588 C409 614 390 630 357 630 C326 630 307 614 302 588 L204 47 L195 47 L110 671 C107 694 93 708 75 708 C56 708 48 691 51 665 L141 41 C146 9 166 -11 195 -11 C228 -11 250 9 256 41 L350 571 L365 571 L460 41 C466 9 487 -11 521 -11 C550 -11 572 9 576 41 L677 666 C681 692 672 709 652 709 L652 709 Z " />
<glyph glyph-name="X" unicode="X" horiz-adv-x="561" d="M490 710 C476 710 463 703 451 683 L299 411 L147 675 C132 701 115 710 101 710 C77 710 63 684 79 656 L249 355 L66 36 C55 16 66 -10 91 -10 C104 -10 116 -3 126 15 L285 292 L438 20 C451 -1 466 -10 482 -10 C511 -10 523 22 503 56 L334 350 L513 651 C526 674 516 710 490 710 L490 710 Z " />
<glyph glyph-name="Y" unicode="Y" horiz-adv-x="602" d="M498 711 C483 711 470 700 460 675 L311 291 L299 291 L146 673 C135 699 122 711 107 711 C86 711 65 691 78 659 L240 278 C247 260 257 247 269 239 L269 34 C269 8 282 -10 302 -10 C323 -10 337 8 337 34 L337 238 C349 246 359 260 366 279 L524 659 C537 691 518 711 498 711 L498 711 Z " />
<glyph glyph-name="Z" unicode="Z" horiz-adv-x="511" d="M132 57 L132 63 L444 643 C462 677 444 700 400 700 L85 700 C65 700 51 689 51 672 C51 654 65 643 85 643 L371 643 L371 640 L57 59 C37 24 56 0 102 0 L437 0 C457 0 471 11 471 28 C471 46 457 57 437 57 L132 57 Z " />
<glyph glyph-name="underscore" unicode="&#x5f;" horiz-adv-x="413" d="M341 0 C362 0 376 12 376 29 C376 47 362 58 341 58 L73 58 C52 58 37 47 37 29 C37 12 52 0 72 0 L341 0 Z " />
<glyph glyph-name="a" unicode="a" horiz-adv-x="524" d="M266 510 C165 510 99 453 99 377 C99 355 115 341 135 341 C155 341 169 354 169 374 C169 388 161 399 149 403 C163 440 205 464 259 464 C336 464 384 416 384 345 L384 269 C345 278 305 284 267 284 C170 284 81 244 81 134 C81 50 121 -10 242 -10 C307 -10 357 17 382 68 L384 68 L384 23 C384 2 396 -11 414 -11 C431 -11 443 3 443 23 L443 348 C443 447 372 510 266 510 L266 510 Z M255 40 C175 40 140 78 140 135 C140 217 198 237 276 237 C310 237 347 230 384 219 L384 169 C384 95 338 40 255 40 L255 40 Z " />
<glyph glyph-name="b" unicode="b" horiz-adv-x="526" d="M240 -10 C364 -10 446 98 446 258 C446 409 384 510 287 510 C220 510 170 474 148 415 L146 415 L146 726 C146 746 133 760 115 760 C97 760 84 746 84 726 L84 66 C84 48 90 33 106 24 C141 5 190 -10 240 -10 L240 -10 Z M242 46 C207 46 170 55 146 72 L146 339 C146 408 191 454 259 454 C336 454 383 375 383 255 C383 130 326 46 242 46 L242 46 Z " />
<glyph glyph-name="c" unicode="c" horiz-adv-x="485" d="M366 72 C346 57 318 46 270 46 C180 46 144 127 144 250 C144 396 196 454 275 454 C322 454 357 440 370 409 C352 406 341 392 341 373 C341 350 356 334 380 334 C403 334 418 353 418 379 C418 457 360 510 275 510 C136 510 81 406 81 250 C81 64 159 -10 275 -10 C328 -10 371 5 400 27 C443 60 407 103 366 72 L366 72 Z " />
<glyph glyph-name="d" unicode="d" horiz-adv-x="520" d="M81 251 C81 96 143 -10 242 -10 C306 -10 353 24 377 75 L379 75 L379 23 C379 2 393 -11 410 -11 C428 -11 441 2 441 23 L441 726 C441 746 428 760 410 760 C392 760 379 746 379 726 L379 453 L377 453 C356 485 307 510 249 510 C147 510 81 406 81 251 L81 251 Z M143 255 C143 375 190 454 263 454 C308 454 355 437 379 402 L379 168 C379 94 333 46 265 46 C191 46 143 129 143 255 L143 255 Z " />
<glyph glyph-name="e" unicode="e" horiz-adv-x="507" d="M402 74 C372 59 342 46 289 46 C202 46 151 120 147 235 L431 235 C448 235 460 249 460 270 C460 399 417 510 280 510 C149 510 81 406 81 250 C81 63 177 -10 294 -10 C346 -10 397 1 432 32 C470 60 444 100 402 74 L402 74 Z M281 454 C350 454 387 403 397 318 C399 307 400 295 400 282 L148 282 C157 405 216 454 281 454 L281 454 Z " />
<glyph glyph-name="f" unicode="f" horiz-adv-x="376" d="M257 760 C187 760 140 701 140 605 L140 500 L90 500 C69 500 56 489 56 472 C56 456 69 444 89 444 L140 444 L140 26 C140 4 153 -10 171 -10 C189 -10 202 4 202 26 L202 444 L302 444 C322 444 335 456 335 472 C335 489 322 500 301 500 L202 500 L202 610 C202 671 229 705 270 705 C291 705 308 701 320 694 C305 688 297 676 297 660 C297 632 314 615 339 615 C365 615 382 632 382 660 C382 720 332 760 257 760 L257 760 Z " />
<glyph glyph-name="g" unicode="g" horiz-adv-x="506" d="M251 -210 C366 -210 442 -152 442 -64 C442 73 200 26 200 104 C200 121 226 132 256 132 C354 132 420 208 420 321 C420 381 404 418 382 449 C378 455 375 462 375 470 C375 487 385 498 399 508 C408 502 416 500 424 500 C451 500 468 525 468 552 C468 578 451 603 415 603 C368 603 348 543 354 478 L352 476 C328 494 291 510 256 510 C157 510 90 434 90 321 C90 234 133 171 199 148 L199 144 C162 136 137 115 137 87 C137 -21 380 24 380 -71 C380 -121 325 -154 242 -154 C193 -154 152 -137 135 -107 C154 -104 163 -87 163 -69 C163 -47 149 -25 121 -25 C96 -25 79 -43 79 -71 C79 -154 147 -210 251 -210 L251 -210 Z M258 187 C192 187 148 241 148 321 C148 401 191 455 256 455 C320 455 362 401 362 321 C362 241 321 187 258 187 L258 187 Z " />
<glyph glyph-name="h" unicode="h" horiz-adv-x="535" d="M125 -10 C144 -10 156 4 156 24 L156 341 C156 414 203 462 274 462 C345 462 392 414 392 341 L392 24 C392 4 405 -10 423 -10 C442 -10 454 4 454 24 L454 342 C454 442 391 509 297 509 C233 509 185 479 158 429 L156 429 L156 727 C156 747 144 761 125 761 C107 761 94 747 94 727 L94 24 C94 4 107 -10 125 -10 L125 -10 Z " />
<glyph glyph-name="i" unicode="i" horiz-adv-x="257" d="M128 595 C156 595 174 614 174 642 C174 669 156 687 128 687 C100 687 83 669 83 642 C83 614 100 595 128 595 L128 595 Z M126 -10 C146 -10 158 4 158 24 L158 476 C158 496 146 510 127 510 C109 510 96 496 96 476 L96 24 C96 4 108 -10 126 -10 L126 -10 Z " />
<glyph glyph-name="j" unicode="j" horiz-adv-x="284" d="M209 642 C208 669 190 687 164 686 C138 685 120 667 120 642 C119 614 136 595 164 596 C192 597 210 616 209 642 L209 642 Z M165 510 C147 510 134 496 134 476 L134 -109 C134 -137 120 -156 98 -156 C88 -156 79 -152 72 -144 C80 -138 84 -128 84 -117 C84 -94 69 -79 47 -79 C24 -79 9 -94 9 -117 C9 -173 48 -210 106 -210 C160 -210 196 -168 196 -105 L196 476 C196 496 183 510 165 510 L165 510 Z " />
<glyph glyph-name="k" unicode="k" horiz-adv-x="506" d="M225 263 L409 459 C420 470 424 478 424 489 C424 501 415 510 401 510 C388 510 381 506 366 490 L158 266 L158 700 C158 738 147 751 130 751 C106 751 94 739 94 700 L94 41 C94 3 106 -10 127 -10 C147 -10 158 2 158 41 L158 250 L370 16 C387 -3 398 -10 407 -10 C426 -10 436 -1 436 13 C436 23 432 31 425 40 L225 263 Z " />
<glyph glyph-name="l" unicode="l" horiz-adv-x="230" d="M125 -10 C144 -10 156 4 156 24 L156 726 C156 746 144 760 125 760 C107 760 94 746 94 726 L94 24 C94 4 106 -10 125 -10 L125 -10 Z " />
<glyph glyph-name="m" unicode="m" horiz-adv-x="822" d="M583 509 C509 509 454 468 434 403 C413 468 358 509 285 509 C218 509 168 476 143 422 L142 423 L144 442 L144 476 C144 496 132 510 113 510 C95 510 83 496 83 476 L83 24 C83 4 95 -10 113 -10 C132 -10 144 4 144 24 L144 342 C144 414 191 462 262 462 C333 462 380 414 380 341 L380 24 C380 4 393 -10 411 -10 C430 -10 443 4 443 24 L443 342 C443 414 490 462 560 462 C631 462 679 414 679 341 L679 24 C679 4 691 -10 710 -10 C728 -10 741 4 741 24 L741 342 C741 442 678 509 583 509 L583 509 Z " />
<glyph glyph-name="n" unicode="n" horiz-adv-x="523" d="M113 -10 C132 -10 144 4 144 24 L144 342 C144 414 191 462 262 462 C333 462 380 414 380 341 L380 24 C380 4 393 -10 411 -10 C430 -10 443 4 443 24 L443 342 C443 442 379 509 285 509 C224 509 173 480 146 432 L144 432 L144 476 C144 496 132 510 113 510 C95 510 83 496 83 476 L83 24 C83 4 95 -10 113 -10 L113 -10 Z " />
<glyph glyph-name="o" unicode="o" horiz-adv-x="532" d="M267 -10 C400 -10 451 94 451 250 C451 437 377 510 267 510 C133 510 81 406 81 250 C81 63 156 -10 267 -10 L267 -10 Z M269 38 C179 38 144 123 144 250 C144 403 193 462 267 462 C354 462 388 377 388 250 C388 97 341 38 269 38 L269 38 Z " />
<glyph glyph-name="p" unicode="p" horiz-adv-x="523" d="M113 -211 C132 -211 144 -197 144 -177 L144 45 L147 45 C166 11 212 -11 275 -11 C377 -11 443 94 443 249 C443 403 383 509 284 509 C219 509 172 476 148 425 L144 425 L144 476 C144 497 131 510 113 510 C96 510 83 497 83 476 L83 -177 C83 -197 95 -211 113 -211 L113 -211 Z M261 45 C214 45 168 63 144 95 L144 330 C144 404 188 454 259 454 C334 454 380 370 380 244 C380 124 334 45 261 45 L261 45 Z " />
<glyph glyph-name="q" unicode="q" horiz-adv-x="523" d="M411 -210 C429 -210 442 -196 442 -176 L442 461 C411 486 350 510 285 510 C161 510 81 403 81 243 C81 92 143 -10 239 -10 C306 -10 356 24 378 83 L380 83 L380 -176 C380 -196 393 -210 411 -210 L411 -210 Z M267 46 C193 46 144 126 144 246 C144 371 201 454 284 454 C320 454 356 444 380 428 L380 183 C380 110 335 46 267 46 L267 46 Z " />
<glyph glyph-name="r" unicode="r" horiz-adv-x="347" d="M113 -10 C132 -10 144 4 144 24 L144 310 C144 388 200 441 295 441 C322 441 340 454 340 475 C340 495 322 509 295 509 C223 509 170 467 146 399 L144 399 L144 476 C144 496 132 510 113 510 C95 510 83 496 83 476 L83 24 C83 4 95 -10 113 -10 L113 -10 Z " />
<glyph glyph-name="s" unicode="s" horiz-adv-x="474" d="M140 369 C140 421 186 455 251 455 C296 455 333 439 351 412 C333 408 321 395 321 378 C321 354 335 337 358 337 C380 337 396 354 396 381 C396 455 338 510 239 510 C145 510 81 451 81 363 C81 201 345 239 345 129 C345 79 301 45 234 45 C137 45 108 100 76 100 C61 100 50 90 50 75 C50 32 137 -10 243 -10 C340 -10 404 48 404 136 C404 291 140 256 140 369 L140 369 Z " />
<glyph glyph-name="t" unicode="t" horiz-adv-x="428" d="M340 75 C316 75 310 46 264 46 C217 46 192 64 192 104 L192 444 L323 444 C343 444 356 456 356 472 C356 489 343 500 322 500 L192 500 L192 606 C192 626 179 640 161 640 C143 640 130 626 130 606 L130 500 L90 500 C69 500 56 489 56 472 C56 456 69 444 89 444 L130 444 L130 117 C130 40 176 -10 252 -10 C310 -10 363 19 363 52 C363 65 354 75 340 75 L340 75 Z " />
<glyph glyph-name="u" unicode="u" horiz-adv-x="523" d="M410 -10 C428 -10 441 4 441 24 L441 476 C441 496 428 510 410 510 C392 510 379 496 379 476 L379 162 C379 88 332 38 261 38 C191 38 143 86 143 159 L143 476 C143 496 130 510 112 510 C94 510 81 496 81 476 L81 158 C81 58 144 -9 239 -9 C302 -9 352 21 377 71 L379 71 L379 24 C379 4 392 -10 410 -10 L410 -10 Z " />
<glyph glyph-name="v" unicode="v" horiz-adv-x="493" d="M407 510 C393 510 377 498 370 474 L260 46 L246 46 L130 472 C124 498 106 510 91 510 C73 510 57 493 67 459 L180 51 C191 12 217 -10 252 -10 C286 -10 310 12 320 51 L430 458 C440 493 425 510 407 510 L407 510 Z " />
<glyph glyph-name="w" unicode="w" horiz-adv-x="710" d="M624 509 C608 509 594 497 589 472 L499 46 L487 46 L415 469 C411 496 383 510 355 510 C326 510 299 496 294 469 L216 46 L205 46 L123 471 C118 495 104 508 88 508 C71 508 60 494 66 465 L154 41 C161 7 177 -11 207 -11 C240 -11 260 7 266 41 L342 454 L368 454 L436 41 C442 7 462 -11 495 -11 C526 -11 542 7 549 41 L648 466 C654 494 642 509 624 509 L624 509 Z " />
<glyph glyph-name="x" unicode="x" horiz-adv-x="463" d="M266 258 L402 471 C416 493 394 511 378 511 C369 511 359 506 350 492 L234 309 L118 492 C110 505 97 511 85 511 C64 511 46 490 68 456 L188 266 L35 31 C20 8 42 -10 58 -10 C66 -10 76 -7 83 5 L220 214 L349 10 C359 -5 371 -12 383 -12 C406 -12 423 11 403 43 L266 258 Z " />
<glyph glyph-name="y" unicode="y" horiz-adv-x="531" d="M448 510 C436 510 422 501 416 480 L296 50 L296 49 L272 49 L138 473 C131 499 115 510 101 510 C85 510 70 493 78 468 L213 44 C222 13 245 -8 270 -8 L279 -8 C236 -147 216 -163 187 -163 C170 -163 156 -159 145 -152 C160 -146 169 -132 169 -115 C169 -89 152 -72 126 -72 C100 -72 83 -89 83 -115 C83 -172 125 -210 187 -210 C261 -210 296 -160 353 47 L469 470 C477 496 463 510 448 510 L448 510 Z " />
<glyph glyph-name="z" unicode="z" horiz-adv-x="487" d="M154 57 L153 61 L413 445 C435 476 416 500 387 500 L112 500 C91 500 78 489 78 472 C78 454 91 443 112 443 L344 443 L345 439 L84 60 C59 24 80 0 111 0 L408 0 C428 0 442 11 442 28 C442 46 428 57 408 57 L154 57 Z " />
<glyph glyph-name="exclamdown" unicode="&#xa1;" horiz-adv-x="230" d="M115 581 C85 581 65 560 65 530 C65 501 85 480 115 480 C145 480 166 501 166 530 C166 560 145 581 115 581 L115 581 Z M115 426 C100 426 84 412 84 391 L72 -104 C71 -134 92 -148 115 -148 C139 -148 159 -134 158 -104 L146 391 C146 412 130 426 115 426 L115 426 Z " />
<glyph glyph-name="dieresis" unicode="&#xa8;" horiz-adv-x="600" d="M208 596 C235 596 252 616 252 642 C252 668 235 686 208 686 C183 686 165 668 165 642 C165 616 183 596 208 596 L208 596 Z M420 596 C447 596 465 616 465 642 C465 668 447 686 420 686 C395 686 377 668 377 642 C377 616 395 596 420 596 L420 596 Z " />
<glyph glyph-name="acute" unicode="&#xb4;" horiz-adv-x="258" d="M177 694 C207 732 145 781 115 725 L44 591 C28 561 61 545 78 567 L177 694 Z " />
<glyph glyph-name="periodcentered" unicode="&#xb7;" horiz-adv-x="205" d="M101 275 C132 275 152 296 152 326 C152 355 131 376 101 376 C71 376 51 355 51 326 C51 296 71 275 101 275 L101 275 Z " />
<glyph glyph-name="questiondown" unicode="&#xbf;" horiz-adv-x="411" d="M219 480 C249 480 269 501 269 530 C269 560 249 581 219 581 C188 581 168 560 168 530 C168 501 189 480 219 480 L219 480 Z M316 50 C291 50 273 34 274 8 C274 -12 285 -27 303 -32 C289 -68 255 -91 210 -91 C150 -91 112 -42 112 28 C112 191 246 153 246 388 C246 410 234 425 217 425 C200 425 188 409 188 387 C188 194 53 226 53 19 C53 -80 115 -148 210 -148 C301 -148 360 -82 360 5 C360 33 342 50 316 50 L316 50 Z " />
<glyph glyph-name="Aacute" unicode="&#xc1;" horiz-adv-x="609" d="M405 824 C450 842 418 911 364 880 L210 793 C183 777 205 747 229 757 L405 824 Z M375 651 C363 692 334 710 300 710 C267 710 240 692 228 651 L50 42 C41 10 55 -10 76 -10 C93 -10 107 1 115 28 L170 218 L433 218 L491 28 C499 2 514 -10 531 -10 C552 -10 569 9 559 42 L375 651 Z M297 654 L300 654 L416 274 L187 274 L297 654 Z " />
<glyph glyph-name="Atilde" unicode="&#xc3;" horiz-adv-x="609" d="M158 770 C171 770 181 781 181 798 C181 822 191 838 206 838 C255 838 340 778 405 778 C440 778 465 811 465 867 C465 884 455 895 441 895 C429 895 419 884 419 867 C419 842 412 826 402 826 C363 826 269 888 204 888 C163 888 135 854 135 798 C135 781 145 770 158 770 L158 770 Z M375 651 C363 692 334 710 300 710 C267 710 240 692 228 651 L50 42 C41 10 55 -10 76 -10 C93 -10 107 1 115 28 L170 218 L433 218 L491 28 C499 2 514 -10 531 -10 C552 -10 569 9 559 42 L375 651 Z M297 654 L300 654 L416 274 L187 274 L297 654 Z " />
<glyph glyph-name="Adieresis" unicode="&#xc4;" horiz-adv-x="609" d="M192 772 C220 772 238 792 238 820 C238 847 220 865 192 865 C165 865 147 847 147 820 C147 792 165 772 192 772 L192 772 Z M404 772 C432 772 451 792 451 820 C451 847 432 865 404 865 C377 865 359 847 359 820 C359 792 377 772 404 772 L404 772 Z M375 651 C363 692 334 710 300 710 C267 710 240 692 228 651 L50 42 C41 10 55 -10 76 -10 C93 -10 107 1 115 28 L170 218 L433 218 L491 28 C499 2 514 -10 531 -10 C552 -10 569 9 559 42 L375 651 Z M297 654 L300 654 L416 274 L187 274 L297 654 Z " />
<glyph glyph-name="AE" unicode="&#xc6;" horiz-adv-x="777" d="M502 58 L502 268 L646 268 C666 268 680 280 680 297 C680 314 666 325 646 325 L502 325 L502 643 L727 643 C747 643 760 654 760 672 C760 689 747 700 726 700 L446 700 C412 700 381 682 360 641 L55 42 C39 9 49 -10 71 -10 C87 -10 105 1 118 28 L240 268 L434 268 L434 31 C434 12 447 0 467 0 L727 0 C747 0 760 11 760 28 C760 46 747 58 726 58 L502 58 Z M430 644 L434 644 L434 325 L268 325 L430 644 Z " />
<glyph glyph-name="Eacute" unicode="&#xc9;" horiz-adv-x="442" d="M345 815 C390 833 358 902 304 871 L150 784 C123 768 145 738 169 748 L345 815 Z M164 58 L164 317 L311 317 C331 317 345 328 345 345 C345 362 331 374 311 374 L164 374 L164 643 L392 643 C412 643 425 654 425 672 C425 689 412 700 391 700 L130 700 C110 700 96 686 96 664 L96 31 C96 12 110 0 129 0 L392 0 C412 0 425 11 425 28 C425 46 412 58 391 58 L164 58 Z " />
<glyph glyph-name="Edieresis" unicode="&#xcb;" horiz-adv-x="442" d="M132 764 C160 764 178 784 178 812 C178 839 160 857 132 857 C105 857 87 839 87 812 C87 784 105 764 132 764 L132 764 Z M344 764 C372 764 391 784 391 812 C391 839 372 857 344 857 C317 857 299 839 299 812 C299 784 317 764 344 764 L344 764 Z M164 58 L164 317 L311 317 C331 317 345 328 345 345 C345 362 331 374 311 374 L164 374 L164 643 L392 643 C412 643 425 654 425 672 C425 689 412 700 391 700 L130 700 C110 700 96 686 96 664 L96 31 C96 12 110 0 129 0 L392 0 C412 0 425 11 425 28 C425 46 412 58 391 58 L164 58 Z " />
<glyph glyph-name="Iacute" unicode="&#xcd;" horiz-adv-x="260" d="M237 815 C282 833 250 902 196 871 L42 784 C15 768 37 738 61 748 L237 815 Z M130 -10 C152 -10 166 8 166 34 L166 666 C166 692 152 710 131 710 C111 710 97 692 97 666 L97 34 C97 8 111 -10 130 -10 L130 -10 Z " />
<glyph glyph-name="Idieresis" unicode="&#xcf;" horiz-adv-x="260" d="M62 764 C90 764 108 784 108 812 C108 839 90 857 62 857 C35 857 16 839 16 812 C16 784 35 764 62 764 L62 764 Z M199 764 C227 764 246 784 246 812 C246 839 227 857 199 857 C172 857 154 839 154 812 C154 784 172 764 199 764 L199 764 Z M130 -10 C152 -10 166 8 166 34 L166 666 C166 692 152 710 131 710 C111 710 97 692 97 666 L97 34 C97 8 111 -10 130 -10 L130 -10 Z " />
<glyph glyph-name="Ntilde" unicode="&#xd1;" horiz-adv-x="621" d="M178 761 C191 761 201 772 201 789 C201 813 211 829 226 829 C275 829 360 769 425 769 C460 769 485 802 485 858 C485 875 475 886 461 886 C449 886 439 875 439 858 C439 833 432 817 422 817 C383 817 289 879 224 879 C183 879 155 845 155 789 C155 772 165 761 178 761 L178 761 Z M496 710 C479 710 468 696 468 676 L468 47 L461 47 L221 662 C211 691 184 710 149 710 C117 710 96 691 96 662 L96 23 C96 3 108 -11 125 -11 C142 -11 153 3 153 23 L153 653 L159 653 L399 38 C410 8 438 -10 471 -10 C504 -10 525 8 525 38 L525 676 C525 696 514 710 496 710 L496 710 Z " />
<glyph glyph-name="Oacute" unicode="&#xd3;" horiz-adv-x="610" d="M411 815 C456 833 424 902 370 871 L216 784 C189 768 211 738 235 748 L411 815 Z M305 -10 C456 -10 519 127 519 351 C519 610 435 710 305 710 C154 710 91 573 91 351 C91 90 175 -10 305 -10 L305 -10 Z M305 47 C201 47 159 161 159 351 C159 571 217 653 305 653 C409 653 451 539 451 351 C451 129 393 47 305 47 L305 47 Z " />
<glyph glyph-name="Otilde" unicode="&#xd5;" horiz-adv-x="610" d="M164 761 C177 761 187 772 187 789 C187 813 197 829 212 829 C261 829 346 769 411 769 C446 769 471 802 471 858 C471 875 461 886 447 886 C435 886 425 875 425 858 C425 833 418 817 408 817 C369 817 275 879 210 879 C169 879 141 845 141 789 C141 772 151 761 164 761 L164 761 Z M305 -10 C456 -10 519 127 519 351 C519 610 435 710 305 710 C154 710 91 573 91 351 C91 90 175 -10 305 -10 L305 -10 Z M305 47 C201 47 159 161 159 351 C159 571 217 653 305 653 C409 653 451 539 451 351 C451 129 393 47 305 47 L305 47 Z " />
<glyph glyph-name="Odieresis" unicode="&#xd6;" horiz-adv-x="610" d="M198 764 C226 764 244 784 244 812 C244 839 226 857 198 857 C171 857 153 839 153 812 C153 784 171 764 198 764 L198 764 Z M410 764 C438 764 457 784 457 812 C457 839 438 857 410 857 C383 857 365 839 365 812 C365 784 383 764 410 764 L410 764 Z M305 -10 C456 -10 519 127 519 351 C519 610 435 710 305 710 C154 710 91 573 91 351 C91 90 175 -10 305 -10 L305 -10 Z M305 47 C201 47 159 161 159 351 C159 571 217 653 305 653 C409 653 451 539 451 351 C451 129 393 47 305 47 L305 47 Z " />
<glyph glyph-name="Uacute" unicode="&#xda;" horiz-adv-x="610" d="M411 815 C456 833 424 902 370 871 L216 784 C189 768 211 738 235 748 L411 815 Z M305 -10 C433 -10 519 82 519 228 L519 666 C519 692 505 710 485 710 C465 710 451 692 451 666 L451 228 C451 116 392 47 305 47 C218 47 159 116 159 228 L159 666 C159 692 145 710 125 710 C105 710 91 692 91 666 L91 228 C91 82 177 -10 305 -10 L305 -10 Z " />
<glyph glyph-name="Udieresis" unicode="&#xdc;" horiz-adv-x="610" d="M198 764 C226 764 244 784 244 812 C244 839 226 857 198 857 C171 857 153 839 153 812 C153 784 171 764 198 764 L198 764 Z M410 764 C438 764 457 784 457 812 C457 839 438 857 410 857 C383 857 365 839 365 812 C365 784 383 764 410 764 L410 764 Z M305 -10 C433 -10 519 82 519 228 L519 666 C519 692 505 710 485 710 C465 710 451 692 451 666 L451 228 C451 116 392 47 305 47 C218 47 159 116 159 228 L159 666 C159 692 145 710 125 710 C105 710 91 692 91 666 L91 228 C91 82 177 -10 305 -10 L305 -10 Z " />
<glyph glyph-name="Yacute" unicode="&#xdd;" horiz-adv-x="602" d="M414 815 C459 833 427 902 373 871 L219 784 C192 768 214 738 238 748 L414 815 Z M498 711 C483 711 470 700 460 675 L311 291 L299 291 L146 673 C135 699 122 711 107 711 C86 711 65 691 78 659 L240 278 C247 260 257 247 269 239 L269 34 C269 8 282 -10 302 -10 C323 -10 337 8 337 34 L337 238 C349 246 359 260 366 279 L524 659 C537 691 518 711 498 711 L498 711 Z " />
<glyph glyph-name="aacute" unicode="&#xe1;" horiz-adv-x="524" d="M358 694 C388 732 326 781 296 725 L225 591 C209 561 242 545 259 567 L358 694 Z M266 510 C165 510 99 453 99 377 C99 355 115 341 135 341 C155 341 169 354 169 374 C169 388 161 399 149 403 C163 440 205 464 259 464 C336 464 384 416 384 345 L384 269 C345 278 305 284 267 284 C170 284 81 244 81 134 C81 50 121 -10 242 -10 C307 -10 357 17 382 68 L384 68 L384 23 C384 2 396 -11 414 -11 C431 -11 443 3 443 23 L443 348 C443 447 372 510 266 510 L266 510 Z M255 40 C175 40 140 78 140 135 C140 217 198 237 276 237 C310 237 347 230 384 219 L384 169 C384 95 338 40 255 40 L255 40 Z " />
<glyph glyph-name="atilde" unicode="&#xe3;" horiz-adv-x="524" d="M149 575 C162 575 172 586 172 603 C172 627 182 645 197 645 C245 645 312 583 377 583 C412 583 436 616 436 672 C436 689 426 699 412 699 C400 699 390 689 390 672 C390 646 384 630 374 630 C335 630 259 692 194 692 C154 692 126 659 126 603 C126 586 136 575 149 575 L149 575 Z M266 510 C165 510 99 453 99 377 C99 355 115 341 135 341 C155 341 169 354 169 374 C169 388 161 399 149 403 C163 440 205 464 259 464 C336 464 384 416 384 345 L384 269 C345 278 305 284 267 284 C170 284 81 244 81 134 C81 50 121 -10 242 -10 C307 -10 357 17 382 68 L384 68 L384 23 C384 2 396 -11 414 -11 C431 -11 443 3 443 23 L443 348 C443 447 372 510 266 510 L266 510 Z M255 40 C175 40 140 78 140 135 C140 217 198 237 276 237 C310 237 347 230 384 219 L384 169 C384 95 338 40 255 40 L255 40 Z " />
<glyph glyph-name="adieresis" unicode="&#xe4;" horiz-adv-x="524" d="M174 596 C201 596 218 616 218 642 C218 668 201 686 174 686 C149 686 131 668 131 642 C131 616 149 596 174 596 L174 596 Z M386 596 C413 596 431 616 431 642 C431 668 413 686 386 686 C361 686 343 668 343 642 C343 616 361 596 386 596 L386 596 Z M266 510 C165 510 99 453 99 377 C99 355 115 341 135 341 C155 341 169 354 169 374 C169 388 161 399 149 403 C163 440 205 464 259 464 C336 464 384 416 384 345 L384 269 C345 278 305 284 267 284 C170 284 81 244 81 134 C81 50 121 -10 242 -10 C307 -10 357 17 382 68 L384 68 L384 23 C384 2 396 -11 414 -11 C431 -11 443 3 443 23 L443 348 C443 447 372 510 266 510 L266 510 Z M255 40 C175 40 140 78 140 135 C140 217 198 237 276 237 C310 237 347 230 384 219 L384 169 C384 95 338 40 255 40 L255 40 Z " />
<glyph glyph-name="ae" unicode="&#xe6;" horiz-adv-x="804" d="M242 -10 C312 -10 386 22 415 110 L417 110 C438 34 516 -10 590 -10 C644 -10 694 1 729 32 C767 60 740 100 698 74 C669 59 638 46 585 46 C500 46 447 120 443 235 L727 235 C745 235 757 249 757 270 C757 399 714 510 578 510 C509 510 449 463 426 412 L424 412 C401 464 339 510 266 510 C165 510 99 453 99 377 C99 355 115 341 135 341 C155 341 169 354 169 374 C169 387 162 397 151 401 C164 439 205 464 259 464 C336 464 384 416 384 345 L384 282 L267 282 C170 282 81 244 81 134 C81 50 121 -10 242 -10 L242 -10 Z M444 282 C447 406 514 454 579 454 C645 454 686 405 697 323 C699 310 700 296 701 282 L444 282 Z M255 40 C175 40 140 78 140 135 C140 217 198 235 276 235 L384 235 L384 169 C384 95 338 40 255 40 L255 40 Z " />
<glyph glyph-name="eacute" unicode="&#xe9;" horiz-adv-x="507" d="M355 694 C385 732 323 781 293 725 L222 591 C206 561 239 545 256 567 L355 694 Z M402 74 C372 59 342 46 289 46 C202 46 151 120 147 235 L431 235 C448 235 460 249 460 270 C460 399 417 510 280 510 C149 510 81 406 81 250 C81 63 177 -10 294 -10 C346 -10 397 1 432 32 C470 60 444 100 402 74 L402 74 Z M281 454 C350 454 387 403 397 318 C399 307 400 295 400 282 L148 282 C157 405 216 454 281 454 L281 454 Z " />
<glyph glyph-name="edieresis" unicode="&#xeb;" horiz-adv-x="507" d="M171 596 C198 596 215 616 215 642 C215 668 198 686 171 686 C146 686 128 668 128 642 C128 616 146 596 171 596 L171 596 Z M383 596 C410 596 428 616 428 642 C428 668 410 686 383 686 C358 686 340 668 340 642 C340 616 358 596 383 596 L383 596 Z M402 74 C372 59 342 46 289 46 C202 46 151 120 147 235 L431 235 C448 235 460 249 460 270 C460 399 417 510 280 510 C149 510 81 406 81 250 C81 63 177 -10 294 -10 C346 -10 397 1 432 32 C470 60 444 100 402 74 L402 74 Z M281 454 C350 454 387 403 397 318 C399 307 400 295 400 282 L148 282 C157 405 216 454 281 454 L281 454 Z " />
<glyph glyph-name="iacute" unicode="&#xed;" horiz-adv-x="227" d="M190 694 C220 732 158 781 128 725 L57 591 C41 561 74 545 91 567 L190 694 Z M112 -10 C132 -10 144 4 144 24 L144 476 C144 496 132 510 113 510 C95 510 83 496 83 476 L83 24 C83 4 94 -10 112 -10 L112 -10 Z " />
<glyph glyph-name="idieresis" unicode="&#xef;" horiz-adv-x="227" d="M43 596 C70 596 87 616 87 642 C87 668 70 686 43 686 C17 686 0 668 0 642 C0 616 17 596 43 596 L43 596 Z M180 596 C208 596 225 616 225 642 C225 668 208 686 180 686 C155 686 138 668 138 642 C138 616 155 596 180 596 L180 596 Z M112 -10 C132 -10 144 4 144 24 L144 476 C144 496 132 510 113 510 C95 510 83 496 83 476 L83 24 C83 4 94 -10 112 -10 L112 -10 Z " />
<glyph glyph-name="ntilde" unicode="&#xf1;" horiz-adv-x="523" d="M131 575 C144 575 154 586 154 603 C154 627 164 645 179 645 C227 645 294 583 359 583 C394 583 418 616 418 672 C418 689 408 699 394 699 C382 699 372 689 372 672 C372 646 366 630 356 630 C317 630 241 692 176 692 C136 692 108 659 108 603 C108 586 118 575 131 575 L131 575 Z M113 -10 C132 -10 144 4 144 24 L144 342 C144 414 191 462 262 462 C333 462 380 414 380 341 L380 24 C380 4 393 -10 411 -10 C430 -10 443 4 443 24 L443 342 C443 442 379 509 285 509 C224 509 173 480 146 432 L144 432 L144 476 C144 496 132 510 113 510 C95 510 83 496 83 476 L83 24 C83 4 95 -10 113 -10 L113 -10 Z " />
<glyph glyph-name="oacute" unicode="&#xf3;" horiz-adv-x="532" d="M344 694 C374 732 312 781 282 725 L211 591 C195 561 228 545 245 567 L344 694 Z M267 -10 C400 -10 451 94 451 250 C451 437 377 510 267 510 C133 510 81 406 81 250 C81 63 156 -10 267 -10 L267 -10 Z M269 38 C179 38 144 123 144 250 C144 403 193 462 267 462 C354 462 388 377 388 250 C388 97 341 38 269 38 L269 38 Z " />
<glyph glyph-name="otilde" unicode="&#xf5;" horiz-adv-x="532" d="M134 575 C147 575 157 586 157 603 C157 627 167 645 182 645 C230 645 297 583 362 583 C397 583 421 616 421 672 C421 689 411 699 397 699 C385 699 375 689 375 672 C375 646 369 630 359 630 C320 630 244 692 179 692 C139 692 111 659 111 603 C111 586 121 575 134 575 L134 575 Z M267 -10 C400 -10 451 94 451 250 C451 437 377 510 267 510 C133 510 81 406 81 250 C81 63 156 -10 267 -10 L267 -10 Z M269 38 C179 38 144 123 144 250 C144 403 193 462 267 462 C354 462 388 377 388 250 C388 97 341 38 269 38 L269 38 Z " />
<glyph glyph-name="odieresis" unicode="&#xf6;" horiz-adv-x="532" d="M159 596 C186 596 203 616 203 642 C203 668 186 686 159 686 C134 686 116 668 116 642 C116 616 134 596 159 596 L159 596 Z M371 596 C398 596 416 616 416 642 C416 668 398 686 371 686 C346 686 328 668 328 642 C328 616 346 596 371 596 L371 596 Z M267 -10 C400 -10 451 94 451 250 C451 437 377 510 267 510 C133 510 81 406 81 250 C81 63 156 -10 267 -10 L267 -10 Z M269 38 C179 38 144 123 144 250 C144 403 193 462 267 462 C354 462 388 377 388 250 C388 97 341 38 269 38 L269 38 Z " />
<glyph glyph-name="uacute" unicode="&#xfa;" horiz-adv-x="523" d="M339 694 C369 732 307 781 277 725 L206 591 C190 561 223 545 240 567 L339 694 Z M410 -10 C428 -10 441 4 441 24 L441 476 C441 496 428 510 410 510 C392 510 379 496 379 476 L379 162 C379 88 332 38 261 38 C191 38 143 86 143 159 L143 476 C143 496 130 510 112 510 C94 510 81 496 81 476 L81 158 C81 58 144 -9 239 -9 C302 -9 352 21 377 71 L379 71 L379 24 C379 4 392 -10 410 -10 L410 -10 Z " />
<glyph glyph-name="udieresis" unicode="&#xfc;" horiz-adv-x="523" d="M154 596 C181 596 198 616 198 642 C198 668 181 686 154 686 C129 686 111 668 111 642 C111 616 129 596 154 596 L154 596 Z M366 596 C393 596 411 616 411 642 C411 668 393 686 366 686 C341 686 323 668 323 642 C323 616 341 596 366 596 L366 596 Z M410 -10 C428 -10 441 4 441 24 L441 476 C441 496 428 510 410 510 C392 510 379 496 379 476 L379 162 C379 88 332 38 261 38 C191 38 143 86 143 159 L143 476 C143 496 130 510 112 510 C94 510 81 496 81 476 L81 158 C81 58 144 -9 239 -9 C302 -9 352 21 377 71 L379 71 L379 24 C379 4 392 -10 410 -10 L410 -10 Z " />
<glyph glyph-name="yacute" unicode="&#xfd;" horiz-adv-x="532" d="M364 694 C394 732 331 781 302 725 L231 591 C214 561 247 545 265 567 L364 694 Z M448 510 C436 510 422 501 416 480 L296 50 L296 49 L272 49 L138 473 C131 499 115 510 101 510 C85 510 70 493 78 468 L213 44 C222 13 245 -8 270 -8 L279 -8 C236 -147 216 -163 187 -163 C170 -163 156 -159 145 -152 C160 -146 169 -132 169 -115 C169 -89 152 -72 126 -72 C100 -72 83 -89 83 -115 C83 -172 125 -210 187 -210 C261 -210 296 -160 353 47 L469 470 C477 496 463 510 448 510 L448 510 Z " />
<glyph glyph-name="ydieresis" unicode="&#xff;" horiz-adv-x="532" d="M179 596 C206 596 223 616 223 642 C223 668 206 686 179 686 C153 686 136 668 136 642 C136 616 153 596 179 596 L179 596 Z M391 596 C418 596 436 616 436 642 C436 668 418 686 391 686 C366 686 348 668 348 642 C348 616 366 596 391 596 L391 596 Z M448 510 C436 510 422 501 416 480 L296 50 L296 49 L272 49 L138 473 C131 499 115 510 101 510 C85 510 70 493 78 468 L213 44 C222 13 245 -8 270 -8 L279 -8 C236 -147 216 -163 187 -163 C170 -163 156 -159 145 -152 C160 -146 169 -132 169 -115 C169 -89 152 -72 126 -72 C100 -72 83 -89 83 -115 C83 -172 125 -210 187 -210 C261 -210 296 -160 353 47 L469 470 C477 496 463 510 448 510 L448 510 Z " />
<glyph glyph-name="dotlessi" unicode="&#x131;" horiz-adv-x="227" d="M112 -10 C132 -10 144 4 144 24 L144 476 C144 496 132 510 113 510 C95 510 83 496 83 476 L83 24 C83 4 94 -10 112 -10 L112 -10 Z " />
<glyph glyph-name="OE" unicode="&#x152;" horiz-adv-x="711" d="M453 58 L453 317 L590 317 C610 317 624 328 624 345 C624 362 610 374 590 374 L453 374 L453 643 L661 643 C681 643 695 654 695 672 C695 689 681 700 660 700 L419 700 L325 700 C174 700 91 573 91 351 C91 90 194 0 325 0 L418 0 L661 0 C681 0 695 11 695 28 C695 46 681 58 660 58 L453 58 Z M159 351 C159 571 237 643 325 643 L385 643 L385 58 L325 58 C221 58 159 161 159 351 L159 351 Z " />
<glyph glyph-name="oe" unicode="&#x153;" horiz-adv-x="811" d="M267 -10 C342 -10 392 24 420 95 L424 95 C462 18 526 -10 597 -10 C649 -10 700 1 735 32 C773 60 747 100 705 74 C675 59 645 46 592 46 C505 46 454 121 450 235 L734 235 C751 235 763 249 763 270 C763 399 720 510 583 510 C509 510 455 475 422 406 L420 406 C388 483 335 510 267 510 C133 510 81 406 81 250 C81 63 156 -10 267 -10 L267 -10 Z M269 38 C179 38 144 123 144 250 C144 403 193 462 267 462 C354 462 388 377 388 250 C388 97 341 38 269 38 L269 38 Z M451 282 C460 406 520 454 584 454 C652 454 689 405 700 323 C702 309 703 296 703 282 L451 282 Z " />
<glyph glyph-name="Ydieresis" unicode="&#x178;" horiz-adv-x="602" d="M201 764 C229 764 247 784 247 812 C247 839 229 857 201 857 C174 857 156 839 156 812 C156 784 174 764 201 764 L201 764 Z M413 764 C441 764 460 784 460 812 C460 839 441 857 413 857 C386 857 368 839 368 812 C368 784 386 764 413 764 L413 764 Z M498 711 C483 711 470 700 460 675 L311 291 L299 291 L146 673 C135 699 122 711 107 711 C86 711 65 691 78 659 L240 278 C247 260 257 247 269 239 L269 34 C269 8 282 -10 302 -10 C323 -10 337 8 337 34 L337 238 C349 246 359 260 366 279 L524 659 C537 691 518 711 498 711 L498 711 Z " />
<glyph glyph-name="tilde" unicode="&#x2dc;" horiz-adv-x="600" d="M131 575 C144 575 154 586 154 603 C154 627 164 645 179 645 C227 645 294 583 359 583 C394 583 418 616 418 672 C418 689 408 699 394 699 C382 699 372 689 372 672 C372 646 366 630 356 630 C317 630 241 692 176 692 C136 692 108 659 108 603 C108 586 118 575 131 575 L131 575 Z " />
<glyph glyph-name="quoteleft" unicode="&#x2018;" horiz-adv-x="343" d="M217 666 C243 692 210 724 187 703 C146 667 97 598 97 525 C97 475 122 445 157 445 C193 445 217 466 217 500 C217 534 193 556 157 556 C154 556 152 556 150 555 C162 603 191 643 217 666 L217 666 Z " />
<glyph glyph-name="quoteright" unicode="&#x2019;" horiz-adv-x="343" d="M138 708 C101 708 78 687 78 653 C78 619 101 597 138 597 C141 597 143 597 145 598 C133 550 104 510 78 487 C52 461 85 429 108 450 C149 487 198 555 198 628 C198 679 172 708 138 708 L138 708 Z " />
<glyph glyph-name="quotesinglbase" unicode="&#x201a;" horiz-adv-x="210" d="M102 90 C70 90 48 71 48 40 C48 9 70 -11 102 -11 C104 -11 107 -11 109 -10 C98 -53 71 -89 49 -111 C24 -134 55 -163 75 -145 C113 -111 158 -49 158 18 C158 63 134 90 102 90 L102 90 Z " />
<glyph glyph-name="quotedblleft" unicode="&#x201c;" horiz-adv-x="343" d="M89 705 C48 668 -1 600 -1 527 C-1 476 24 447 59 447 C96 447 119 468 119 502 C119 536 96 558 59 558 C56 558 54 558 52 557 C64 605 93 645 119 668 C145 694 112 726 89 705 L89 705 Z M229 558 C226 558 224 558 222 557 C234 605 263 645 288 668 C315 694 282 726 259 705 C218 668 168 600 168 527 C168 476 194 447 229 447 C265 447 289 468 289 502 C289 536 265 558 229 558 L229 558 Z " />
<glyph glyph-name="quotedblright" unicode="&#x201d;" horiz-adv-x="343" d="M110 709 C74 709 50 688 50 654 C50 620 74 598 110 598 C113 598 115 598 118 599 C106 551 77 511 51 488 C24 462 58 430 80 451 C121 488 171 556 171 629 C171 680 145 709 110 709 L110 709 Z M280 709 C244 709 220 688 220 654 C220 620 244 598 280 598 C283 598 285 598 287 599 C275 551 246 511 220 488 C194 462 227 430 250 451 C291 488 341 556 341 629 C341 680 315 709 280 709 L280 709 Z " />
<glyph glyph-name="quotedblbase" unicode="&#x201e;" horiz-adv-x="306" d="M102 90 C70 90 48 71 48 40 C48 9 70 -11 102 -11 C104 -11 107 -11 109 -10 C98 -53 71 -89 49 -111 C24 -134 55 -163 75 -145 C113 -111 158 -49 158 18 C158 63 134 90 102 90 L102 90 Z M252 90 C219 90 198 71 198 40 C198 9 219 -11 252 -11 C254 -11 257 -11 259 -10 C248 -53 221 -89 198 -111 C174 -134 205 -163 225 -145 C262 -111 307 -49 307 18 C307 63 284 90 252 90 L252 90 Z " />
<glyph glyph-name="bullet" unicode="&#x2022;" horiz-adv-x="483" d="M243 225 C310 225 367 280 367 350 L367 352 C367 421 309 476 243 476 C175 476 117 421 117 352 L117 350 C117 280 174 225 243 225 L243 225 Z " />
<glyph glyph-name="ellipsis" unicode="&#x2026;" horiz-adv-x="205" d="M101 90 C71 90 51 69 51 40 C51 10 71 -11 101 -11 C132 -11 152 10 152 40 C152 69 131 90 101 90 L101 90 Z " />
<glyph glyph-name="fi" unicode="&#xfb01;" horiz-adv-x="575" d="M56 472 C56 456 69 444 89 444 L140 444 L140 26 C140 4 153 -10 171 -10 C189 -10 202 4 202 26 L202 444 L425 444 L425 24 C425 4 437 -10 455 -10 C474 -10 487 4 487 24 L487 466 C487 486 475 500 456 500 L202 500 L202 582 C202 674 260 707 338 707 C369 707 410 694 428 676 C410 671 401 655 401 639 C401 611 423 593 445 593 C469 593 492 612 492 648 C492 714 402 760 325 760 C227 760 140 704 140 576 L140 500 L90 500 C69 500 56 489 56 472 L56 472 Z " />
<glyph glyph-name="fl" unicode="&#xfb02;" horiz-adv-x="584" d="M481 760 C458 760 453 740 453 729 L453 702 L451 702 C420 739 385 760 324 760 C227 760 140 705 140 579 L140 500 L90 500 C71 500 56 490 56 472 C56 454 71 444 89 444 L140 444 L140 25 C140 6 151 -10 171 -10 C190 -10 202 6 202 25 L202 444 L302 444 C320 444 335 454 335 472 C335 490 320 500 301 500 L202 500 L202 582 C202 677 259 705 327 705 C399 705 449 654 449 590 L449 24 C449 3 461 -10 479 -10 C499 -10 511 4 511 24 L511 726 C511 744 501 760 481 760 L481 760 Z " />
</font>
</svg>
