<?xml version="1.0" encoding="UTF-8"?>
<svg xmlns="http://www.w3.org/2000/svg" xmlns:xlink="http://www.w3.org/1999/xlink" version="1.2" >
<font id="Animal Bold">
<font-face  font-family="Animal" units-per-em="1000" ascent="750" descent="-200" font-style="normal" font-weight="700" font-stretch="normal" cap-height="700" x-height="500" underline-position="-75" underline-thickness="50" />
<missing-glyph  horiz-adv-x="766" d="M278 451 C325 451 354 483 354 533 C354 584 317 650 270 650 C206 650 193 596 193 549 C193 497 230 451 278 451 L278 451 Z M481 442 C529 442 566 489 566 540 C566 587 553 641 489 641 C442 641 405 576 405 525 C405 475 434 442 481 442 L481 442 Z M127 290 C181 290 204 330 204 374 C204 424 166 472 118 472 C73 472 43 437 43 390 C43 340 78 290 127 290 L127 290 Z M639 275 C689 275 723 322 723 371 C723 414 696 455 646 455 C599 455 562 410 562 359 C562 315 586 275 639 275 L639 275 Z M380 29 C497 29 568 100 568 183 C568 249 533 302 497 347 C467 385 439 418 380 418 C321 418 293 385 263 347 C227 302 192 249 192 183 C192 100 263 29 380 29 L380 29 Z " />
<glyph glyph-name="NULL" d="" />
<glyph glyph-name="CR" unicode="&#xd;" horiz-adv-x="250" d="" />
<glyph glyph-name="space" unicode="&#x20;" horiz-adv-x="239" d="" />
<glyph glyph-name="exclam" unicode="&#x21;" horiz-adv-x="230" d="M115 210 C139 210 164 233 165 267 L184 690 C186 737 151 760 115 760 C80 760 44 737 46 690 L65 267 C66 233 90 210 115 210 L115 210 Z M114 -11 C155 -11 185 23 185 61 C185 96 151 129 114 129 C76 129 45 95 45 60 C45 23 76 -11 114 -11 L114 -11 Z " />
<glyph glyph-name="quotedbl" unicode="&#x22;" horiz-adv-x="481" d="M60 621 C39 752 214 751 200 648 L174 458 C167 401 93 382 84 455 L60 621 Z M280 621 C259 752 434 751 420 648 L394 458 C387 401 313 382 304 455 L280 621 Z " />
<glyph glyph-name="dollar" unicode="&#x24;" horiz-adv-x="600" d="M512 169 C512 345 225 318 225 463 C225 501 260 528 314 528 C358 528 390 513 407 488 C394 480 387 466 387 448 C387 416 410 395 445 395 C480 395 503 420 503 459 C503 542 450 601 362 618 L362 660 C362 696 340 720 307 720 C274 720 252 696 252 660 L252 618 C164 600 108 539 108 456 C108 246 392 260 392 162 C392 116 355 86 299 86 C224 86 195 130 166 146 C114 186 66 143 101 85 C117 40 171 3 254 -7 L254 -40 C254 -76 276 -100 309 -100 C342 -100 364 -76 364 -40 L364 -4 C455 16 512 80 512 169 L512 169 Z " />
<glyph glyph-name="ampersand" unicode="&#x26;" horiz-adv-x="614" d="M501 110 C479 110 437 141 392 189 C397 267 442 292 516 292 C550 292 568 318 568 345 C568 373 548 402 508 402 C423 402 368 337 353 231 C321 269 290 312 263 356 C358 374 418 445 419 544 C419 643 350 709 246 709 C147 709 81 643 81 544 C81 489 109 416 151 342 C71 328 20 264 20 173 C20 64 99 -9 218 -9 C285 -9 337 22 365 74 C416 29 465 0 501 0 C548 0 571 28 571 55 C571 83 548 110 501 110 L501 110 Z M253 618 C289 618 313 588 313 544 C313 463 288 404 247 383 C216 441 195 497 195 544 C195 588 218 618 253 618 L253 618 Z M266 85 C187 85 135 130 135 198 C135 256 147 298 167 314 C212 241 269 168 325 111 C313 95 293 85 266 85 L266 85 Z " />
<glyph glyph-name="quotesingle" unicode="&#x27;" horiz-adv-x="258" d="M60 621 C39 752 214 751 200 648 L174 458 C167 401 93 382 84 455 L60 621 Z " />
<glyph glyph-name="parenleft" unicode="&#x28;" horiz-adv-x="329" d="M217 -158 C248 -158 262 -138 262 -117 C262 -73 161 51 161 311 C161 561 262 675 262 719 C262 740 248 760 217 760 C187 760 171 743 153 713 C95 616 40 488 40 311 C40 124 95 -14 153 -111 C171 -141 187 -158 217 -158 L217 -158 Z " />
<glyph glyph-name="parenright" unicode="&#x29;" horiz-adv-x="329" d="M112 -158 C142 -158 158 -141 176 -111 C234 -14 289 124 289 311 C289 488 234 616 176 713 C158 743 142 760 112 760 C81 760 67 740 67 719 C67 675 168 561 168 311 C168 51 67 -73 67 -117 C67 -138 81 -158 112 -158 L112 -158 Z " />
<glyph glyph-name="comma" unicode="&#x2c;" horiz-adv-x="210" d="M105 130 C60 130 30 102 30 60 C30 18 60 -10 105 -10 C108 -10 111 -10 114 -9 C101 -46 74 -71 46 -98 C14 -130 54 -177 94 -141 C148 -93 181 -33 181 35 C181 103 148 130 105 130 L105 130 Z " />
<glyph glyph-name="hyphen" unicode="&#x2d;" horiz-adv-x="415" d="M302 270 C342 270 368 292 368 325 C368 358 342 380 301 380 L97 380 C57 380 30 358 30 325 C30 292 57 270 96 270 L302 270 Z " />
<glyph glyph-name="period" unicode="&#x2e;" horiz-adv-x="205" d="M102 -10 C143 -10 173 24 173 62 C173 97 139 130 102 130 C64 130 33 96 33 61 C33 24 64 -10 102 -10 L102 -10 Z " />
<glyph glyph-name="zero" unicode="0" horiz-adv-x="610" d="M305 -10 C449 -10 545 134 545 351 C545 566 449 710 305 710 C161 710 65 566 65 351 C65 134 161 -10 305 -10 L305 -10 Z M305 90 C233 90 185 194 185 351 C185 506 233 610 305 610 C377 610 425 506 425 351 C425 194 377 90 305 90 L305 90 Z " />
<glyph glyph-name="one" unicode="1" horiz-adv-x="325" d="M196 710 C157 710 116 684 73 660 C37 641 9 622 9 592 C9 561 25 544 46 544 C71 544 92 557 121 571 C126 573 130 576 135 578 L134 59 C134 18 158 -10 194 -10 C230 -9 254 19 254 60 L255 648 C255 685 233 710 196 710 L196 710 Z " />
<glyph glyph-name="two" unicode="2" horiz-adv-x="451" d="M176 95 C284 236 434 384 434 527 C434 637 351 710 228 710 C121 710 42 657 42 577 C42 530 70 499 111 499 C152 499 180 522 180 557 C180 574 173 588 161 597 C170 605 184 610 205 610 C259 610 316 573 316 518 C316 384 182 306 44 96 C8 41 39 0 78 0 L373 0 C412 0 439 19 439 47 C439 76 412 95 372 95 L176 95 Z " />
<glyph glyph-name="three" unicode="3" horiz-adv-x="487" d="M310 366 C378 389 421 448 421 527 C421 637 338 710 215 710 C104 710 29 645 29 547 C29 500 57 469 98 469 C139 469 167 492 167 527 C167 549 155 566 136 573 C142 596 167 610 204 610 C251 610 303 573 303 518 C303 448 245 402 189 402 C157 402 135 384 135 356 C135 331 157 314 189 314 C266 314 338 264 338 190 C338 130 271 90 200 90 C169 90 131 101 107 117 C50 155 -25 92 43 41 C83 10 149 -10 208 -10 C357 -10 456 73 456 197 C456 283 399 345 310 366 L310 366 Z " />
<glyph glyph-name="four" unicode="4" horiz-adv-x="565" d="M466 250 L466 440 C466 482 441 510 406 510 C370 510 346 482 346 440 L346 250 L205 250 L205 265 L295 613 C312 677 282 708 246 708 C220 708 191 692 182 661 L68 250 C50 185 66 150 142 150 L346 150 L346 60 C346 18 370 -10 405 -10 C442 -10 466 18 466 60 L466 150 L485 150 C521 150 545 167 545 200 C545 233 521 250 485 250 L466 250 Z " />
<glyph glyph-name="five" unicode="5" horiz-adv-x="482" d="M170 432 L170 600 L355 600 C390 600 414 620 414 650 C414 680 390 700 354 700 L125 700 C89 700 65 680 65 650 L65 432 C65 372 110 332 155 332 L219 332 C278 332 317 279 317 200 C317 134 277 90 218 90 C183 90 145 101 124 117 C74 155 9 92 68 41 C103 10 160 -10 212 -10 C347 -10 437 77 437 207 C437 342 349 432 218 432 L170 432 Z " />
<glyph glyph-name="six" unicode="6" horiz-adv-x="525" d="M275 -10 C395 -10 480 88 480 236 C480 376 417 470 330 470 C279 470 232 442 201 395 L199 397 C235 493 309 574 407 621 C469 651 412 747 311 688 C145 591 60 444 60 266 C60 100 155 -10 275 -10 L275 -10 Z M270 80 C216 80 175 154 175 267 C175 335 220 380 269 380 C324 380 365 320 365 230 C365 140 324 80 270 80 L270 80 Z " />
<glyph glyph-name="seven" unicode="7" horiz-adv-x="495" d="M100 700 C64 700 40 683 40 650 C40 617 64 600 100 600 L301 600 L303 596 L149 80 C119 -19 242 -42 266 38 L437 600 C456 664 439 700 363 700 L100 700 Z " />
<glyph glyph-name="eight" unicode="8" horiz-adv-x="532" d="M369 375 C424 404 457 456 457 519 C457 633 381 709 268 709 C152 709 75 633 75 519 C75 456 109 403 165 375 C96 345 55 282 55 205 C55 76 140 -10 268 -10 C393 -10 477 76 477 205 C477 283 436 345 369 375 L369 375 Z M268 618 C312 618 342 578 342 519 C342 451 312 411 268 411 C221 411 190 451 190 519 C190 578 221 618 268 618 L268 618 Z M268 81 C209 81 170 131 170 205 C170 287 209 334 268 334 C324 334 362 287 362 205 C362 131 324 81 268 81 L268 81 Z " />
<glyph glyph-name="nine" unicode="9" horiz-adv-x="600" d="M228 0 C420 0 510 175 510 437 C510 603 424 713 295 713 C172 713 90 623 90 487 C90 359 150 273 240 273 C308 273 361 306 389 362 L392 360 C378 189 313 108 222 108 C133 108 133 0 228 0 L228 0 Z M301 363 C243 363 205 415 205 493 C205 571 243 623 300 623 C356 623 395 557 395 441 C395 394 353 363 301 363 L301 363 Z " />
<glyph glyph-name="colon" unicode="&#x3a;" horiz-adv-x="205" d="M102 340 C143 340 173 374 173 412 C173 447 139 480 102 480 C64 480 33 446 33 411 C33 374 64 340 102 340 L102 340 Z M102 -11 C143 -11 173 23 173 61 C173 96 139 129 102 129 C64 129 33 95 33 60 C33 23 64 -11 102 -11 L102 -11 Z " />
<glyph glyph-name="semicolon" unicode="&#x3b;" horiz-adv-x="210" d="M102 340 C143 340 173 374 173 412 C173 447 139 480 102 480 C64 480 33 446 33 411 C33 374 64 340 102 340 L102 340 Z M105 130 C60 130 30 102 30 60 C30 18 60 -10 105 -10 C108 -10 111 -10 114 -9 C101 -46 74 -71 46 -98 C14 -130 54 -177 94 -141 C148 -93 181 -33 181 35 C181 103 148 130 105 130 L105 130 Z " />
<glyph glyph-name="question" unicode="&#x3f;" horiz-adv-x="411" d="M197 760 C69 760 -5 657 -3 582 C-2 530 27 505 63 505 C93 505 122 525 121 563 C121 580 115 596 102 606 C117 635 150 660 197 660 C261 660 289 613 289 558 C289 401 137 446 137 259 C137 217 161 196 192 196 C222 196 247 218 247 260 C247 405 399 366 399 567 C399 677 327 760 197 760 L197 760 Z M193 129 C155 129 124 95 124 60 C124 23 155 -11 193 -11 C234 -11 264 23 264 61 C264 96 230 129 193 129 L193 129 Z " />
<glyph glyph-name="at" unicode="&#x40;" horiz-adv-x="972" d="M398 -210 C466 -210 542 -196 590 -174 C669 -136 614 -48 545 -83 C512 -99 461 -110 418 -110 C266 -110 165 41 165 267 C165 497 305 650 516 650 C721 650 858 504 858 286 C858 169 826 91 778 91 C730 91 698 169 698 286 L698 474 C653 506 578 528 511 528 C368 528 272 409 272 231 C272 86 337 -10 434 -10 C515 -10 573 45 587 132 L593 130 C618 44 685 -9 775 -9 C897 -9 978 117 978 307 C978 573 796 750 523 750 C236 750 45 555 45 263 C45 -21 186 -210 398 -210 L398 -210 Z M459 90 C419 90 392 148 392 235 C392 342 440 408 512 408 C529 408 553 403 578 394 L578 280 C578 166 530 90 459 90 L459 90 Z " />
<glyph glyph-name="A" unicode="A" horiz-adv-x="613" d="M424 611 C404 682 356 710 306 710 C257 710 211 684 190 611 L35 72 C20 20 40 -9 77 -9 C109 -9 129 11 141 52 L179 186 L424 186 L462 53 C474 11 493 -9 530 -9 C570 -9 593 21 578 73 L424 611 Z M299 610 L304 610 L397 281 L206 281 L299 610 Z " />
<glyph glyph-name="B" unicode="B" horiz-adv-x="580" d="M443 359 C486 406 500 475 500 525 C500 640 397 710 253 710 C123 710 70 675 70 610 L70 66 C70 28 97 -2 135 -4 C191 -7 256 -10 305 -10 C440 -10 530 62 530 180 C530 256 494 321 443 359 L443 359 Z M305 90 C272 90 232 91 190 95 L190 602 C210 604 229 605 248 605 C352 605 390 553 390 501 C390 452 369 409 307 394 C269 385 258 372 258 347 C258 312 278 304 309 304 C382 304 410 260 410 200 C410 126 368 90 305 90 L305 90 Z " />
<glyph glyph-name="C" unicode="C" horiz-adv-x="537" d="M489 213 C452 218 431 198 419 164 C407 129 383 99 322 99 C212 99 185 194 185 350 C185 558 235 610 320 610 C368 610 393 595 411 582 C406 565 403 547 403 530 C403 475 434 448 464 448 C493 448 522 474 522 525 C522 653 450 710 320 710 C114 710 65 566 65 350 C65 62 163 -10 320 -10 C447 -10 515 61 528 148 C533 183 517 209 489 213 L489 213 Z " />
<glyph glyph-name="D" unicode="D" horiz-adv-x="605" d="M264 -9 C474 -9 540 140 540 350 C540 566 481 710 266 710 C143 710 70 686 70 629 L70 85 C70 12 148 -9 264 -9 L264 -9 Z M274 100 C240 100 206 106 190 110 L190 602 C219 606 245 608 268 608 C399 608 420 533 420 350 C420 150 396 100 274 100 L274 100 Z " />
<glyph glyph-name="E" unicode="E" horiz-adv-x="442" d="M190 100 L190 291 L328 291 C363 291 387 311 387 341 C387 371 363 391 327 391 L190 391 L190 600 L388 600 C423 600 447 620 447 650 C447 680 423 700 387 700 L130 700 C94 700 70 672 70 630 L70 70 C70 28 94 0 129 0 L388 0 C423 0 447 20 447 50 C447 79 423 100 387 100 L190 100 Z " />
<glyph glyph-name="F" unicode="F" horiz-adv-x="442" d="M130 700 C94 700 70 672 70 630 L70 60 C70 18 94 -10 129 -10 C165 -10 190 18 190 60 L190 271 L328 271 C363 271 387 291 387 321 C387 351 363 371 327 371 L190 371 L190 600 L388 600 C423 600 447 620 447 650 C447 680 423 700 387 700 L130 700 Z " />
<glyph glyph-name="G" unicode="G" horiz-adv-x="557" d="M348 325 C312 325 288 305 288 275 C288 245 312 225 347 225 L415 225 L415 154 C415 115 378 90 320 90 C210 90 185 194 185 350 C185 558 235 610 320 610 C372 610 406 587 416 551 C399 543 389 527 389 507 C389 472 415 449 454 449 C493 449 519 480 519 527 C519 637 443 710 320 710 C114 710 65 566 65 350 C65 62 163 -10 320 -10 C444 -10 525 56 525 155 L525 267 C525 302 503 325 470 325 L348 325 Z " />
<glyph glyph-name="H" unicode="H" horiz-adv-x="586" d="M456 710 C420 710 396 682 396 640 L396 395 L190 395 L190 640 C190 682 165 710 130 710 C94 710 70 682 70 640 L70 60 C70 18 94 -10 129 -10 C165 -10 190 18 190 60 L190 292 L396 292 L396 60 C396 18 420 -10 455 -10 C492 -10 516 18 516 60 L516 640 C516 682 491 710 456 710 L456 710 Z " />
<glyph glyph-name="I" unicode="I" horiz-adv-x="280" d="M140 -10 C176 -10 200 18 200 60 L200 640 C200 682 176 710 140 710 C104 710 80 682 80 640 L80 60 C80 18 104 -10 140 -10 L140 -10 Z " />
<glyph glyph-name="J" unicode="J" horiz-adv-x="455" d="M330 710 C294 710 270 682 270 640 L270 200 C270 134 232 90 190 90 C147 90 120 113 112 149 C130 157 140 173 140 193 C140 228 114 251 75 251 C36 251 10 220 10 173 C10 63 82 -10 200 -10 C318 -10 390 74 390 200 L390 640 C390 682 366 710 330 710 L330 710 Z " />
<glyph glyph-name="K" unicode="K" horiz-adv-x="546" d="M129 710 C94 710 70 682 70 640 L70 60 C70 18 94 -10 130 -10 C165 -10 190 18 190 60 L190 640 C190 682 166 710 129 710 L129 710 Z M342 371 L530 626 C538 637 542 651 542 666 C542 689 519 710 494 710 C464 710 444 696 423 667 L260 440 C242 415 234 394 234 373 C234 348 246 323 267 290 L436 22 C450 -1 473 -10 494 -10 C516 -10 544 12 544 37 C544 49 540 65 528 84 L342 371 Z " />
<glyph glyph-name="L" unicode="L" horiz-adv-x="442" d="M190 110 L190 640 C190 682 165 710 129 710 C94 710 70 682 70 640 L70 70 C70 28 94 0 130 0 L362 0 C398 0 422 22 422 55 C422 88 398 110 363 110 L190 110 Z " />
<glyph glyph-name="M" unicode="M" horiz-adv-x="779" d="M65 59 C63 14 90 -10 118 -10 C145 -10 173 13 175 53 L199 617 L206 617 L297 217 C309 163 346 136 382 136 C419 136 456 164 468 217 L561 617 L568 617 L602 53 C604 12 633 -10 661 -10 C689 -10 717 13 714 59 L678 603 C673 674 620 710 565 710 C510 710 457 674 446 603 L393 255 L381 255 L316 603 C302 675 249 709 198 709 C145 709 94 673 91 603 L65 59 Z " />
<glyph glyph-name="N" unicode="N" horiz-adv-x="604" d="M479 710 C446 710 428 686 428 650 L428 90 L421 90 L285 613 C270 669 241 710 177 710 C113 710 70 671 70 613 L70 50 C70 14 92 -10 125 -10 C158 -10 175 14 175 50 L175 610 L181 610 L317 86 C333 23 379 -10 425 -10 C491 -10 534 24 534 87 L534 650 C534 686 512 710 479 710 L479 710 Z " />
<glyph glyph-name="O" unicode="O" horiz-adv-x="610" d="M305 -10 C457 -10 545 84 545 351 C545 616 457 710 305 710 C153 710 65 616 65 351 C65 84 153 -10 305 -10 L305 -10 Z M305 90 C227 90 185 141 185 351 C185 559 227 610 305 610 C383 610 425 559 425 351 C425 141 383 90 305 90 L305 90 Z " />
<glyph glyph-name="P" unicode="P" horiz-adv-x="560" d="M257 710 C167 710 70 693 70 619 L70 60 C70 18 94 -10 130 -10 C166 -10 190 18 190 60 L190 601 C209 605 232 606 260 606 C341 606 400 550 400 460 C400 370 366 335 295 320 C260 313 236 300 236 270 C236 240 260 220 296 220 C433 220 520 318 520 466 C520 612 430 710 257 710 L257 710 Z " />
<glyph glyph-name="Q" unicode="Q" horiz-adv-x="609" d="M453 -173 C507 -173 544 -134 544 -90 C544 6 426 -83 352 -9 L352 -1 C489 38 538 192 538 351 C538 556 515 710 302 710 C89 710 65 556 65 351 C65 147 119 -9 252 -10 C289 -97 361 -173 453 -173 L453 -173 Z M306 85 C228 87 188 154 188 351 C188 551 222 615 302 615 C386 615 415 551 415 351 C415 174 387 87 306 85 L306 85 Z " />
<glyph glyph-name="R" unicode="R" horiz-adv-x="597" d="M374 291 C460 329 519 391 519 486 C519 620 440 710 267 710 C157 710 70 689 70 620 L70 60 C70 18 94 -10 130 -10 C166 -10 190 18 190 60 L190 601 C212 606 234 607 249 607 C350 607 399 558 399 480 C399 405 336 376 295 354 C251 330 244 312 244 293 C244 274 256 265 280 239 L427 36 C447 9 468 -9 492 -9 C528 -9 572 28 531 83 L374 291 Z " />
<glyph glyph-name="S" unicode="S" horiz-adv-x="528" d="M172 502 C172 560 223 610 290 610 C324 610 364 600 384 576 C359 569 345 545 345 520 C345 489 368 459 412 459 C448 459 481 490 481 549 C481 647 397 710 275 710 C125 710 49 605 49 502 C49 256 365 291 365 181 C365 124 320 91 266 91 C144 91 130 177 82 177 C54 177 38 155 38 128 C38 49 156 -9 261 -9 C394 -9 488 73 488 187 C488 396 172 343 172 502 L172 502 Z " />
<glyph glyph-name="T" unicode="T" horiz-adv-x="444" d="M40 700 C4 700 -20 680 -20 650 C-20 620 4 600 39 600 L162 600 L162 60 C162 18 186 -10 221 -10 C257 -10 282 18 282 60 L282 600 L405 600 C440 600 464 620 464 650 C464 680 440 700 404 700 L40 700 Z " />
<glyph glyph-name="U" unicode="U" horiz-adv-x="610" d="M305 -10 C447 -10 545 84 545 271 L545 640 C545 682 521 710 485 710 C449 710 425 682 425 640 L425 271 C425 141 373 90 305 90 C237 90 185 141 185 271 L185 640 C185 682 161 710 125 710 C89 710 65 682 65 640 L65 271 C65 84 163 -10 305 -10 L305 -10 Z " />
<glyph glyph-name="V" unicode="V" horiz-adv-x="608" d="M524 710 C495 710 466 690 456 650 L310 90 L307 90 L161 649 C151 688 121 709 93 709 C50 709 27 668 37 629 L179 99 C196 35 240 -10 304 -10 C367 -10 410 35 427 99 L570 630 C581 673 566 710 524 710 L524 710 Z " />
<glyph glyph-name="W" unicode="W" horiz-adv-x="724" d="M646 709 C622 709 598 690 593 649 L526 92 L514 92 L443 565 C437 606 404 634 361 634 C318 634 285 606 279 565 L206 93 L195 93 L131 649 C126 690 98 710 71 710 C42 710 16 687 21 643 L87 99 C96 28 147 -9 197 -9 C246 -9 293 26 302 99 L354 525 L362 525 L412 99 C420 27 469 -9 518 -9 C568 -9 618 27 627 99 L693 643 C698 686 673 709 646 709 L646 709 Z " />
<glyph glyph-name="X" unicode="X" horiz-adv-x="561" d="M348 371 L505 635 C527 672 506 710 468 710 C448 710 431 698 416 672 L293 465 L176 670 C160 698 137 709 115 709 C73 709 43 669 64 635 L219 362 L30 61 C9 28 38 -11 75 -11 C94 -11 112 1 128 28 L273 266 L404 35 C423 2 448 -11 472 -11 C516 -11 542 35 515 79 L348 371 Z " />
<glyph glyph-name="Y" unicode="Y" horiz-adv-x="544" d="M460 712 C437 712 418 694 403 659 L282 375 L275 375 L156 649 C138 691 117 712 91 712 C58 712 19 677 41 631 L217 269 L217 60 C217 18 241 -10 276 -10 C312 -10 337 18 337 60 L337 276 L501 630 C525 683 489 712 460 712 L460 712 Z " />
<glyph glyph-name="Z" unicode="Z" horiz-adv-x="511" d="M191 100 L191 111 L448 600 C479 660 450 700 374 700 L111 700 C75 700 51 683 51 650 C51 617 75 600 111 600 L311 600 L311 590 L53 101 C21 40 51 0 128 0 L411 0 C447 0 471 17 471 50 C471 83 447 100 411 100 L191 100 Z " />
<glyph glyph-name="underscore" unicode="&#x5f;" horiz-adv-x="398" d="M302 0 C342 0 368 22 368 55 C368 88 342 110 301 110 L97 110 C57 110 30 88 30 55 C30 22 57 0 96 0 L302 0 Z " />
<glyph glyph-name="a" unicode="a" horiz-adv-x="520" d="M270 510 C120 510 76 436 76 382 C76 338 97 317 130 317 C165 317 186 337 186 370 C186 383 180 395 170 405 C193 417 219 424 246 424 C324 424 355 382 355 308 L355 272 C321 279 287 282 255 282 C145 282 55 239 55 135 C55 42 116 -10 208 -10 C278 -10 327 22 353 75 L355 75 L355 49 C355 11 377 -11 410 -11 C445 -11 465 13 465 49 L465 320 C465 450 387 510 270 510 L270 510 Z M265 80 C204 80 170 106 170 145 C170 195 218 215 282 215 C305 215 330 212 355 207 L355 168 C355 112 319 80 265 80 L265 80 Z " />
<glyph glyph-name="b" unicode="b" horiz-adv-x="526" d="M240 -10 C382 -10 476 105 476 265 C476 405 418 510 293 510 C242 510 194 486 175 434 L170 434 L170 700 C170 733 148 760 115 760 C82 760 60 733 60 700 L60 83 C60 66 68 50 83 40 C131 9 189 -10 240 -10 L240 -10 Z M245 80 C223 80 197 86 170 106 L170 320 C170 377 202 420 259 420 C341 420 361 355 361 255 C361 155 316 80 245 80 L245 80 Z " />
<glyph glyph-name="c" unicode="c" horiz-adv-x="485" d="M364 117 C343 101 319 80 270 80 C202 80 170 148 170 250 C170 366 212 420 275 420 C308 420 333 408 343 389 C328 380 319 365 319 346 C319 311 345 288 384 288 C420 288 444 319 444 366 C444 452 376 510 275 510 C125 510 55 406 55 250 C55 73 143 -10 275 -10 C330 -10 387 9 419 41 C478 99 429 167 364 117 L364 117 Z " />
<glyph glyph-name="d" unicode="d" horiz-adv-x="521" d="M55 251 C55 111 115 -10 240 -10 C304 -10 339 34 351 65 L357 65 L357 51 C357 11 386 -10 414 -10 C440 -10 466 9 466 49 L466 700 C466 736 444 760 411 760 C378 760 356 736 356 700 L356 444 L350 444 C340 482 301 510 245 510 C123 510 55 406 55 251 L55 251 Z M170 255 C170 354 205 420 274 420 C312 420 356 406 356 328 L356 168 C356 115 315 80 261 80 C203 80 170 150 170 255 L170 255 Z " />
<glyph glyph-name="e" unicode="e" horiz-adv-x="490" d="M414 132 C365 132 378 80 275 80 C198 80 175 134 171 218 L385 218 C421 218 447 241 447 288 C447 425 393 510 262 510 C111 510 55 406 55 250 C55 63 143 -10 279 -10 C354 -10 451 36 451 95 C451 116 436 132 414 132 L414 132 Z M263 420 C315 420 342 383 347 296 L172 296 C180 384 212 420 263 420 L263 420 Z " />
<glyph glyph-name="f" unicode="f" horiz-adv-x="376" d="M270 760 C178 760 116 684 116 570 L116 500 L85 500 C52 500 30 482 30 455 C30 428 52 410 84 410 L116 410 L116 60 C116 18 138 -10 171 -10 C204 -10 226 18 226 60 L226 410 L301 410 C333 410 355 428 355 455 C355 482 333 500 300 500 L226 500 L226 584 C226 639 249 675 283 675 C292 675 299 674 306 671 C308 640 330 619 361 619 C394 619 416 642 416 677 C416 727 358 760 270 760 L270 760 Z " />
<glyph glyph-name="g" unicode="g" horiz-adv-x="506" d="M251 -210 C371 -210 451 -152 451 -64 C451 102 217 42 217 104 C217 121 233 132 256 132 C370 132 446 208 446 321 C446 394 420 428 400 452 C395 458 390 468 390 480 C390 490 394 501 404 512 C413 504 425 499 439 499 C473 499 496 524 496 562 C496 599 473 624 439 624 C392 624 349 583 349 488 L346 486 C329 499 292 510 256 510 C141 510 64 434 64 321 C64 237 122 179 195 152 L195 146 C146 141 102 117 102 77 C102 -40 337 15 337 -71 C337 -100 292 -120 225 -120 C191 -120 162 -113 140 -99 C147 -92 150 -82 150 -71 C150 -43 128 -25 95 -25 C62 -25 40 -43 40 -71 C40 -154 124 -210 251 -210 L251 -210 Z M258 217 C208 217 174 259 174 321 C174 383 207 425 256 425 C304 425 336 383 336 321 C336 259 305 217 258 217 L258 217 Z " />
<glyph glyph-name="h" unicode="h" horiz-adv-x="525" d="M115 -10 C148 -10 170 14 170 50 L170 319 C170 385 206 419 260 419 C318 419 356 381 356 324 L356 50 C356 14 379 -10 413 -10 C447 -10 470 14 470 50 L470 331 C470 438 405 509 307 509 C248 509 201 483 173 439 L170 439 L170 700 C170 736 148 760 115 760 C82 760 60 736 60 700 L60 50 C60 14 82 -10 115 -10 L115 -10 Z " />
<glyph glyph-name="i" unicode="i" horiz-adv-x="257" d="M128 573 C169 573 196 601 196 643 C196 683 169 709 128 709 C88 709 61 682 61 642 C61 601 88 573 128 573 L128 573 Z M129 -11 C162 -11 184 16 184 49 L184 450 C184 483 162 510 129 510 C96 510 74 483 74 450 L74 49 C74 16 96 -11 129 -11 L129 -11 Z " />
<glyph glyph-name="j" unicode="j" horiz-adv-x="284" d="M165 573 C206 573 233 601 233 643 C233 683 206 709 165 709 C125 709 98 682 98 642 C98 601 125 573 165 573 L165 573 Z M165 510 C132 510 110 486 110 450 L110 -66 C110 -103 98 -128 81 -128 L78 -128 C79 -124 80 -121 80 -117 C80 -82 58 -59 25 -59 C-8 -59 -30 -82 -30 -117 C-30 -173 18 -210 89 -210 C168 -210 220 -151 220 -62 L220 450 C220 486 198 510 165 510 L165 510 Z " />
<glyph glyph-name="k" unicode="k" horiz-adv-x="462" d="M292 268 L435 419 C447 431 452 446 452 461 C452 487 433 510 397 510 C377 510 360 496 341 474 L175 274 L175 683 C175 739 151 760 121 760 C85 760 60 739 60 683 L60 67 C60 11 85 -10 118 -10 C151 -10 175 11 175 67 L175 244 L344 25 C363 1 387 -10 409 -10 C437 -10 460 9 460 38 C460 55 452 76 433 99 L292 268 Z " />
<glyph glyph-name="l" unicode="l" horiz-adv-x="230" d="M115 -10 C148 -10 170 14 170 50 L170 700 C170 736 148 760 115 760 C82 760 60 736 60 700 L60 50 C60 14 82 -10 115 -10 L115 -10 Z " />
<glyph glyph-name="m" unicode="m" horiz-adv-x="826" d="M608 509 C536 509 482 471 458 408 C434 471 380 509 308 509 C246 509 197 480 170 432 L168 433 L171 447 L171 450 C171 486 149 510 116 510 C83 510 61 486 61 450 L61 50 C61 14 83 -10 116 -10 C149 -10 171 14 171 50 L171 331 C171 384 207 419 261 419 C319 419 357 381 357 324 L357 50 C357 14 380 -10 414 -10 C448 -10 471 14 471 50 L471 331 C471 384 507 419 561 419 C619 419 657 381 657 324 L657 50 C657 14 680 -10 714 -10 C748 -10 771 14 771 50 L771 331 C771 438 706 509 608 509 L608 509 Z " />
<glyph glyph-name="n" unicode="n" horiz-adv-x="526" d="M116 -10 C149 -10 171 14 171 50 L171 331 C171 384 207 419 261 419 C319 419 357 381 357 324 L357 50 C357 14 380 -10 414 -10 C448 -10 471 14 471 50 L471 331 C471 438 406 509 308 509 C249 509 201 480 173 437 L171 437 L171 450 C171 486 149 510 116 510 C83 510 61 486 61 450 L61 50 C61 14 83 -10 116 -10 L116 -10 Z " />
<glyph glyph-name="o" unicode="o" horiz-adv-x="532" d="M267 -10 C418 -10 477 94 477 250 C477 437 393 510 267 510 C114 510 55 406 55 250 C55 63 140 -10 267 -10 L267 -10 Z M269 81 C198 81 170 149 170 250 C170 372 209 419 267 419 C335 419 362 351 362 250 C362 128 325 81 269 81 L269 81 Z " />
<glyph glyph-name="p" unicode="p" horiz-adv-x="527" d="M116 -215 C149 -215 171 -191 171 -155 L171 56 L176 56 C185 18 218 -10 280 -10 C408 -10 472 98 472 253 C472 393 434 510 300 510 C229 510 194 471 177 435 L170 435 L170 449 C170 489 144 510 116 510 C90 510 61 491 61 451 L61 -155 C61 -191 83 -215 116 -215 L116 -215 Z M257 80 C202 80 172 100 172 153 L172 323 C172 376 197 420 264 420 C336 420 357 350 357 245 C357 146 324 80 257 80 L257 80 Z " />
<glyph glyph-name="q" unicode="q" horiz-adv-x="521" d="M411 -210 C444 -210 466 -183 466 -150 L466 443 C413 482 351 509 276 509 C134 509 55 399 55 239 C55 99 118 -11 233 -11 C284 -11 332 13 351 65 L356 65 L356 -150 C356 -183 378 -210 411 -210 L411 -210 Z M267 80 C205 80 170 150 170 250 C170 353 218 417 285 417 C307 417 331 409 356 394 L356 166 C356 119 324 80 267 80 L267 80 Z " />
<glyph glyph-name="r" unicode="r" horiz-adv-x="354" d="M116 -10 C149 -10 171 14 171 50 L171 301 C171 354 190 389 288 389 C334 389 364 413 364 449 C364 485 334 509 288 509 C232 509 196 479 173 431 L171 431 L171 450 C171 486 149 510 116 510 C83 510 61 486 61 450 L61 50 C61 14 83 -10 116 -10 L116 -10 Z " />
<glyph glyph-name="s" unicode="s" horiz-adv-x="474" d="M169 359 C169 399 214 421 260 421 C287 421 320 414 340 399 C326 391 318 376 318 356 C318 332 334 309 371 309 C401 309 429 335 429 380 C429 437 386 510 247 510 C139 510 55 447 55 359 C55 173 319 229 319 127 C319 98 285 79 234 79 C127 79 112 146 80 146 C57 146 40 127 40 99 C40 41 121 -10 243 -10 C358 -10 434 46 434 134 C434 287 169 263 169 359 L169 359 Z " />
<glyph glyph-name="t" unicode="t" horiz-adv-x="428" d="M347 111 C324 111 296 80 264 80 C235 80 216 102 216 134 L216 410 L328 410 C360 410 382 428 382 455 C382 482 360 500 327 500 L216 500 L216 580 C216 616 194 640 161 640 C128 640 106 616 106 580 L106 500 L85 500 C52 500 30 482 30 455 C30 428 52 410 84 410 L106 410 L106 169 C106 62 169 -10 264 -10 C312 -10 388 15 388 66 C388 90 370 111 347 111 L347 111 Z " />
<glyph glyph-name="u" unicode="u" horiz-adv-x="526" d="M410 -10 C443 -10 465 14 465 50 L465 450 C465 486 443 510 410 510 C377 510 355 486 355 450 L355 196 C355 130 319 81 265 81 C207 81 169 119 169 176 L169 450 C169 486 146 510 112 510 C78 510 55 486 55 450 L55 169 C55 62 120 -9 218 -9 C278 -9 325 18 353 63 L355 63 L355 50 C355 14 377 -10 410 -10 L410 -10 Z " />
<glyph glyph-name="v" unicode="v" horiz-adv-x="493" d="M415 512 C392 512 367 494 358 459 L264 92 L243 92 L151 449 C140 493 112 512 86 512 C53 512 22 480 36 431 L124 99 C141 35 191 -8 249 -8 C307 -8 356 35 372 99 L456 430 C470 484 444 512 415 512 L415 512 Z " />
<glyph glyph-name="w" unicode="w" horiz-adv-x="690" d="M608 510 C586 510 562 492 556 449 L503 92 L489 92 L431 449 C425 488 386 510 345 510 C304 510 265 488 259 449 L201 92 L187 92 L134 449 C128 489 102 508 77 508 C51 508 27 486 34 443 L90 99 C100 35 137 -8 197 -8 C262 -8 286 35 295 99 L339 420 L351 420 L395 99 C404 35 428 -8 493 -8 C553 -8 590 35 600 99 L656 443 C663 483 636 510 608 510 L608 510 Z " />
<glyph glyph-name="x" unicode="x" horiz-adv-x="463" d="M427 428 C453 465 418 510 385 510 C370 510 353 502 339 483 L238 342 L149 469 C127 500 102 513 81 513 C40 513 12 467 48 415 L157 257 L25 70 C-2 32 34 -11 66 -11 C82 -11 100 -3 114 16 L221 165 L313 32 C335 1 360 -12 382 -12 C424 -12 453 35 415 90 L301 252 L427 428 Z " />
<glyph glyph-name="y" unicode="y" horiz-adv-x="522" d="M444 510 C421 510 396 495 387 459 L290 92 L262 92 L170 449 C159 491 131 510 105 510 C72 510 42 480 55 431 L143 99 C160 35 210 -8 259 -8 C224 -115 207 -120 180 -120 C170 -120 160 -118 151 -115 C157 -108 160 -98 160 -87 C160 -52 136 -29 100 -29 C64 -29 40 -52 40 -87 C40 -161 103 -210 183 -210 C289 -210 331 -142 392 75 L485 430 C499 484 473 510 444 510 L444 510 Z " />
<glyph glyph-name="z" unicode="z" horiz-adv-x="487" d="M198 100 L197 104 L417 413 C454 465 433 500 368 500 L117 500 C81 500 57 480 57 450 C57 420 81 400 117 400 L273 400 L275 396 L68 112 C15 40 38 0 115 0 L387 0 C423 0 447 20 447 50 C447 80 423 100 387 100 L198 100 Z " />
<glyph glyph-name="exclamdown" unicode="&#xa1;" horiz-adv-x="230" d="M114 580 C76 580 45 546 45 509 C45 474 76 440 114 440 C151 440 185 473 185 508 C185 546 155 580 114 580 L114 580 Z M115 359 C90 359 66 336 65 302 L46 -121 C44 -168 80 -191 115 -191 C151 -191 186 -168 184 -121 L165 302 C164 336 139 359 115 359 L115 359 Z " />
<glyph glyph-name="dieresis" unicode="&#xa8;" horiz-adv-x="600" d="M208 573 C249 573 276 601 276 643 C276 683 249 709 208 709 C168 709 141 682 141 642 C141 601 168 573 208 573 L208 573 Z M421 573 C462 573 489 601 489 643 C489 683 462 709 421 709 C381 709 354 682 354 642 C354 601 381 573 421 573 L421 573 Z " />
<glyph glyph-name="acute" unicode="&#xb4;" horiz-adv-x="258" d="M211 684 C271 745 157 832 105 736 L39 615 C10 563 67 538 100 572 L211 684 Z " />
<glyph glyph-name="periodcentered" unicode="&#xb7;" horiz-adv-x="205" d="M102 255 C143 255 173 289 173 327 C173 362 139 395 102 395 C64 395 33 361 33 326 C33 289 64 255 102 255 L102 255 Z " />
<glyph glyph-name="questiondown" unicode="&#xbf;" horiz-adv-x="411" d="M218 440 C256 440 287 474 287 509 C287 546 256 580 218 580 C177 580 147 546 147 508 C147 473 181 440 218 440 L218 440 Z M414 -13 C413 39 384 64 348 64 C318 64 289 44 290 6 C290 -11 296 -27 309 -37 C294 -66 261 -91 214 -91 C150 -91 122 -44 122 11 C122 168 274 123 274 310 C274 352 250 373 219 373 C189 373 164 351 164 309 C164 164 12 203 12 2 C12 -108 84 -191 214 -191 C342 -191 416 -88 414 -13 L414 -13 Z " />
<glyph glyph-name="Aacute" unicode="&#xc1;" horiz-adv-x="613" d="M396 793 C473 818 415 941 330 883 L222 810 C175 778 212 733 255 747 L396 793 Z M424 611 C404 682 356 710 306 710 C257 710 211 684 190 611 L35 72 C20 20 40 -9 77 -9 C109 -9 129 11 141 52 L179 186 L424 186 L462 53 C474 11 493 -9 530 -9 C570 -9 593 21 578 73 L424 611 Z M299 610 L304 610 L397 281 L206 281 L299 610 Z " />
<glyph glyph-name="Atilde" unicode="&#xc3;" horiz-adv-x="613" d="M165 764 C185 764 205 779 205 809 C205 819 211 823 222 823 C258 823 347 776 412 776 C456 776 489 798 489 868 C489 899 468 914 448 914 C428 914 409 900 409 872 C409 862 403 858 393 858 C358 858 270 907 204 907 C159 907 125 885 125 809 C125 779 145 764 165 764 L165 764 Z M424 611 C404 682 356 710 306 710 C257 710 211 684 190 611 L35 72 C20 20 40 -9 77 -9 C109 -9 129 11 141 52 L179 186 L424 186 L462 53 C474 11 493 -9 530 -9 C570 -9 593 21 578 73 L424 611 Z M299 610 L304 610 L397 281 L206 281 L299 610 Z " />
<glyph glyph-name="Adieresis" unicode="&#xc4;" horiz-adv-x="613" d="M199 773 C240 773 267 801 267 843 C267 883 240 909 199 909 C159 909 132 882 132 842 C132 801 159 773 199 773 L199 773 Z M412 773 C453 773 480 801 480 843 C480 883 453 909 412 909 C372 909 345 882 345 842 C345 801 372 773 412 773 L412 773 Z M424 611 C404 682 356 710 306 710 C257 710 211 684 190 611 L35 72 C20 20 40 -9 77 -9 C109 -9 129 11 141 52 L179 186 L424 186 L462 53 C474 11 493 -9 530 -9 C570 -9 593 21 578 73 L424 611 Z M299 610 L304 610 L397 281 L206 281 L299 610 Z " />
<glyph glyph-name="AE" unicode="&#xc6;" horiz-adv-x="758" d="M526 100 L526 234 L644 234 C679 234 703 254 703 284 C703 314 679 334 643 334 L526 334 L526 600 L704 600 C739 600 763 620 763 650 C763 680 739 700 703 700 L430 700 C381 700 328 675 293 601 L43 72 C18 19 31 -9 68 -9 C100 -9 126 11 145 52 L230 234 L406 234 L406 70 C406 28 430 0 465 0 L704 0 C739 0 763 20 763 50 C763 79 739 100 703 100 L526 100 Z M402 600 L406 600 L406 329 L275 329 L402 600 Z " />
<glyph glyph-name="Eacute" unicode="&#xc9;" horiz-adv-x="442" d="M329 793 C406 818 348 941 263 883 L155 810 C108 778 145 733 188 747 L329 793 Z M190 100 L190 291 L328 291 C363 291 387 311 387 341 C387 371 363 391 327 391 L190 391 L190 600 L388 600 C423 600 447 620 447 650 C447 680 423 700 387 700 L130 700 C94 700 70 672 70 630 L70 70 C70 28 94 0 129 0 L388 0 C423 0 447 20 447 50 C447 79 423 100 387 100 L190 100 Z " />
<glyph glyph-name="Edieresis" unicode="&#xcb;" horiz-adv-x="442" d="M132 773 C173 773 200 801 200 843 C200 883 173 909 132 909 C92 909 65 882 65 842 C65 801 92 773 132 773 L132 773 Z M345 773 C386 773 413 801 413 843 C413 883 386 909 345 909 C305 909 278 882 278 842 C278 801 305 773 345 773 L345 773 Z M190 100 L190 291 L328 291 C363 291 387 311 387 341 C387 371 363 391 327 391 L190 391 L190 600 L388 600 C423 600 447 620 447 650 C447 680 423 700 387 700 L130 700 C94 700 70 672 70 630 L70 70 C70 28 94 0 129 0 L388 0 C423 0 447 20 447 50 C447 79 423 100 387 100 L190 100 Z " />
<glyph glyph-name="Iacute" unicode="&#xcd;" horiz-adv-x="280" d="M230 793 C307 818 249 941 164 883 L56 810 C9 778 46 733 89 747 L230 793 Z M140 -10 C176 -10 200 18 200 60 L200 640 C200 682 176 710 140 710 C104 710 80 682 80 640 L80 60 C80 18 104 -10 140 -10 L140 -10 Z " />
<glyph glyph-name="Idieresis" unicode="&#xcf;" horiz-adv-x="280" d="M53 773 C94 773 121 801 121 843 C121 883 94 909 53 909 C13 909 -14 882 -14 842 C-14 801 13 773 53 773 L53 773 Z M226 773 C267 773 294 801 294 843 C294 883 267 909 226 909 C186 909 159 882 159 842 C159 801 186 773 226 773 L226 773 Z M140 -10 C176 -10 200 18 200 60 L200 640 C200 682 176 710 140 710 C104 710 80 682 80 640 L80 60 C80 18 104 -10 140 -10 L140 -10 Z " />
<glyph glyph-name="Ntilde" unicode="&#xd1;" horiz-adv-x="604" d="M169 764 C189 764 209 779 209 809 C209 819 215 823 226 823 C262 823 351 776 416 776 C460 776 493 798 493 868 C493 899 472 914 452 914 C432 914 413 900 413 872 C413 862 407 858 397 858 C362 858 274 907 208 907 C163 907 129 885 129 809 C129 779 149 764 169 764 L169 764 Z M479 710 C446 710 428 686 428 650 L428 90 L421 90 L285 613 C270 669 241 710 177 710 C113 710 70 671 70 613 L70 50 C70 14 92 -10 125 -10 C158 -10 175 14 175 50 L175 610 L181 610 L317 86 C333 23 379 -10 425 -10 C491 -10 534 24 534 87 L534 650 C534 686 512 710 479 710 L479 710 Z " />
<glyph glyph-name="Oacute" unicode="&#xd3;" horiz-adv-x="610" d="M395 793 C472 818 414 941 329 883 L221 810 C174 778 211 733 254 747 L395 793 Z M305 -10 C457 -10 545 84 545 351 C545 616 457 710 305 710 C153 710 65 616 65 351 C65 84 153 -10 305 -10 L305 -10 Z M305 90 C227 90 185 141 185 351 C185 559 227 610 305 610 C383 610 425 559 425 351 C425 141 383 90 305 90 L305 90 Z " />
<glyph glyph-name="Otilde" unicode="&#xd5;" horiz-adv-x="610" d="M164 764 C184 764 204 779 204 809 C204 819 210 823 221 823 C257 823 346 776 411 776 C455 776 488 798 488 868 C488 899 467 914 447 914 C427 914 408 900 408 872 C408 862 402 858 392 858 C357 858 269 907 203 907 C158 907 124 885 124 809 C124 779 144 764 164 764 L164 764 Z M305 -10 C457 -10 545 84 545 351 C545 616 457 710 305 710 C153 710 65 616 65 351 C65 84 153 -10 305 -10 L305 -10 Z M305 90 C227 90 185 141 185 351 C185 559 227 610 305 610 C383 610 425 559 425 351 C425 141 383 90 305 90 L305 90 Z " />
<glyph glyph-name="Odieresis" unicode="&#xd6;" horiz-adv-x="610" d="M198 773 C239 773 266 801 266 843 C266 883 239 909 198 909 C158 909 131 882 131 842 C131 801 158 773 198 773 L198 773 Z M411 773 C452 773 479 801 479 843 C479 883 452 909 411 909 C371 909 344 882 344 842 C344 801 371 773 411 773 L411 773 Z M305 -10 C457 -10 545 84 545 351 C545 616 457 710 305 710 C153 710 65 616 65 351 C65 84 153 -10 305 -10 L305 -10 Z M305 90 C227 90 185 141 185 351 C185 559 227 610 305 610 C383 610 425 559 425 351 C425 141 383 90 305 90 L305 90 Z " />
<glyph glyph-name="Uacute" unicode="&#xda;" horiz-adv-x="610" d="M395 793 C472 818 414 941 329 883 L221 810 C174 778 211 733 254 747 L395 793 Z M305 -10 C447 -10 545 84 545 271 L545 640 C545 682 521 710 485 710 C449 710 425 682 425 640 L425 271 C425 141 373 90 305 90 C237 90 185 141 185 271 L185 640 C185 682 161 710 125 710 C89 710 65 682 65 640 L65 271 C65 84 163 -10 305 -10 L305 -10 Z " />
<glyph glyph-name="Udieresis" unicode="&#xdc;" horiz-adv-x="610" d="M198 773 C239 773 266 801 266 843 C266 883 239 909 198 909 C158 909 131 882 131 842 C131 801 158 773 198 773 L198 773 Z M411 773 C452 773 479 801 479 843 C479 883 452 909 411 909 C371 909 344 882 344 842 C344 801 371 773 411 773 L411 773 Z M305 -10 C447 -10 545 84 545 271 L545 640 C545 682 521 710 485 710 C449 710 425 682 425 640 L425 271 C425 141 373 90 305 90 C237 90 185 141 185 271 L185 640 C185 682 161 710 125 710 C89 710 65 682 65 640 L65 271 C65 84 163 -10 305 -10 L305 -10 Z " />
<glyph glyph-name="Yacute" unicode="&#xdd;" horiz-adv-x="544" d="M362 793 C439 818 381 941 296 883 L188 810 C141 778 178 733 221 747 L362 793 Z M460 712 C437 712 418 694 403 659 L282 375 L275 375 L156 649 C138 691 117 712 91 712 C58 712 19 677 41 631 L217 269 L217 60 C217 18 241 -10 276 -10 C312 -10 337 18 337 60 L337 276 L501 630 C525 683 489 712 460 712 L460 712 Z " />
<glyph glyph-name="aacute" unicode="&#xe1;" horiz-adv-x="520" d="M379 684 C439 745 325 832 273 736 L207 615 C178 563 235 538 268 572 L379 684 Z M270 510 C120 510 76 436 76 382 C76 338 97 317 130 317 C165 317 186 337 186 370 C186 383 180 395 170 405 C193 417 219 424 246 424 C324 424 355 382 355 308 L355 272 C321 279 287 282 255 282 C145 282 55 239 55 135 C55 42 116 -10 208 -10 C278 -10 327 22 353 75 L355 75 L355 49 C355 11 377 -11 410 -11 C445 -11 465 13 465 49 L465 320 C465 450 387 510 270 510 L270 510 Z M265 80 C204 80 170 106 170 145 C170 195 218 215 282 215 C305 215 330 212 355 207 L355 168 C355 112 319 80 265 80 L265 80 Z " />
<glyph glyph-name="atilde" unicode="&#xe3;" horiz-adv-x="520" d="M146 564 C166 564 186 579 186 609 C186 619 192 623 201 623 C235 623 317 576 378 576 C419 576 450 598 450 668 C450 699 429 714 409 714 C389 714 370 700 370 672 C370 662 365 658 355 658 C322 658 240 707 179 707 C138 707 106 685 106 609 C106 579 126 564 146 564 L146 564 Z M270 510 C120 510 76 436 76 382 C76 338 97 317 130 317 C165 317 186 337 186 370 C186 383 180 395 170 405 C193 417 219 424 246 424 C324 424 355 382 355 308 L355 272 C321 279 287 282 255 282 C145 282 55 239 55 135 C55 42 116 -10 208 -10 C278 -10 327 22 353 75 L355 75 L355 49 C355 11 377 -11 410 -11 C445 -11 465 13 465 49 L465 320 C465 450 387 510 270 510 L270 510 Z M265 80 C204 80 170 106 170 145 C170 195 218 215 282 215 C305 215 330 212 355 207 L355 168 C355 112 319 80 265 80 L265 80 Z " />
<glyph glyph-name="adieresis" unicode="&#xe4;" horiz-adv-x="520" d="M170 573 C211 573 238 601 238 643 C238 683 211 709 170 709 C130 709 103 682 103 642 C103 601 130 573 170 573 L170 573 Z M383 573 C424 573 451 601 451 643 C451 683 424 709 383 709 C343 709 316 682 316 642 C316 601 343 573 383 573 L383 573 Z M270 510 C120 510 76 436 76 382 C76 338 97 317 130 317 C165 317 186 337 186 370 C186 383 180 395 170 405 C193 417 219 424 246 424 C324 424 355 382 355 308 L355 272 C321 279 287 282 255 282 C145 282 55 239 55 135 C55 42 116 -10 208 -10 C278 -10 327 22 353 75 L355 75 L355 49 C355 11 377 -11 410 -11 C445 -11 465 13 465 49 L465 320 C465 450 387 510 270 510 L270 510 Z M265 80 C204 80 170 106 170 145 C170 195 218 215 282 215 C305 215 330 212 355 207 L355 168 C355 112 319 80 265 80 L265 80 Z " />
<glyph glyph-name="ae" unicode="&#xe6;" horiz-adv-x="784" d="M208 -10 C270 -10 358 11 398 76 L401 76 C431 22 496 -10 573 -10 C648 -10 745 36 745 95 C745 116 730 132 708 132 C659 132 672 80 569 80 C498 80 465 125 465 218 L679 218 C715 218 741 241 741 288 C741 425 687 510 556 510 C495 510 443 485 416 452 L413 452 C385 486 330 510 270 510 C120 510 76 436 76 382 C76 338 97 317 130 317 C165 317 186 337 186 370 C186 383 180 395 170 405 C193 417 219 424 246 424 C324 424 355 382 355 308 L355 296 L255 296 C145 296 55 239 55 135 C55 42 116 -10 208 -10 L208 -10 Z M466 296 C474 384 506 420 557 420 C603 420 629 391 638 325 C640 316 640 306 641 296 L466 296 Z M265 80 C204 80 170 106 170 145 C170 195 218 218 282 218 L355 218 L355 168 C355 112 319 80 265 80 L265 80 Z " />
<glyph glyph-name="eacute" unicode="&#xe9;" horiz-adv-x="490" d="M347 684 C407 745 293 832 241 736 L175 615 C146 563 203 538 236 572 L347 684 Z M414 132 C365 132 378 80 275 80 C198 80 175 134 171 218 L385 218 C421 218 447 241 447 288 C447 425 393 510 262 510 C111 510 55 406 55 250 C55 63 143 -10 279 -10 C354 -10 451 36 451 95 C451 116 436 132 414 132 L414 132 Z M263 420 C315 420 342 383 347 296 L172 296 C180 384 212 420 263 420 L263 420 Z " />
<glyph glyph-name="edieresis" unicode="&#xeb;" horiz-adv-x="490" d="M138 573 C179 573 206 601 206 643 C206 683 179 709 138 709 C98 709 71 682 71 642 C71 601 98 573 138 573 L138 573 Z M351 573 C392 573 419 601 419 643 C419 683 392 709 351 709 C311 709 284 682 284 642 C284 601 311 573 351 573 L351 573 Z M414 132 C365 132 378 80 275 80 C198 80 175 134 171 218 L385 218 C421 218 447 241 447 288 C447 425 393 510 262 510 C111 510 55 406 55 250 C55 63 143 -10 279 -10 C354 -10 451 36 451 95 C451 116 436 132 414 132 L414 132 Z M263 420 C315 420 342 383 347 296 L172 296 C180 384 212 420 263 420 L263 420 Z " />
<glyph glyph-name="iacute" unicode="&#xed;" horiz-adv-x="232" d="M218 684 C278 745 164 832 112 736 L46 615 C17 563 74 538 107 572 L218 684 Z M116 -11 C149 -11 171 16 171 49 L171 450 C171 483 149 510 116 510 C83 510 61 483 61 450 L61 49 C61 16 83 -11 116 -11 L116 -11 Z " />
<glyph glyph-name="idieresis" unicode="&#xef;" horiz-adv-x="232" d="M29 573 C70 573 97 601 97 643 C97 683 70 709 29 709 C-11 709 -38 682 -38 642 C-38 601 -11 573 29 573 L29 573 Z M202 573 C243 573 270 601 270 643 C270 683 243 709 202 709 C162 709 135 682 135 642 C135 601 162 573 202 573 L202 573 Z M116 -11 C149 -11 171 16 171 49 L171 450 C171 483 149 510 116 510 C83 510 61 483 61 450 L61 49 C61 16 83 -11 116 -11 L116 -11 Z " />
<glyph glyph-name="ntilde" unicode="&#xf1;" horiz-adv-x="526" d="M135 564 C155 564 175 579 175 609 C175 619 181 623 190 623 C224 623 306 576 367 576 C408 576 439 598 439 668 C439 699 418 714 398 714 C378 714 359 700 359 672 C359 662 354 658 344 658 C311 658 229 707 168 707 C127 707 95 685 95 609 C95 579 115 564 135 564 L135 564 Z M116 -10 C149 -10 171 14 171 50 L171 331 C171 384 207 419 261 419 C319 419 357 381 357 324 L357 50 C357 14 380 -10 414 -10 C448 -10 471 14 471 50 L471 331 C471 438 406 509 308 509 C249 509 201 480 173 437 L171 437 L171 450 C171 486 149 510 116 510 C83 510 61 486 61 450 L61 50 C61 14 83 -10 116 -10 L116 -10 Z " />
<glyph glyph-name="oacute" unicode="&#xf3;" horiz-adv-x="532" d="M368 684 C428 745 314 832 262 736 L196 615 C167 563 224 538 257 572 L368 684 Z M267 -10 C418 -10 477 94 477 250 C477 437 393 510 267 510 C114 510 55 406 55 250 C55 63 140 -10 267 -10 L267 -10 Z M269 81 C198 81 170 149 170 250 C170 372 209 419 267 419 C335 419 362 351 362 250 C362 128 325 81 269 81 L269 81 Z " />
<glyph glyph-name="otilde" unicode="&#xf5;" horiz-adv-x="532" d="M135 564 C155 564 175 579 175 609 C175 619 181 623 190 623 C224 623 306 576 367 576 C408 576 439 598 439 668 C439 699 418 714 398 714 C378 714 359 700 359 672 C359 662 354 658 344 658 C311 658 229 707 168 707 C127 707 95 685 95 609 C95 579 115 564 135 564 L135 564 Z M267 -10 C418 -10 477 94 477 250 C477 437 393 510 267 510 C114 510 55 406 55 250 C55 63 140 -10 267 -10 L267 -10 Z M269 81 C198 81 170 149 170 250 C170 372 209 419 267 419 C335 419 362 351 362 250 C362 128 325 81 269 81 L269 81 Z " />
<glyph glyph-name="odieresis" unicode="&#xf6;" horiz-adv-x="532" d="M159 573 C200 573 227 601 227 643 C227 683 200 709 159 709 C119 709 92 682 92 642 C92 601 119 573 159 573 L159 573 Z M372 573 C413 573 440 601 440 643 C440 683 413 709 372 709 C332 709 305 682 305 642 C305 601 332 573 372 573 L372 573 Z M267 -10 C418 -10 477 94 477 250 C477 437 393 510 267 510 C114 510 55 406 55 250 C55 63 140 -10 267 -10 L267 -10 Z M269 81 C198 81 170 149 170 250 C170 372 209 419 267 419 C335 419 362 351 362 250 C362 128 325 81 269 81 L269 81 Z " />
<glyph glyph-name="uacute" unicode="&#xfa;" horiz-adv-x="526" d="M367 684 C427 745 313 832 261 736 L195 615 C166 563 223 538 256 572 L367 684 Z M410 -10 C443 -10 465 14 465 50 L465 450 C465 486 443 510 410 510 C377 510 355 486 355 450 L355 196 C355 130 319 81 265 81 C207 81 169 119 169 176 L169 450 C169 486 146 510 112 510 C78 510 55 486 55 450 L55 169 C55 62 120 -9 218 -9 C278 -9 325 18 353 63 L355 63 L355 50 C355 14 377 -10 410 -10 L410 -10 Z " />
<glyph glyph-name="udieresis" unicode="&#xfc;" horiz-adv-x="526" d="M158 573 C199 573 226 601 226 643 C226 683 199 709 158 709 C118 709 91 682 91 642 C91 601 118 573 158 573 L158 573 Z M371 573 C412 573 439 601 439 643 C439 683 412 709 371 709 C331 709 304 682 304 642 C304 601 331 573 371 573 L371 573 Z M410 -10 C443 -10 465 14 465 50 L465 450 C465 486 443 510 410 510 C377 510 355 486 355 450 L355 196 C355 130 319 81 265 81 C207 81 169 119 169 176 L169 450 C169 486 146 510 112 510 C78 510 55 486 55 450 L55 169 C55 62 120 -9 218 -9 C278 -9 325 18 353 63 L355 63 L355 50 C355 14 377 -10 410 -10 L410 -10 Z " />
<glyph glyph-name="yacute" unicode="&#xfd;" horiz-adv-x="522" d="M363 684 C423 745 309 832 257 736 L191 615 C162 563 219 538 252 572 L363 684 Z M444 510 C421 510 396 495 387 459 L290 92 L262 92 L170 449 C159 491 131 510 105 510 C72 510 42 480 55 431 L143 99 C160 35 210 -8 259 -8 C224 -115 207 -120 180 -120 C170 -120 160 -118 151 -115 C157 -108 160 -98 160 -87 C160 -52 136 -29 100 -29 C64 -29 40 -52 40 -87 C40 -161 103 -210 183 -210 C289 -210 331 -142 392 75 L485 430 C499 484 473 510 444 510 L444 510 Z " />
<glyph glyph-name="ydieresis" unicode="&#xff;" horiz-adv-x="522" d="M154 573 C195 573 222 601 222 643 C222 683 195 709 154 709 C114 709 87 682 87 642 C87 601 114 573 154 573 L154 573 Z M367 573 C408 573 435 601 435 643 C435 683 408 709 367 709 C327 709 300 682 300 642 C300 601 327 573 367 573 L367 573 Z M444 510 C421 510 396 495 387 459 L290 92 L262 92 L170 449 C159 491 131 510 105 510 C72 510 42 480 55 431 L143 99 C160 35 210 -8 259 -8 C224 -115 207 -120 180 -120 C170 -120 160 -118 151 -115 C157 -108 160 -98 160 -87 C160 -52 136 -29 100 -29 C64 -29 40 -52 40 -87 C40 -161 103 -210 183 -210 C289 -210 331 -142 392 75 L485 430 C499 484 473 510 444 510 L444 510 Z " />
<glyph glyph-name="dotlessi" unicode="&#x131;" horiz-adv-x="232" d="M116 -11 C149 -11 171 16 171 49 L171 450 C171 483 149 510 116 510 C83 510 61 483 61 450 L61 49 C61 16 83 -11 116 -11 L116 -11 Z " />
<glyph glyph-name="OE" unicode="&#x152;" horiz-adv-x="737" d="M505 100 L505 291 L633 291 C668 291 692 311 692 341 C692 371 668 391 632 391 L505 391 L505 600 L683 600 C718 600 742 620 742 650 C742 680 718 700 682 700 L445 700 C377 700 355 699 325 699 C173 699 65 616 65 351 C65 84 173 0 325 0 L444 0 L683 0 C718 0 742 20 742 50 C742 79 718 100 682 100 L505 100 Z M185 351 C185 559 247 599 325 599 C341 599 358 599 385 600 L385 100 L325 100 C247 100 185 141 185 351 L185 351 Z " />
<glyph glyph-name="oe" unicode="&#x153;" horiz-adv-x="794" d="M267 -10 C336 -10 385 11 419 65 L421 65 C460 8 516 -10 583 -10 C658 -10 755 36 755 95 C755 116 740 132 718 132 C669 132 682 80 579 80 C502 80 479 134 475 218 L689 218 C725 218 751 241 751 288 C751 425 697 510 566 510 C500 510 451 490 418 443 L416 443 C379 494 328 510 267 510 C114 510 55 406 55 250 C55 63 140 -10 267 -10 L267 -10 Z M476 296 C484 384 516 420 567 420 C614 420 641 390 649 319 C650 312 651 304 651 296 L476 296 Z M269 81 C198 81 170 149 170 250 C170 372 209 419 267 419 C335 419 362 351 362 250 C362 128 325 81 269 81 L269 81 Z " />
<glyph glyph-name="Ydieresis" unicode="&#x178;" horiz-adv-x="544" d="M165 773 C206 773 233 801 233 843 C233 883 206 909 165 909 C125 909 98 882 98 842 C98 801 125 773 165 773 L165 773 Z M378 773 C419 773 446 801 446 843 C446 883 419 909 378 909 C338 909 311 882 311 842 C311 801 338 773 378 773 L378 773 Z M460 712 C437 712 418 694 403 659 L282 375 L275 375 L156 649 C138 691 117 712 91 712 C58 712 19 677 41 631 L217 269 L217 60 C217 18 241 -10 276 -10 C312 -10 337 18 337 60 L337 276 L501 630 C525 683 489 712 460 712 L460 712 Z " />
<glyph glyph-name="tilde" unicode="&#x2dc;" horiz-adv-x="600" d="M132 564 C152 564 172 579 172 609 C172 619 178 623 187 623 C221 623 303 576 364 576 C405 576 436 598 436 668 C436 699 415 714 395 714 C375 714 356 700 356 672 C356 662 351 658 341 658 C308 658 226 707 165 707 C124 707 92 685 92 609 C92 579 112 564 132 564 L132 564 Z " />
<glyph glyph-name="quoteleft" unicode="&#x2018;" horiz-adv-x="418" d="M93 570 C90 570 87 570 84 569 C98 609 127 638 158 667 C194 702 150 754 106 714 C46 661 10 595 10 521 C10 446 46 416 93 416 C143 416 176 447 176 493 C176 539 143 570 93 570 L93 570 Z " />
<glyph glyph-name="quoteright" unicode="&#x2019;" horiz-adv-x="433" d="M116 721 C66 721 33 690 33 644 C33 598 66 567 116 567 C119 567 122 567 125 568 C110 528 82 499 51 470 C15 435 59 383 103 423 C163 476 199 542 199 617 C199 691 163 721 116 721 L116 721 Z " />
<glyph glyph-name="quotesinglbase" unicode="&#x201a;" horiz-adv-x="210" d="M105 130 C60 130 30 102 30 60 C30 18 60 -10 105 -10 C108 -10 111 -10 114 -9 C101 -46 74 -71 46 -98 C14 -130 54 -177 94 -141 C148 -93 181 -33 181 35 C181 103 148 130 105 130 L105 130 Z " />
<glyph glyph-name="quotedblleft" unicode="&#x201c;" horiz-adv-x="418" d="M93 570 C90 570 87 570 84 569 C98 609 127 638 158 667 C194 702 150 754 106 714 C46 661 10 595 10 521 C10 446 46 416 93 416 C143 416 176 447 176 493 C176 539 143 570 93 570 L93 570 Z M299 570 C295 570 292 570 289 569 C303 609 332 638 363 667 C399 702 355 754 311 714 C251 661 215 595 215 521 C215 446 251 416 299 416 C348 416 381 447 381 493 C381 539 348 570 299 570 L299 570 Z " />
<glyph glyph-name="quotedblright" unicode="&#x201d;" horiz-adv-x="433" d="M116 721 C66 721 33 690 33 644 C33 598 66 567 116 567 C119 567 122 567 125 568 C110 528 82 499 51 470 C15 435 59 383 103 423 C163 476 199 542 199 617 C199 691 163 721 116 721 L116 721 Z M321 721 C271 721 238 690 238 644 C238 598 271 567 321 567 C324 567 327 567 330 568 C315 528 287 499 256 470 C220 435 264 383 308 423 C368 476 404 542 404 617 C404 691 368 721 321 721 L321 721 Z " />
<glyph glyph-name="quotedblbase" unicode="&#x201e;" horiz-adv-x="400" d="M105 130 C60 130 30 102 30 60 C30 18 60 -10 105 -10 C108 -10 111 -10 114 -9 C101 -46 74 -71 46 -98 C14 -130 54 -177 94 -141 C148 -93 181 -33 181 35 C181 103 148 130 105 130 L105 130 Z M315 130 C270 130 240 102 240 60 C240 18 270 -10 315 -10 C318 -10 321 -10 324 -9 C311 -46 284 -71 256 -98 C224 -130 264 -177 304 -141 C358 -93 391 -33 391 35 C391 103 358 130 315 130 L315 130 Z " />
<glyph glyph-name="bullet" unicode="&#x2022;" horiz-adv-x="483" d="M242 209 C319 209 383 271 383 349 L383 351 C383 429 318 492 242 492 C165 492 100 429 100 351 L100 349 C100 271 164 209 242 209 L242 209 Z " />
<glyph glyph-name="ellipsis" unicode="&#x2026;" horiz-adv-x="205" d="M102 130 C64 130 33 96 33 61 C33 24 64 -10 102 -10 C143 -10 173 24 173 62 C173 97 139 130 102 130 L102 130 Z " />
<glyph glyph-name="fi" unicode="&#xfb01;" horiz-adv-x="583" d="M30 455 C30 428 52 410 84 410 L116 410 L116 60 C116 18 138 -10 171 -10 C204 -10 226 18 226 60 L226 410 L412 410 L412 49 C412 16 434 -11 467 -11 C500 -11 522 16 522 49 L522 440 C522 476 505 500 470 500 L226 500 L226 563 C226 643 285 685 337 685 C359 685 382 678 399 663 C397 657 396 651 396 644 C396 609 419 581 457 581 C495 581 518 604 518 644 C518 710 425 759 327 759 C217 759 116 700 116 539 L116 500 L85 500 C52 500 30 482 30 455 L30 455 Z " />
<glyph glyph-name="fl" unicode="&#xfb02;" horiz-adv-x="606" d="M490 760 C457 760 442 734 442 707 L442 688 L440 688 C425 725 396 760 315 760 C218 760 116 707 116 562 L116 500 L86 500 C64 500 30 490 30 455 C30 420 64 410 83 410 L116 410 L116 57 C116 32 129 -10 171 -10 C212 -10 226 31 226 57 L226 410 L302 410 C320 410 355 420 355 455 C355 491 319 500 300 500 L226 500 L226 565 C226 661 275 675 326 675 C395 675 436 631 436 559 L436 49 C436 12 460 -10 492 -10 C528 -10 546 20 546 50 L546 703 C546 721 535 760 490 760 L490 760 Z " />
</font>
</svg>
