<?xml version="1.0" encoding="UTF-8"?>
<svg xmlns="http://www.w3.org/2000/svg" xmlns:xlink="http://www.w3.org/1999/xlink" version="1.2" >
<font id="Animal Regular">
<font-face  font-family="Animal" units-per-em="1000" ascent="750" descent="-200" font-style="normal" font-weight="400" font-stretch="normal" cap-height="700" x-height="500" underline-position="-75" underline-thickness="50" />
<missing-glyph  horiz-adv-x="766" d="M280 456 C322 456 348 484 348 529 C348 575 314 633 273 633 C215 633 204 585 204 543 C204 497 237 456 280 456 L280 456 Z M478 446 C521 446 554 488 554 534 C554 576 542 624 485 624 C443 624 410 566 410 520 C410 476 436 446 478 446 L478 446 Z M130 299 C181 299 202 336 202 376 C202 423 167 467 122 467 C81 467 53 434 53 391 C53 345 85 299 130 299 L130 299 Z M636 281 C681 281 711 323 711 367 C711 405 687 442 643 442 C601 442 568 401 568 356 C568 316 589 281 636 281 L636 281 Z M380 54 C488 54 554 120 554 197 C554 258 521 307 488 349 C461 384 435 414 380 414 C325 414 299 384 272 349 C239 307 206 258 206 197 C206 120 272 54 380 54 L380 54 Z " />
<glyph glyph-name="NULL" d="" />
<glyph glyph-name="CR" unicode="&#xd;" horiz-adv-x="250" d="" />
<glyph glyph-name="space" unicode="&#x20;" horiz-adv-x="239" d="" />
<glyph glyph-name="exclam" unicode="&#x21;" horiz-adv-x="230" d="M115 177 C135 177 155 195 156 223 L171 681 C173 720 145 739 115 739 C86 739 57 720 59 681 L74 223 C75 195 95 177 115 177 L115 177 Z M115 -11 C150 -11 176 16 176 50 C176 82 148 109 115 109 C80 109 55 82 55 50 C55 16 80 -11 115 -11 L115 -11 Z " />
<glyph glyph-name="quotedbl" unicode="&#x22;" horiz-adv-x="456" d="M73 621 C58 725 194 721 184 640 L163 447 C157 402 98 389 92 446 L73 621 Z M272 621 C257 725 393 721 383 640 L362 447 C356 402 297 389 291 446 L272 621 Z " />
<glyph glyph-name="dollar" unicode="&#x24;" horiz-adv-x="600" d="M500 161 C500 256 423 293 348 327 L348 538 C378 532 400 517 413 496 C399 489 390 475 390 457 C390 429 410 410 440 410 C469 410 489 431 489 463 C489 544 435 601 348 614 L348 666 C348 696 331 715 307 715 C283 715 266 696 266 666 L266 614 C178 599 122 538 122 451 C122 349 195 305 267 271 L267 69 C215 78 185 109 159 123 C118 152 83 118 110 74 C129 34 187 0 267 -8 L267 -51 C267 -81 284 -100 308 -100 C333 -100 349 -81 349 -51 L349 -6 C441 9 500 72 500 161 L500 161 Z M212 458 C212 493 232 521 266 534 L266 369 C234 390 212 417 212 458 L212 458 Z M349 232 C383 212 407 189 407 154 C407 116 385 88 349 74 L349 232 Z " />
<glyph glyph-name="ampersand" unicode="&#x26;" horiz-adv-x="614" d="M505 84 C470 84 425 116 380 165 C385 253 435 292 509 292 C537 292 553 312 553 335 C553 359 536 381 504 381 C420 381 364 311 352 197 C313 243 276 299 246 354 C346 371 409 443 410 544 C410 648 340 709 249 709 C162 709 94 648 94 544 C94 492 117 421 154 348 C74 335 23 269 23 177 C23 66 100 -9 216 -9 C283 -9 335 21 361 72 C411 28 461 0 505 0 C540 0 558 20 558 42 C558 65 540 84 505 84 L505 84 Z M253 640 C293 640 327 604 327 544 C327 457 291 394 235 376 C203 440 182 501 182 544 C182 605 214 640 253 640 L253 640 Z M257 64 C170 64 112 121 112 207 C112 269 133 313 166 326 C210 243 270 159 333 98 C318 76 292 64 257 64 L257 64 Z " />
<glyph glyph-name="quotesingle" unicode="&#x27;" horiz-adv-x="256" d="M73 621 C58 725 194 721 184 640 L163 447 C157 402 98 389 92 446 L73 621 Z " />
<glyph glyph-name="parenleft" unicode="&#x28;" horiz-adv-x="305" d="M217 -158 C239 -158 249 -144 249 -129 C249 -92 148 49 148 311 C148 563 249 695 249 732 C249 747 239 760 217 760 C194 760 181 748 164 720 C99 611 53 472 53 311 C53 140 100 -9 164 -117 C181 -145 194 -158 217 -158 L217 -158 Z " />
<glyph glyph-name="parenright" unicode="&#x29;" horiz-adv-x="314" d="M112 -158 C135 -158 148 -146 165 -117 C229 -10 276 140 276 311 C276 472 230 611 165 719 C148 748 135 760 112 760 C90 760 80 747 80 732 C80 695 181 563 181 311 C181 49 80 -92 80 -130 C80 -145 90 -158 112 -158 L112 -158 Z " />
<glyph glyph-name="comma" unicode="&#x2c;" horiz-adv-x="210" d="M104 110 C65 110 39 87 39 50 C39 14 65 -10 104 -10 C107 -10 110 -10 112 -9 C100 -50 73 -80 47 -104 C19 -132 54 -170 85 -143 C130 -102 169 -41 169 26 C169 83 141 110 104 110 L104 110 Z " />
<glyph glyph-name="hyphen" unicode="&#x2d;" horiz-adv-x="415" d="M322 283 C352 283 372 300 372 325 C372 350 352 367 321 367 L85 367 C55 367 34 350 34 325 C34 300 55 283 84 283 L322 283 Z " />
<glyph glyph-name="period" unicode="&#x2e;" horiz-adv-x="205" d="M102 -10 C137 -10 163 17 163 51 C163 83 135 110 102 110 C67 110 42 83 42 51 C42 17 67 -10 102 -10 L102 -10 Z " />
<glyph glyph-name="zero" unicode="0" horiz-adv-x="610" d="M305 -10 C441 -10 532 134 532 351 C532 566 441 710 305 710 C169 710 78 566 78 351 C78 134 169 -10 305 -10 L305 -10 Z M305 69 C225 69 172 181 172 351 C172 519 225 631 305 631 C385 631 438 519 438 351 C438 181 385 69 305 69 L305 69 Z " />
<glyph glyph-name="one" unicode="1" horiz-adv-x="304" d="M196 710 C166 710 138 693 93 670 C51 650 28 637 28 611 C28 587 42 571 60 571 C77 571 90 579 126 595 C133 598 140 602 147 605 L146 46 C146 13 165 -10 194 -10 C223 -9 242 14 242 47 L243 661 C243 690 225 710 196 710 L196 710 Z " />
<glyph glyph-name="two" unicode="2" horiz-adv-x="451" d="M143 74 C254 224 421 361 421 527 C421 637 338 710 229 710 C128 710 46 654 46 568 C46 529 70 502 105 502 C140 502 163 524 163 557 C163 576 153 591 137 598 C151 619 178 631 211 631 C267 631 331 586 331 518 C331 376 189 281 47 76 C17 33 42 0 71 0 L376 0 C405 0 426 15 426 36 C426 59 405 74 375 74 L143 74 Z " />
<glyph glyph-name="three" unicode="3" horiz-adv-x="487" d="M292 364 C364 387 412 448 412 527 C412 637 328 710 216 710 C110 710 38 645 38 547 C38 510 62 485 96 485 C131 485 155 505 155 536 C155 558 141 574 120 580 C129 611 161 631 205 631 C260 631 321 588 321 521 C321 445 256 394 196 394 C170 394 151 379 151 356 C151 336 170 322 196 322 C279 322 353 268 353 188 C353 116 283 69 206 69 C169 69 126 81 98 99 C51 129 -4 80 48 40 C87 10 153 -10 214 -10 C351 -10 442 72 442 195 C442 281 384 343 292 364 L292 364 Z " />
<glyph glyph-name="four" unicode="4" horiz-adv-x="565" d="M453 254 L453 453 C453 487 434 510 406 510 C378 510 359 487 359 453 L359 254 L187 254 L186 267 L292 639 C305 685 281 709 255 709 C235 709 214 697 207 672 L80 248 C67 202 81 176 133 176 L359 176 L359 47 C359 13 378 -10 405 -10 C434 -10 453 13 453 47 L453 176 L485 176 C513 176 532 190 532 215 C532 240 513 254 485 254 L453 254 Z " />
<glyph glyph-name="five" unicode="5" horiz-adv-x="482" d="M153 423 L153 621 L355 621 C382 621 401 637 401 661 C401 684 382 700 354 700 L116 700 C89 700 72 683 72 659 L72 423 C72 376 106 345 144 345 L224 345 C290 345 338 285 338 196 C338 119 285 69 218 69 C176 69 136 84 113 102 C72 134 20 83 68 41 C103 10 160 -10 212 -10 C339 -10 433 75 433 203 C433 335 348 423 225 423 L153 423 Z " />
<glyph glyph-name="six" unicode="6" horiz-adv-x="519" d="M277 -10 C395 -10 477 87 477 233 C477 375 410 470 315 470 C263 470 217 444 186 399 L184 401 C220 499 294 585 392 640 C443 668 396 738 321 693 C160 593 66 448 66 252 C66 100 156 -10 277 -10 L277 -10 Z M271 63 C206 63 158 142 158 262 C158 343 208 397 270 397 C338 397 385 330 385 230 C385 130 338 63 271 63 L271 63 Z " />
<glyph glyph-name="seven" unicode="7" horiz-adv-x="501" d="M100 700 C72 700 53 686 53 661 C53 635 72 621 100 621 L342 621 L344 617 L160 63 C135 -15 228 -39 251 32 L448 628 C462 675 448 700 394 700 L100 700 Z " />
<glyph glyph-name="eight" unicode="8" horiz-adv-x="532" d="M372 374 C426 403 459 459 459 528 C459 636 385 709 276 709 C164 709 89 636 89 528 C89 458 123 403 178 374 C110 343 68 279 68 196 C68 73 151 -10 276 -10 C398 -10 480 73 480 196 C480 279 439 343 372 374 L372 374 Z M276 636 C330 636 367 592 367 528 C367 451 330 402 276 402 C218 402 181 451 181 528 C181 592 218 636 276 636 L276 636 Z M276 64 C206 64 160 117 160 196 C160 285 206 340 276 340 C343 340 388 285 388 196 C388 117 343 64 276 64 L276 64 Z " />
<glyph glyph-name="nine" unicode="9" horiz-adv-x="600" d="M220 0 C401 0 500 175 500 437 C500 603 416 713 290 713 C170 713 90 625 90 491 C90 366 156 282 254 282 C321 282 374 313 402 365 L405 363 C390 185 317 87 213 87 C135 87 135 0 220 0 L220 0 Z M296 354 C227 354 182 412 182 497 C182 583 227 640 295 640 C362 640 408 564 408 441 C408 389 359 354 296 354 L296 354 Z " />
<glyph glyph-name="colon" unicode="&#x3a;" horiz-adv-x="205" d="M102 340 C137 340 163 367 163 401 C163 433 135 460 102 460 C67 460 42 433 42 401 C42 367 67 340 102 340 L102 340 Z M102 -11 C137 -11 163 16 163 50 C163 82 135 109 102 109 C67 109 42 82 42 50 C42 16 67 -11 102 -11 L102 -11 Z " />
<glyph glyph-name="semicolon" unicode="&#x3b;" horiz-adv-x="210" d="M102 340 C137 340 163 367 163 401 C163 433 135 460 102 460 C67 460 42 433 42 401 C42 367 67 340 102 340 L102 340 Z M104 110 C65 110 39 87 39 50 C39 14 65 -10 104 -10 C107 -10 110 -10 112 -9 C100 -50 73 -80 47 -104 C19 -132 54 -170 85 -143 C130 -102 169 -41 169 26 C169 83 141 110 104 110 L104 110 Z " />
<glyph glyph-name="question" unicode="&#x3f;" horiz-adv-x="411" d="M105 605 C120 637 154 660 199 660 C261 660 294 612 294 549 C294 389 151 431 151 220 C151 188 169 170 193 170 C216 170 235 189 235 221 C235 390 378 354 378 558 C378 663 312 739 199 739 C90 739 23 654 24 573 C25 533 48 512 79 512 C106 512 130 530 129 562 C129 580 120 596 105 605 L105 605 Z M193 109 C158 109 133 82 133 50 C133 16 158 -11 193 -11 C228 -11 254 16 254 50 C254 82 226 109 193 109 L193 109 Z " />
<glyph glyph-name="at" unicode="&#x40;" horiz-adv-x="994" d="M403 -210 C471 -210 544 -198 585 -178 C655 -146 614 -74 549 -104 C514 -120 461 -131 418 -131 C258 -131 152 28 152 267 C152 511 301 673 525 673 C732 673 871 525 871 304 C871 163 834 70 778 70 C722 70 685 149 685 269 L685 474 C636 506 566 528 511 528 C376 528 285 411 285 235 C285 88 348 -10 443 -10 C523 -10 581 46 598 135 L604 133 C627 45 690 -9 775 -9 C889 -9 965 120 965 316 C965 577 791 751 529 751 C246 751 58 556 58 263 C58 -21 196 -210 403 -210 L403 -210 Z M468 69 C415 69 379 137 379 239 C379 360 432 438 506 438 C536 438 562 428 591 416 L591 280 C591 153 541 69 468 69 L468 69 Z " />
<glyph glyph-name="A" unicode="A" horiz-adv-x="611" d="M400 631 C383 687 345 710 303 710 C262 710 226 688 209 631 L42 57 C30 15 47 -9 77 -9 C101 -9 118 6 128 40 L175 202 L429 202 L477 41 C486 7 503 -9 530 -9 C561 -9 581 15 569 58 L400 631 Z M298 632 L302 632 L407 278 L196 278 L298 632 Z " />
<glyph glyph-name="B" unicode="B" horiz-adv-x="580" d="M398 358 C457 393 488 459 488 525 C488 638 396 710 265 710 C144 710 83 681 83 629 L83 54 C83 25 103 2 131 -1 C182 -6 249 -10 305 -10 C432 -10 517 62 517 176 C517 261 470 328 398 358 L398 358 Z M305 69 C264 69 218 71 177 76 L178 620 C200 625 229 629 260 629 C353 629 397 576 397 511 C397 445 359 394 285 386 C258 381 249 370 249 350 C249 325 263 317 286 317 C375 317 423 264 423 187 C423 111 376 69 305 69 L305 69 Z " />
<glyph glyph-name="C" unicode="C" horiz-adv-x="537" d="M481 199 C453 202 437 184 430 155 C423 108 388 74 321 74 C205 74 172 181 172 350 C172 570 229 631 320 631 C377 631 408 607 426 577 C416 563 410 544 410 524 C410 483 434 461 460 461 C485 461 508 484 508 526 C508 646 438 710 320 710 C129 710 78 566 78 350 C78 68 172 -10 320 -10 C438 -10 506 57 514 145 C517 175 503 197 481 199 L481 199 Z " />
<glyph glyph-name="D" unicode="D" horiz-adv-x="605" d="M264 -5 C447 -5 527 140 527 350 C527 584 453 710 269 710 C152 710 83 687 83 640 L83 74 C83 15 174 -5 264 -5 L264 -5 Z M274 79 C241 79 203 85 177 92 L177 620 C205 627 238 630 272 630 C400 630 433 534 433 350 C433 159 389 79 274 79 L274 79 Z " />
<glyph glyph-name="E" unicode="E" horiz-adv-x="442" d="M177 79 L177 304 L319 304 C347 304 366 320 366 343 C366 367 347 382 319 382 L177 382 L177 621 L390 621 C417 621 436 637 436 661 C436 684 417 700 389 700 L130 700 C102 700 83 679 83 647 L83 51 C83 20 102 0 129 0 L390 0 C417 0 436 16 436 39 C436 63 417 79 389 79 L177 79 Z " />
<glyph glyph-name="F" unicode="F" horiz-adv-x="442" d="M130 700 C102 700 83 679 83 647 L83 47 C83 13 102 -10 129 -10 C158 -10 177 13 177 47 L177 292 L319 292 C347 292 366 308 366 332 C366 355 347 371 319 371 L177 371 L177 621 L390 621 C417 621 436 637 436 661 C436 684 417 700 389 700 L130 700 Z " />
<glyph glyph-name="G" unicode="G" horiz-adv-x="557" d="M335 325 C307 325 288 309 288 286 C288 262 307 246 334 246 L428 246 L428 154 C428 103 385 69 320 69 C206 69 172 181 172 350 C172 564 229 631 320 631 C380 631 419 600 428 550 C412 543 402 529 402 510 C402 481 423 462 454 462 C485 462 506 488 506 527 C506 637 434 710 320 710 C133 710 78 566 78 350 C78 74 172 -10 320 -10 C436 -10 512 56 512 155 L512 281 C512 308 495 325 470 325 L335 325 Z " />
<glyph glyph-name="H" unicode="H" horiz-adv-x="587" d="M457 710 C429 710 410 687 410 653 L410 386 L177 386 L177 653 C177 687 158 710 130 710 C102 710 83 687 83 653 L83 47 C83 13 102 -10 129 -10 C158 -10 177 13 177 47 L177 305 L410 305 L410 47 C410 13 429 -10 456 -10 C486 -10 504 13 504 47 L504 653 C504 687 485 710 457 710 L457 710 Z " />
<glyph glyph-name="I" unicode="I" horiz-adv-x="270" d="M135 -10 C164 -10 183 13 183 47 L183 653 C183 687 164 710 136 710 C107 710 89 687 89 653 L89 47 C89 13 107 -10 135 -10 L135 -10 Z " />
<glyph glyph-name="J" unicode="J" horiz-adv-x="455" d="M330 710 C302 710 283 687 283 653 L283 179 C283 113 242 69 190 69 C140 69 106 96 99 140 C119 145 131 160 131 180 C131 210 110 230 77 230 C45 230 23 202 23 162 C23 60 91 -10 200 -10 C309 -10 377 65 377 179 L377 653 C377 687 358 710 330 710 L330 710 Z " />
<glyph glyph-name="K" unicode="K" horiz-adv-x="546" d="M129 710 C102 710 83 687 83 653 L83 47 C83 13 102 -10 130 -10 C158 -10 177 13 177 47 L177 653 C177 687 158 710 129 710 L129 710 Z M520 642 C527 651 530 663 530 674 C530 693 511 710 489 710 C466 710 450 699 434 677 L257 428 C242 408 236 391 236 373 C236 352 246 331 264 302 L443 15 C454 -3 472 -10 488 -10 C505 -10 528 6 528 26 C528 36 525 50 516 65 L324 373 L520 642 Z " />
<glyph glyph-name="L" unicode="L" horiz-adv-x="442" d="M177 84 L177 653 C177 687 158 710 129 710 C102 710 83 687 83 653 L83 51 C83 20 102 0 130 0 L375 0 C403 0 422 17 422 42 C422 67 403 84 376 84 L177 84 Z " />
<glyph glyph-name="M" unicode="M" horiz-adv-x="786" d="M78 46 C76 9 94 -10 117 -10 C138 -10 161 8 163 40 L197 635 L205 635 L318 199 C327 157 357 136 386 136 C416 136 445 158 455 199 L565 635 L574 635 L618 40 C620 7 643 -10 666 -10 C689 -10 710 8 707 46 L658 630 C654 683 614 710 571 710 C528 710 490 683 481 630 L394 226 L384 226 L286 630 C275 684 237 709 196 709 C155 709 118 682 116 630 L78 46 Z " />
<glyph glyph-name="N" unicode="N" horiz-adv-x="613" d="M488 710 C462 710 448 691 448 663 L448 69 L441 69 L253 637 C240 680 213 710 163 710 C115 710 83 681 83 637 L83 37 C83 8 100 -10 125 -10 C150 -10 164 8 164 37 L164 631 L170 631 L358 62 C371 16 409 -10 448 -10 C497 -10 530 16 530 63 L530 663 C530 691 513 710 488 710 L488 710 Z " />
<glyph glyph-name="O" unicode="O" horiz-adv-x="610" d="M305 -10 C457 -10 532 105 532 351 C532 613 446 710 305 710 C153 710 78 595 78 351 C78 87 164 -10 305 -10 L305 -10 Z M305 69 C214 69 172 151 172 351 C172 565 222 631 305 631 C396 631 438 549 438 351 C438 135 388 69 305 69 L305 69 Z " />
<glyph glyph-name="P" unicode="P" horiz-adv-x="560" d="M257 710 C172 710 83 694 83 640 L83 47 C83 13 102 -10 130 -10 C158 -10 177 13 177 47 L177 622 C203 629 230 631 261 631 C352 631 413 574 413 460 C413 365 365 316 283 307 C255 303 236 292 236 270 C236 246 255 231 284 231 C419 231 507 324 507 466 C507 618 423 710 257 710 L257 710 Z " />
<glyph glyph-name="Q" unicode="Q" horiz-adv-x="612" d="M457 -164 C502 -164 534 -138 534 -101 C534 -23 426 -99 342 -11 L342 -4 C477 31 523 183 523 351 C523 586 488 710 301 710 C113 710 78 577 78 351 C78 135 140 -9 266 -9 C304 -103 374 -164 457 -164 L457 -164 Z M303 67 C211 68 173 151 173 351 C173 554 208 632 301 632 C396 632 428 556 428 351 C428 164 393 68 303 67 L303 67 Z " />
<glyph glyph-name="R" unicode="R" horiz-adv-x="596" d="M355 293 C447 329 504 397 504 486 C504 605 426 699 266 699 C154 699 83 678 83 620 L83 49 C83 13 102 -10 129 -10 C156 -10 175 13 175 49 L175 608 C202 616 230 618 248 618 C356 618 413 559 413 482 C413 414 360 371 301 345 C263 326 257 310 257 296 C257 280 268 270 284 251 L444 30 C462 6 480 -9 497 -9 C526 -9 558 20 527 62 L355 293 Z " />
<glyph glyph-name="S" unicode="S" horiz-adv-x="528" d="M164 515 C164 581 214 631 282 631 C326 631 369 615 388 585 C367 579 355 559 355 536 C355 509 375 485 410 485 C441 485 467 509 467 552 C467 648 390 710 277 710 C144 710 69 618 69 512 C69 277 382 318 382 172 C382 109 332 70 266 70 C176 70 144 128 99 142 C68 154 44 124 60 94 C79 33 175 -9 263 -9 C391 -9 479 68 479 178 C479 397 164 346 164 515 L164 515 Z " />
<glyph glyph-name="T" unicode="T" horiz-adv-x="444" d="M27 700 C-1 700 -20 684 -20 661 C-20 637 -1 621 26 621 L175 621 L175 47 C175 13 194 -10 221 -10 C250 -10 269 13 269 47 L269 621 L418 621 C445 621 464 637 464 661 C464 684 445 700 417 700 L27 700 Z " />
<glyph glyph-name="U" unicode="U" horiz-adv-x="610" d="M305 -10 C440 -10 532 83 532 250 L532 653 C532 687 513 710 485 710 C457 710 438 687 438 653 L438 250 C438 129 382 69 305 69 C228 69 172 129 172 250 L172 653 C172 687 153 710 125 710 C97 710 78 687 78 653 L78 250 C78 83 170 -10 305 -10 L305 -10 Z " />
<glyph glyph-name="V" unicode="V" horiz-adv-x="608" d="M515 710 C492 710 469 694 461 661 L311 68 L305 68 L153 661 C145 693 121 709 99 709 C67 709 47 679 56 644 L205 75 C218 23 255 -10 305 -10 C355 -10 390 23 403 75 L551 644 C560 681 547 710 515 710 L515 710 Z " />
<glyph glyph-name="W" unicode="W" horiz-adv-x="724" d="M649 709 C628 709 609 693 605 661 L526 69 L513 69 L428 577 C423 610 397 632 359 632 C322 632 296 610 291 577 L205 70 L195 70 L121 660 C117 692 95 709 73 709 C49 709 32 689 36 654 L114 70 C121 19 156 -10 196 -10 C237 -10 272 17 279 70 L352 548 L363 548 L436 70 C443 18 478 -10 519 -10 C559 -10 595 18 602 70 L685 655 C689 689 673 709 649 709 L649 709 Z " />
<glyph glyph-name="X" unicode="X" horiz-adv-x="561" d="M341 360 L509 643 C527 673 511 710 479 710 C462 710 447 701 434 678 L296 439 L161 673 C146 699 126 709 108 709 C75 709 53 676 71 645 L234 358 L48 49 C32 22 52 -11 83 -11 C99 -11 114 -1 127 22 L279 278 L421 28 C437 1 457 -11 477 -11 C513 -11 533 29 509 67 L341 360 Z " />
<glyph glyph-name="Y" unicode="Y" horiz-adv-x="573" d="M479 712 C460 712 444 697 431 667 L296 333 L288 333 L151 661 C137 695 120 712 99 712 C72 712 42 684 59 645 L236 258 C238 253 241 249 243 245 L243 47 C243 13 262 -10 289 -10 C318 -10 337 13 337 47 L337 247 L343 259 L513 645 C531 687 504 712 479 712 L479 712 Z " />
<glyph glyph-name="Z" unicode="Z" horiz-adv-x="511" d="M161 79 L161 87 L446 621 C470 669 447 700 387 700 L98 700 C70 700 51 686 51 661 C51 635 70 621 98 621 L341 621 L341 614 L55 80 C29 32 54 0 115 0 L424 0 C452 0 471 14 471 39 C471 65 452 79 424 79 L161 79 Z " />
<glyph glyph-name="underscore" unicode="&#x5f;" horiz-adv-x="405" d="M321 0 C352 0 372 17 372 42 C372 67 352 84 321 84 L85 84 C54 84 33 67 33 42 C33 17 54 0 84 0 L321 0 Z " />
<glyph glyph-name="a" unicode="a" horiz-adv-x="522" d="M268 510 C142 510 88 445 88 379 C88 347 106 329 133 329 C160 329 177 346 177 372 C177 387 169 400 157 407 C180 431 213 444 252 444 C330 444 370 399 370 326 L370 270 C333 279 296 283 261 283 C157 283 68 242 68 135 C68 46 119 -10 225 -10 C293 -10 342 19 368 72 L370 72 L370 36 C370 7 386 -11 412 -11 C438 -11 454 8 454 36 L454 334 C454 449 380 510 268 510 L268 510 Z M260 60 C189 60 155 92 155 140 C155 206 208 226 279 226 C308 226 339 222 370 213 L370 168 C370 103 328 60 260 60 L260 60 Z " />
<glyph glyph-name="b" unicode="b" horiz-adv-x="526" d="M240 -10 C373 -10 461 102 461 262 C461 407 401 510 290 510 C231 510 182 480 162 425 L158 425 L158 713 C158 739 141 760 115 760 C89 760 72 739 72 713 L72 74 C72 57 79 41 95 32 C136 7 189 -10 240 -10 L240 -10 Z M244 63 C215 63 184 71 158 89 L158 329 C158 392 196 437 259 437 C338 437 372 365 372 255 C372 143 321 63 244 63 L244 63 Z " />
<glyph glyph-name="c" unicode="c" horiz-adv-x="485" d="M365 95 C344 79 319 63 270 63 C191 63 157 138 157 250 C157 381 204 437 275 437 C315 437 344 424 356 399 C340 393 330 378 330 359 C330 330 351 311 382 311 C411 311 431 336 431 372 C431 455 368 510 275 510 C131 510 68 406 68 250 C68 69 151 -10 275 -10 C329 -10 379 7 410 34 C460 80 418 135 365 95 L365 95 Z " />
<glyph glyph-name="d" unicode="d" horiz-adv-x="521" d="M68 251 C68 104 129 -10 241 -10 C305 -10 346 29 364 70 L368 70 L368 37 C368 7 389 -10 412 -10 C434 -10 454 6 454 36 L454 713 C454 741 436 760 411 760 C385 760 368 741 368 713 L368 448 L363 448 C348 483 304 510 247 510 C135 510 68 406 68 251 L68 251 Z M157 255 C157 364 198 437 268 437 C310 437 356 421 368 365 L368 168 C368 105 324 63 263 63 C197 63 157 140 157 255 L157 255 Z " />
<glyph glyph-name="e" unicode="e" horiz-adv-x="499" d="M408 103 C368 96 360 63 282 63 C199 63 163 128 159 227 L408 227 C434 227 453 245 453 279 C453 412 405 510 271 510 C130 510 68 406 68 250 C68 63 160 -10 286 -10 C350 -10 424 18 442 64 C460 88 440 116 408 103 L408 103 Z M272 437 C333 437 365 392 372 304 C373 299 373 294 374 289 L160 289 C168 394 214 437 272 437 L272 437 Z " />
<glyph glyph-name="f" unicode="f" horiz-adv-x="376" d="M264 760 C182 760 128 693 128 588 L128 500 L88 500 C61 500 43 485 43 464 C43 442 61 427 87 427 L128 427 L128 43 C128 11 145 -10 171 -10 C197 -10 214 11 214 43 L214 427 L301 427 C327 427 345 442 345 464 C345 485 327 500 300 500 L214 500 L214 597 C214 655 239 690 277 690 C288 690 297 689 305 686 C303 681 302 675 302 668 C302 637 321 617 350 617 C379 617 399 637 399 668 C399 724 345 760 264 760 L264 760 Z " />
<glyph glyph-name="g" unicode="g" horiz-adv-x="506" d="M251 -210 C368 -210 447 -152 447 -64 C447 87 208 34 208 104 C208 121 230 132 256 132 C362 132 433 208 433 321 C433 388 412 423 391 451 C386 457 383 465 383 475 C383 489 390 500 401 510 C410 503 421 499 432 499 C462 499 482 524 482 557 C482 589 462 614 427 614 C380 614 349 563 352 483 L349 481 C329 496 292 510 256 510 C149 510 77 434 77 321 C77 236 128 175 197 150 L197 145 C154 138 120 116 120 82 C120 -31 358 19 358 -71 C358 -110 308 -137 234 -137 C192 -137 157 -125 137 -103 C150 -98 156 -85 156 -70 C156 -45 138 -25 108 -25 C79 -25 59 -43 59 -71 C59 -154 136 -210 251 -210 L251 -210 Z M258 202 C200 202 161 250 161 321 C161 392 199 440 256 440 C312 440 349 392 349 321 C349 250 313 202 258 202 L258 202 Z " />
<glyph glyph-name="h" unicode="h" horiz-adv-x="530" d="M120 -10 C146 -10 163 9 163 37 L163 330 C163 400 205 440 267 440 C331 440 374 397 374 333 L374 37 C374 9 392 -10 418 -10 C444 -10 462 9 462 37 L462 337 C462 440 398 509 302 509 C241 509 193 481 166 434 L163 434 L163 713 C163 742 146 760 120 760 C94 760 77 742 77 713 L77 37 C77 9 94 -10 120 -10 L120 -10 Z " />
<glyph glyph-name="i" unicode="i" horiz-adv-x="257" d="M128 584 C163 584 185 607 185 643 C185 676 163 698 128 698 C94 698 72 676 72 642 C72 607 94 584 128 584 L128 584 Z M128 -11 C154 -11 171 10 171 37 L171 463 C171 489 154 510 128 510 C102 510 85 489 85 463 L85 37 C85 10 102 -11 128 -11 L128 -11 Z " />
<glyph glyph-name="j" unicode="j" horiz-adv-x="284" d="M165 585 C199 585 221 608 221 643 C221 676 198 698 165 697 C131 697 109 675 109 642 C108 607 131 584 165 585 L165 585 Z M165 510 C139 510 122 491 122 463 L122 -87 C122 -120 109 -142 90 -142 C85 -142 80 -140 75 -138 C80 -132 82 -125 82 -117 C82 -88 64 -69 36 -69 C8 -69 -11 -88 -11 -117 C-11 -173 33 -210 98 -210 C164 -210 208 -160 208 -83 L208 463 C208 491 191 510 165 510 L165 510 Z " />
<glyph glyph-name="k" unicode="k" horiz-adv-x="484" d="M258 266 L422 439 C434 450 438 462 438 475 C438 494 424 510 399 510 C383 510 370 501 353 482 L166 269 L166 692 C166 739 149 756 125 756 C95 756 77 739 77 692 L77 54 C77 7 95 -10 122 -10 C149 -10 166 7 166 54 L166 248 L357 21 C375 -1 393 -10 408 -10 C431 -10 448 4 448 26 C448 39 442 54 429 69 L258 266 Z " />
<glyph glyph-name="l" unicode="l" horiz-adv-x="230" d="M120 -10 C146 -10 163 9 163 37 L163 713 C163 741 146 760 120 760 C94 760 77 741 77 713 L77 37 C77 9 94 -10 120 -10 L120 -10 Z " />
<glyph glyph-name="m" unicode="m" horiz-adv-x="824" d="M596 509 C523 509 468 470 446 406 C424 470 369 509 296 509 C232 509 182 478 157 427 L155 428 L158 444 L158 463 C158 491 140 510 115 510 C89 510 72 491 72 463 L72 37 C72 9 89 -10 115 -10 C140 -10 158 9 158 37 L158 337 C158 399 199 440 261 440 C326 440 369 397 369 333 L369 37 C369 9 386 -10 413 -10 C439 -10 457 9 457 37 L457 337 C457 399 498 440 561 440 C625 440 668 397 668 333 L668 37 C668 9 686 -10 712 -10 C738 -10 756 9 756 37 L756 337 C756 440 692 509 596 509 L596 509 Z " />
<glyph glyph-name="n" unicode="n" horiz-adv-x="525" d="M115 -10 C140 -10 158 9 158 37 L158 337 C158 399 199 440 261 440 C326 440 369 397 369 333 L369 37 C369 9 386 -10 413 -10 C439 -10 457 9 457 37 L457 337 C457 440 393 509 296 509 C237 509 187 480 160 434 L158 434 L158 463 C158 491 140 510 115 510 C89 510 72 491 72 463 L72 37 C72 9 89 -10 115 -10 L115 -10 Z " />
<glyph glyph-name="o" unicode="o" horiz-adv-x="532" d="M267 -10 C409 -10 464 94 464 250 C464 437 385 510 267 510 C123 510 68 406 68 250 C68 63 148 -10 267 -10 L267 -10 Z M269 60 C189 60 157 136 157 250 C157 387 201 440 267 440 C344 440 375 364 375 250 C375 113 333 60 269 60 L269 60 Z " />
<glyph glyph-name="p" unicode="p" horiz-adv-x="525" d="M115 -213 C140 -213 158 -194 158 -166 L158 50 L161 50 C176 15 215 -10 277 -10 C393 -10 457 96 457 251 C457 398 409 510 292 510 C224 510 183 474 162 430 L157 430 L157 462 C157 493 138 510 115 510 C93 510 72 494 72 463 L72 -166 C72 -194 89 -213 115 -213 L115 -213 Z M259 62 C208 62 170 82 158 124 L158 326 C158 390 193 437 261 437 C335 437 369 360 369 245 C369 135 329 62 259 62 L259 62 Z " />
<glyph glyph-name="q" unicode="q" horiz-adv-x="522" d="M411 -210 C437 -210 454 -189 454 -163 L454 452 C412 484 351 509 280 509 C147 509 68 401 68 241 C68 96 130 -11 236 -11 C295 -11 344 19 364 74 L368 74 L368 -163 C368 -189 385 -210 411 -210 L411 -210 Z M267 63 C199 63 157 138 157 248 C157 362 209 435 285 435 C313 435 343 427 368 411 L368 175 C368 115 330 63 267 63 L267 63 Z " />
<glyph glyph-name="r" unicode="r" horiz-adv-x="351" d="M115 -10 C140 -10 158 9 158 37 L158 305 C158 371 195 415 291 415 C328 415 352 434 352 462 C352 490 328 509 291 509 C228 509 183 473 160 415 L158 415 L158 463 C158 491 140 510 115 510 C89 510 72 491 72 463 L72 37 C72 9 89 -10 115 -10 L115 -10 Z " />
<glyph glyph-name="s" unicode="s" horiz-adv-x="474" d="M154 364 C154 410 200 438 256 438 C292 438 326 427 346 406 C329 400 319 386 319 367 C319 343 334 323 365 323 C391 323 413 344 413 380 C413 446 362 510 243 510 C142 510 68 449 68 361 C68 187 332 234 332 128 C332 89 293 62 234 62 C132 62 110 123 78 123 C59 123 45 109 45 87 C45 37 129 -10 243 -10 C349 -10 419 47 419 135 C419 289 154 260 154 364 L154 364 Z " />
<glyph glyph-name="t" unicode="t" horiz-adv-x="428" d="M344 93 C320 93 303 63 264 63 C226 63 204 83 204 119 L204 427 L325 427 C351 427 369 442 369 464 C369 485 351 500 324 500 L204 500 L204 593 C204 621 187 640 161 640 C135 640 118 621 118 593 L118 500 L88 500 C61 500 43 485 43 464 C43 442 61 427 87 427 L118 427 L118 143 C118 51 172 -10 258 -10 C311 -10 376 17 376 59 C376 78 362 93 344 93 L344 93 Z " />
<glyph glyph-name="u" unicode="u" horiz-adv-x="525" d="M410 -10 C436 -10 453 9 453 37 L453 463 C453 491 436 510 410 510 C384 510 367 491 367 463 L367 179 C367 109 325 60 263 60 C199 60 156 103 156 167 L156 463 C156 491 138 510 112 510 C86 510 68 491 68 463 L68 163 C68 60 132 -9 228 -9 C290 -9 338 19 365 67 L367 67 L367 37 C367 9 384 -10 410 -10 L410 -10 Z " />
<glyph glyph-name="v" unicode="v" horiz-adv-x="493" d="M411 511 C392 511 372 496 364 466 L262 69 L244 69 L141 461 C132 496 109 511 89 511 C63 511 40 486 51 445 L152 75 C166 23 204 -9 250 -9 C297 -9 333 23 346 75 L443 444 C455 488 435 511 411 511 L411 511 Z " />
<glyph glyph-name="w" unicode="w" horiz-adv-x="699" d="M616 510 C597 510 578 495 572 461 L500 69 L488 69 L423 459 C418 492 385 510 350 510 C315 510 282 492 277 459 L209 69 L195 69 L128 460 C123 492 103 508 83 508 C61 508 43 490 50 454 L122 70 C130 21 157 -9 202 -9 C251 -9 273 21 280 70 L341 437 L359 437 L416 70 C423 21 445 -9 494 -9 C540 -9 566 21 575 70 L652 455 C659 489 639 510 616 510 L616 510 Z " />
<glyph glyph-name="x" unicode="x" horiz-adv-x="463" d="M284 255 L415 449 C435 479 406 510 382 510 C370 510 356 504 345 487 L236 326 L134 481 C118 503 99 512 83 512 C52 512 29 479 58 436 L173 262 L30 51 C9 20 38 -11 62 -11 C74 -11 88 -5 99 10 L221 188 L331 21 C347 -2 366 -12 382 -12 C415 -12 438 23 409 66 L284 255 Z " />
<glyph glyph-name="y" unicode="y" horiz-adv-x="526" d="M446 510 C428 510 409 498 402 469 L292 71 L266 71 L154 461 C145 495 123 510 103 510 C78 510 56 486 67 449 L178 72 C191 24 228 -8 265 -8 L269 -8 C230 -131 211 -141 183 -141 C171 -141 159 -139 150 -135 C159 -127 164 -115 164 -101 C164 -70 144 -50 113 -50 C82 -50 61 -70 61 -101 C61 -167 114 -210 185 -210 C275 -210 313 -151 373 61 L477 450 C488 490 468 510 446 510 L446 510 Z " />
<glyph glyph-name="z" unicode="z" horiz-adv-x="487" d="M176 79 L175 83 L415 429 C445 471 424 500 377 500 L114 500 C86 500 67 484 67 461 C67 437 86 421 114 421 L309 421 L310 418 L76 86 C37 32 59 0 113 0 L397 0 C426 0 444 16 444 39 C444 63 426 79 397 79 L176 79 Z " />
<glyph glyph-name="exclamdown" unicode="&#xa1;" horiz-adv-x="230" d="M115 580 C80 580 55 553 55 519 C55 487 80 460 115 460 C148 460 176 487 176 519 C176 553 150 580 115 580 L115 580 Z M115 392 C95 392 75 374 74 346 L59 -112 C57 -151 86 -170 115 -170 C145 -170 173 -151 171 -112 L156 346 C155 374 135 392 115 392 L115 392 Z " />
<glyph glyph-name="dieresis" unicode="&#xa8;" horiz-adv-x="600" d="M208 585 C242 585 264 608 264 643 C264 676 242 697 208 697 C175 697 153 675 153 642 C153 608 175 585 208 585 L208 585 Z M421 585 C455 585 477 608 477 643 C477 676 455 697 421 697 C388 697 366 675 366 642 C366 608 388 585 421 585 L421 585 Z " />
<glyph glyph-name="acute" unicode="&#xb4;" horiz-adv-x="258" d="M194 689 C239 739 151 807 110 730 L42 603 C19 562 64 541 89 569 L194 689 Z " />
<glyph glyph-name="periodcentered" unicode="&#xb7;" horiz-adv-x="205" d="M102 265 C137 265 163 292 163 326 C163 358 135 385 102 385 C67 385 42 358 42 326 C42 292 67 265 102 265 L102 265 Z " />
<glyph glyph-name="questiondown" unicode="&#xbf;" horiz-adv-x="411" d="M218 460 C253 460 278 487 278 519 C278 553 253 580 218 580 C183 580 157 553 157 519 C157 487 185 460 218 460 L218 460 Z M387 -4 C386 36 363 57 332 57 C305 57 281 39 282 7 C282 -11 291 -27 306 -36 C291 -68 257 -91 212 -91 C150 -91 117 -43 117 20 C117 180 260 138 260 349 C260 381 242 399 218 399 C195 399 176 380 176 348 C176 179 33 215 33 11 C33 -94 99 -170 212 -170 C321 -170 388 -85 387 -4 L387 -4 Z " />
<glyph glyph-name="Aacute" unicode="&#xc1;" horiz-adv-x="611" d="M401 808 C462 829 417 926 347 881 L217 801 C179 777 209 740 243 751 L401 808 Z M400 631 C383 687 345 710 303 710 C262 710 226 688 209 631 L42 57 C30 15 47 -9 77 -9 C101 -9 118 6 128 40 L175 202 L429 202 L477 41 C486 7 503 -9 530 -9 C561 -9 581 15 569 58 L400 631 Z M298 632 L302 632 L407 278 L196 278 L298 632 Z " />
<glyph glyph-name="Atilde" unicode="&#xc3;" horiz-adv-x="611" d="M162 767 C179 767 193 780 193 803 C193 820 202 830 215 830 C257 830 344 777 409 777 C449 777 477 804 477 867 C477 891 462 904 445 904 C429 904 415 892 415 869 C415 851 408 841 398 841 C361 841 270 897 204 897 C162 897 131 869 131 803 C131 780 145 767 162 767 L162 767 Z M400 631 C383 687 345 710 303 710 C262 710 226 688 209 631 L42 57 C30 15 47 -9 77 -9 C101 -9 118 6 128 40 L175 202 L429 202 L477 41 C486 7 503 -9 530 -9 C561 -9 581 15 569 58 L400 631 Z M298 632 L302 632 L407 278 L196 278 L298 632 Z " />
<glyph glyph-name="Adieresis" unicode="&#xc4;" horiz-adv-x="611" d="M196 772 C231 772 253 796 253 831 C253 865 231 887 196 887 C162 887 140 864 140 831 C140 796 162 772 196 772 L196 772 Z M409 772 C443 772 466 796 466 831 C466 865 443 887 409 887 C375 887 352 864 352 831 C352 796 375 772 409 772 L409 772 Z M400 631 C383 687 345 710 303 710 C262 710 226 688 209 631 L42 57 C30 15 47 -9 77 -9 C101 -9 118 6 128 40 L175 202 L429 202 L477 41 C486 7 503 -9 530 -9 C561 -9 581 15 569 58 L400 631 Z M298 632 L302 632 L407 278 L196 278 L298 632 Z " />
<glyph glyph-name="AE" unicode="&#xc6;" horiz-adv-x="768" d="M514 79 L514 251 L645 251 C673 251 691 267 691 290 C691 314 673 330 644 330 L514 330 L514 621 L716 621 C743 621 762 637 762 661 C762 684 743 700 715 700 L438 700 C396 700 355 678 326 621 L49 57 C28 14 40 -9 69 -9 C94 -9 116 6 132 40 L235 251 L420 251 L420 51 C420 20 439 0 466 0 L716 0 C743 0 762 16 762 39 C762 63 743 79 715 79 L514 79 Z M416 622 L420 622 L420 327 L272 327 L416 622 Z " />
<glyph glyph-name="Eacute" unicode="&#xc9;" horiz-adv-x="442" d="M337 804 C398 825 353 922 283 877 L153 797 C115 773 145 736 179 747 L337 804 Z M177 79 L177 304 L319 304 C347 304 366 320 366 343 C366 367 347 382 319 382 L177 382 L177 621 L390 621 C417 621 436 637 436 661 C436 684 417 700 389 700 L130 700 C102 700 83 679 83 647 L83 51 C83 20 102 0 129 0 L390 0 C417 0 436 16 436 39 C436 63 417 79 389 79 L177 79 Z " />
<glyph glyph-name="Edieresis" unicode="&#xcb;" horiz-adv-x="442" d="M132 768 C167 768 189 792 189 827 C189 861 167 883 132 883 C98 883 76 860 76 827 C76 792 98 768 132 768 L132 768 Z M345 768 C379 768 402 792 402 827 C402 861 379 883 345 883 C311 883 288 860 288 827 C288 792 311 768 345 768 L345 768 Z M177 79 L177 304 L319 304 C347 304 366 320 366 343 C366 367 347 382 319 382 L177 382 L177 621 L390 621 C417 621 436 637 436 661 C436 684 417 700 389 700 L130 700 C102 700 83 679 83 647 L83 51 C83 20 102 0 129 0 L390 0 C417 0 436 16 436 39 C436 63 417 79 389 79 L177 79 Z " />
<glyph glyph-name="Iacute" unicode="&#xcd;" horiz-adv-x="270" d="M234 804 C295 825 250 922 180 877 L50 797 C12 773 42 736 76 747 L234 804 Z M135 -10 C164 -10 183 13 183 47 L183 653 C183 687 164 710 136 710 C107 710 89 687 89 653 L89 47 C89 13 107 -10 135 -10 L135 -10 Z " />
<glyph glyph-name="Idieresis" unicode="&#xcf;" horiz-adv-x="270" d="M57 769 C92 769 115 792 115 828 C115 861 92 883 57 883 C24 883 1 861 1 827 C1 792 24 769 57 769 L57 769 Z M213 769 C247 769 270 792 270 828 C270 861 247 883 213 883 C179 883 156 861 156 827 C156 792 179 769 213 769 L213 769 Z M135 -10 C164 -10 183 13 183 47 L183 653 C183 687 164 710 136 710 C107 710 89 687 89 653 L89 47 C89 13 107 -10 135 -10 L135 -10 Z " />
<glyph glyph-name="Ntilde" unicode="&#xd1;" horiz-adv-x="613" d="M173 763 C190 763 204 776 204 799 C204 816 213 826 226 826 C268 826 355 773 420 773 C460 773 488 800 488 863 C488 887 473 900 456 900 C440 900 426 888 426 865 C426 847 419 837 409 837 C372 837 281 893 215 893 C173 893 142 865 142 799 C142 776 156 763 173 763 L173 763 Z M488 710 C462 710 448 691 448 663 L448 69 L441 69 L253 637 C240 680 213 710 163 710 C115 710 83 681 83 637 L83 37 C83 8 100 -10 125 -10 C150 -10 164 8 164 37 L164 631 L170 631 L358 62 C371 16 409 -10 448 -10 C497 -10 530 16 530 63 L530 663 C530 691 513 710 488 710 L488 710 Z " />
<glyph glyph-name="Oacute" unicode="&#xd3;" horiz-adv-x="610" d="M403 804 C464 825 419 922 349 877 L219 797 C181 773 211 736 245 747 L403 804 Z M305 -10 C457 -10 532 105 532 351 C532 613 446 710 305 710 C153 710 78 595 78 351 C78 87 164 -10 305 -10 L305 -10 Z M305 69 C214 69 172 151 172 351 C172 565 222 631 305 631 C396 631 438 549 438 351 C438 135 388 69 305 69 L305 69 Z " />
<glyph glyph-name="Otilde" unicode="&#xd5;" horiz-adv-x="610" d="M164 763 C181 763 195 776 195 799 C195 816 204 826 217 826 C259 826 346 773 411 773 C451 773 479 800 479 863 C479 887 464 900 447 900 C431 900 417 888 417 865 C417 847 410 837 400 837 C363 837 272 893 206 893 C164 893 133 865 133 799 C133 776 147 763 164 763 L164 763 Z M305 -10 C457 -10 532 105 532 351 C532 613 446 710 305 710 C153 710 78 595 78 351 C78 87 164 -10 305 -10 L305 -10 Z M305 69 C214 69 172 151 172 351 C172 565 222 631 305 631 C396 631 438 549 438 351 C438 135 388 69 305 69 L305 69 Z " />
<glyph glyph-name="Odieresis" unicode="&#xd6;" horiz-adv-x="610" d="M198 768 C233 768 255 792 255 827 C255 861 233 883 198 883 C164 883 142 860 142 827 C142 792 164 768 198 768 L198 768 Z M411 768 C445 768 468 792 468 827 C468 861 445 883 411 883 C377 883 354 860 354 827 C354 792 377 768 411 768 L411 768 Z M305 -10 C457 -10 532 105 532 351 C532 613 446 710 305 710 C153 710 78 595 78 351 C78 87 164 -10 305 -10 L305 -10 Z M305 69 C214 69 172 151 172 351 C172 565 222 631 305 631 C396 631 438 549 438 351 C438 135 388 69 305 69 L305 69 Z " />
<glyph glyph-name="Uacute" unicode="&#xda;" horiz-adv-x="610" d="M403 804 C464 825 419 922 349 877 L219 797 C181 773 211 736 245 747 L403 804 Z M305 -10 C440 -10 532 83 532 250 L532 653 C532 687 513 710 485 710 C457 710 438 687 438 653 L438 250 C438 129 382 69 305 69 C228 69 172 129 172 250 L172 653 C172 687 153 710 125 710 C97 710 78 687 78 653 L78 250 C78 83 170 -10 305 -10 L305 -10 Z " />
<glyph glyph-name="Udieresis" unicode="&#xdc;" horiz-adv-x="610" d="M198 768 C233 768 255 792 255 827 C255 861 233 883 198 883 C164 883 142 860 142 827 C142 792 164 768 198 768 L198 768 Z M411 768 C445 768 468 792 468 827 C468 861 445 883 411 883 C377 883 354 860 354 827 C354 792 377 768 411 768 L411 768 Z M305 -10 C440 -10 532 83 532 250 L532 653 C532 687 513 710 485 710 C457 710 438 687 438 653 L438 250 C438 129 382 69 305 69 C228 69 172 129 172 250 L172 653 C172 687 153 710 125 710 C97 710 78 687 78 653 L78 250 C78 83 170 -10 305 -10 L305 -10 Z " />
<glyph glyph-name="Yacute" unicode="&#xdd;" horiz-adv-x="573" d="M388 804 C449 825 404 922 334 877 L204 797 C166 773 196 736 230 747 L388 804 Z M479 712 C460 712 444 697 431 667 L296 333 L288 333 L151 661 C137 695 120 712 99 712 C72 712 42 684 59 645 L236 258 C238 253 241 249 243 245 L243 47 C243 13 262 -10 289 -10 C318 -10 337 13 337 47 L337 247 L343 259 L513 645 C531 687 504 712 479 712 L479 712 Z " />
<glyph glyph-name="aacute" unicode="&#xe1;" horiz-adv-x="522" d="M369 689 C414 739 326 807 285 730 L217 603 C194 562 239 541 264 569 L369 689 Z M268 510 C142 510 88 445 88 379 C88 347 106 329 133 329 C160 329 177 346 177 372 C177 387 169 400 157 407 C180 431 213 444 252 444 C330 444 370 399 370 326 L370 270 C333 279 296 283 261 283 C157 283 68 242 68 135 C68 46 119 -10 225 -10 C293 -10 342 19 368 72 L370 72 L370 36 C370 7 386 -11 412 -11 C438 -11 454 8 454 36 L454 334 C454 449 380 510 268 510 L268 510 Z M260 60 C189 60 155 92 155 140 C155 206 208 226 279 226 C308 226 339 222 370 213 L370 168 C370 103 328 60 260 60 L260 60 Z " />
<glyph glyph-name="atilde" unicode="&#xe3;" horiz-adv-x="522" d="M148 570 C164 570 179 582 179 606 C179 623 187 634 199 634 C240 634 315 579 377 579 C415 579 443 607 443 670 C443 694 428 707 411 707 C394 707 380 694 380 672 C380 654 374 644 364 644 C328 644 249 700 187 700 C146 700 116 672 116 606 C116 582 131 570 148 570 L148 570 Z M268 510 C142 510 88 445 88 379 C88 347 106 329 133 329 C160 329 177 346 177 372 C177 387 169 400 157 407 C180 431 213 444 252 444 C330 444 370 399 370 326 L370 270 C333 279 296 283 261 283 C157 283 68 242 68 135 C68 46 119 -10 225 -10 C293 -10 342 19 368 72 L370 72 L370 36 C370 7 386 -11 412 -11 C438 -11 454 8 454 36 L454 334 C454 449 380 510 268 510 L268 510 Z M260 60 C189 60 155 92 155 140 C155 206 208 226 279 226 C308 226 339 222 370 213 L370 168 C370 103 328 60 260 60 L260 60 Z " />
<glyph glyph-name="adieresis" unicode="&#xe4;" horiz-adv-x="522" d="M172 585 C206 585 228 608 228 643 C228 676 206 697 172 697 C139 697 117 675 117 642 C117 608 139 585 172 585 L172 585 Z M385 585 C419 585 441 608 441 643 C441 676 419 697 385 697 C352 697 330 675 330 642 C330 608 352 585 385 585 L385 585 Z M268 510 C142 510 88 445 88 379 C88 347 106 329 133 329 C160 329 177 346 177 372 C177 387 169 400 157 407 C180 431 213 444 252 444 C330 444 370 399 370 326 L370 270 C333 279 296 283 261 283 C157 283 68 242 68 135 C68 46 119 -10 225 -10 C293 -10 342 19 368 72 L370 72 L370 36 C370 7 386 -11 412 -11 C438 -11 454 8 454 36 L454 334 C454 449 380 510 268 510 L268 510 Z M260 60 C189 60 155 92 155 140 C155 206 208 226 279 226 C308 226 339 222 370 213 L370 168 C370 103 328 60 260 60 L260 60 Z " />
<glyph glyph-name="ae" unicode="&#xe6;" horiz-adv-x="795" d="M225 -10 C291 -10 372 17 407 93 L409 93 C434 28 506 -10 582 -10 C646 -10 720 18 737 64 C756 88 735 116 703 103 C664 96 655 63 577 63 C499 63 456 122 454 227 L703 227 C730 227 749 245 749 279 C749 412 700 510 567 510 C502 510 446 474 421 432 L419 432 C393 475 334 510 268 510 C142 510 88 445 88 379 C88 347 106 329 133 329 C160 329 177 346 177 372 C177 385 171 396 161 403 C178 428 212 444 252 444 C330 444 370 399 370 326 L370 289 L261 289 C157 289 68 242 68 135 C68 46 119 -10 225 -10 L225 -10 Z M455 289 C461 395 510 437 568 437 C624 437 657 398 668 324 C670 313 670 301 671 289 L455 289 Z M260 60 C189 60 155 92 155 140 C155 206 208 227 279 227 L370 227 L370 168 C370 103 328 60 260 60 L260 60 Z " />
<glyph glyph-name="eacute" unicode="&#xe9;" horiz-adv-x="499" d="M351 689 C396 739 308 807 267 730 L199 603 C176 562 221 541 246 569 L351 689 Z M408 103 C368 96 360 63 282 63 C199 63 163 128 159 227 L408 227 C434 227 453 245 453 279 C453 412 405 510 271 510 C130 510 68 406 68 250 C68 63 160 -10 286 -10 C350 -10 424 18 442 64 C460 88 440 116 408 103 L408 103 Z M272 437 C333 437 365 392 372 304 C373 299 373 294 374 289 L160 289 C168 394 214 437 272 437 L272 437 Z " />
<glyph glyph-name="edieresis" unicode="&#xeb;" horiz-adv-x="499" d="M154 585 C188 585 210 608 210 643 C210 676 188 697 154 697 C121 697 99 675 99 642 C99 608 121 585 154 585 L154 585 Z M367 585 C401 585 423 608 423 643 C423 676 401 697 367 697 C334 697 312 675 312 642 C312 608 334 585 367 585 L367 585 Z M408 103 C368 96 360 63 282 63 C199 63 163 128 159 227 L408 227 C434 227 453 245 453 279 C453 412 405 510 271 510 C130 510 68 406 68 250 C68 63 160 -10 286 -10 C350 -10 424 18 442 64 C460 88 440 116 408 103 L408 103 Z M272 437 C333 437 365 392 372 304 C373 299 373 294 374 289 L160 289 C168 394 214 437 272 437 L272 437 Z " />
<glyph glyph-name="iacute" unicode="&#xed;" horiz-adv-x="230" d="M204 689 C249 739 161 807 120 730 L52 603 C29 562 74 541 99 569 L204 689 Z M114 -11 C140 -11 158 10 158 37 L158 463 C158 489 140 510 115 510 C89 510 72 489 72 463 L72 37 C72 10 89 -11 114 -11 L114 -11 Z " />
<glyph glyph-name="idieresis" unicode="&#xef;" horiz-adv-x="229" d="M36 585 C70 585 92 608 92 643 C92 676 70 697 36 697 C3 697 -19 675 -19 642 C-19 608 3 585 36 585 L36 585 Z M191 585 C225 585 248 608 248 643 C248 676 225 697 191 697 C159 697 136 675 136 642 C136 608 159 585 191 585 L191 585 Z M114 -11 C140 -11 158 10 158 37 L158 463 C158 489 140 510 115 510 C89 510 72 489 72 463 L72 37 C72 10 89 -11 114 -11 L114 -11 Z " />
<glyph glyph-name="ntilde" unicode="&#xf1;" horiz-adv-x="525" d="M134 570 C150 570 165 582 165 606 C165 623 173 634 185 634 C226 634 301 579 363 579 C401 579 429 607 429 670 C429 694 414 707 397 707 C380 707 366 694 366 672 C366 654 360 644 350 644 C314 644 235 700 173 700 C132 700 102 672 102 606 C102 582 117 570 134 570 L134 570 Z M115 -10 C140 -10 158 9 158 37 L158 337 C158 399 199 440 261 440 C326 440 369 397 369 333 L369 37 C369 9 386 -10 413 -10 C439 -10 457 9 457 37 L457 337 C457 440 393 509 296 509 C237 509 187 480 160 434 L158 434 L158 463 C158 491 140 510 115 510 C89 510 72 491 72 463 L72 37 C72 9 89 -10 115 -10 L115 -10 Z " />
<glyph glyph-name="oacute" unicode="&#xf3;" horiz-adv-x="532" d="M356 689 C401 739 313 807 272 730 L204 603 C181 562 226 541 251 569 L356 689 Z M267 -10 C409 -10 464 94 464 250 C464 437 385 510 267 510 C123 510 68 406 68 250 C68 63 148 -10 267 -10 L267 -10 Z M269 60 C189 60 157 136 157 250 C157 387 201 440 267 440 C344 440 375 364 375 250 C375 113 333 60 269 60 L269 60 Z " />
<glyph glyph-name="otilde" unicode="&#xf5;" horiz-adv-x="532" d="M135 570 C151 570 166 582 166 606 C166 623 174 634 186 634 C227 634 302 579 364 579 C402 579 430 607 430 670 C430 694 415 707 398 707 C381 707 367 694 367 672 C367 654 361 644 351 644 C315 644 236 700 174 700 C133 700 103 672 103 606 C103 582 118 570 135 570 L135 570 Z M267 -10 C409 -10 464 94 464 250 C464 437 385 510 267 510 C123 510 68 406 68 250 C68 63 148 -10 267 -10 L267 -10 Z M269 60 C189 60 157 136 157 250 C157 387 201 440 267 440 C344 440 375 364 375 250 C375 113 333 60 269 60 L269 60 Z " />
<glyph glyph-name="odieresis" unicode="&#xf6;" horiz-adv-x="532" d="M159 585 C193 585 215 608 215 643 C215 676 193 697 159 697 C126 697 104 675 104 642 C104 608 126 585 159 585 L159 585 Z M372 585 C406 585 428 608 428 643 C428 676 406 697 372 697 C339 697 317 675 317 642 C317 608 339 585 372 585 L372 585 Z M267 -10 C409 -10 464 94 464 250 C464 437 385 510 267 510 C123 510 68 406 68 250 C68 63 148 -10 267 -10 L267 -10 Z M269 60 C189 60 157 136 157 250 C157 387 201 440 267 440 C344 440 375 364 375 250 C375 113 333 60 269 60 L269 60 Z " />
<glyph glyph-name="uacute" unicode="&#xfa;" horiz-adv-x="525" d="M353 689 C398 739 310 807 269 730 L201 603 C178 562 223 541 248 569 L353 689 Z M410 -10 C436 -10 453 9 453 37 L453 463 C453 491 436 510 410 510 C384 510 367 491 367 463 L367 179 C367 109 325 60 263 60 C199 60 156 103 156 167 L156 463 C156 491 138 510 112 510 C86 510 68 491 68 463 L68 163 C68 60 132 -9 228 -9 C290 -9 338 19 365 67 L367 67 L367 37 C367 9 384 -10 410 -10 L410 -10 Z " />
<glyph glyph-name="udieresis" unicode="&#xfc;" horiz-adv-x="525" d="M156 585 C190 585 212 608 212 643 C212 676 190 697 156 697 C123 697 101 675 101 642 C101 608 123 585 156 585 L156 585 Z M369 585 C403 585 425 608 425 643 C425 676 403 697 369 697 C336 697 314 675 314 642 C314 608 336 585 369 585 L369 585 Z M410 -10 C436 -10 453 9 453 37 L453 463 C453 491 436 510 410 510 C384 510 367 491 367 463 L367 179 C367 109 325 60 263 60 C199 60 156 103 156 167 L156 463 C156 491 138 510 112 510 C86 510 68 491 68 463 L68 163 C68 60 132 -9 228 -9 C290 -9 338 19 365 67 L367 67 L367 37 C367 9 384 -10 410 -10 L410 -10 Z " />
<glyph glyph-name="yacute" unicode="&#xfd;" horiz-adv-x="527" d="M363 689 C408 739 320 807 279 730 L211 603 C188 562 233 541 258 569 L363 689 Z M446 510 C428 510 409 498 402 469 L292 71 L266 71 L154 461 C145 495 123 510 103 510 C78 510 56 486 67 449 L178 72 C191 24 228 -8 265 -8 L269 -8 C230 -131 211 -141 183 -141 C171 -141 159 -139 150 -135 C159 -127 164 -115 164 -101 C164 -70 144 -50 113 -50 C82 -50 61 -70 61 -101 C61 -167 114 -210 185 -210 C275 -210 313 -151 373 61 L477 450 C488 490 468 510 446 510 L446 510 Z " />
<glyph glyph-name="ydieresis" unicode="&#xff;" horiz-adv-x="527" d="M166 585 C200 585 222 608 222 643 C222 676 200 697 166 697 C133 697 111 675 111 642 C111 608 133 585 166 585 L166 585 Z M379 585 C413 585 435 608 435 643 C435 676 413 697 379 697 C346 697 324 675 324 642 C324 608 346 585 379 585 L379 585 Z M446 510 C428 510 409 498 402 469 L292 71 L266 71 L154 461 C145 495 123 510 103 510 C78 510 56 486 67 449 L178 72 C191 24 228 -8 265 -8 L269 -8 C230 -131 211 -141 183 -141 C171 -141 159 -139 150 -135 C159 -127 164 -115 164 -101 C164 -70 144 -50 113 -50 C82 -50 61 -70 61 -101 C61 -167 114 -210 185 -210 C275 -210 313 -151 373 61 L477 450 C488 490 468 510 446 510 L446 510 Z " />
<glyph glyph-name="dotlessi" unicode="&#x131;" horiz-adv-x="230" d="M114 -11 C140 -11 158 10 158 37 L158 463 C158 489 140 510 115 510 C89 510 72 489 72 463 L72 37 C72 10 89 -11 114 -11 L114 -11 Z " />
<glyph glyph-name="OE" unicode="&#x152;" horiz-adv-x="724" d="M479 79 L479 304 L612 304 C639 304 658 320 658 343 C658 367 639 382 611 382 L479 382 L479 621 L672 621 C700 621 718 637 718 661 C718 684 700 700 671 700 L432 700 C366 700 358 699 325 699 C173 699 78 595 78 351 C78 87 183 0 325 0 L431 0 L672 0 C700 0 718 16 718 39 C718 63 700 79 671 79 L479 79 Z M172 351 C172 565 242 621 325 621 L385 621 L385 79 L325 79 C234 79 172 151 172 351 L172 351 Z " />
<glyph glyph-name="oe" unicode="&#x153;" horiz-adv-x="803" d="M267 -10 C339 -10 388 17 419 80 L422 80 C461 13 521 -10 590 -10 C654 -10 728 18 745 64 C764 88 743 116 712 103 C672 96 664 63 585 63 C503 63 467 128 463 227 L711 227 C738 227 757 245 757 279 C757 412 709 510 575 510 C504 510 453 483 420 425 L418 425 C383 488 331 510 267 510 C123 510 68 406 68 250 C68 63 148 -10 267 -10 L267 -10 Z M269 60 C189 60 157 136 157 250 C157 387 201 440 267 440 C344 440 375 364 375 250 C375 113 333 60 269 60 L269 60 Z M464 289 C472 395 518 437 576 437 C633 437 665 397 674 321 C676 311 677 300 677 289 L464 289 Z " />
<glyph glyph-name="Ydieresis" unicode="&#x178;" horiz-adv-x="573" d="M183 768 C218 768 240 792 240 827 C240 861 218 883 183 883 C149 883 127 860 127 827 C127 792 149 768 183 768 L183 768 Z M396 768 C430 768 453 792 453 827 C453 861 430 883 396 883 C362 883 339 860 339 827 C339 792 362 768 396 768 L396 768 Z M479 712 C460 712 444 697 431 667 L296 333 L288 333 L151 661 C137 695 120 712 99 712 C72 712 42 684 59 645 L236 258 C238 253 241 249 243 245 L243 47 C243 13 262 -10 289 -10 C318 -10 337 13 337 47 L337 247 L343 259 L513 645 C531 687 504 712 479 712 L479 712 Z " />
<glyph glyph-name="tilde" unicode="&#x2dc;" horiz-adv-x="600" d="M132 570 C148 570 163 582 163 606 C163 623 171 634 183 634 C224 634 299 579 361 579 C399 579 427 607 427 670 C427 694 412 707 395 707 C378 707 364 694 364 672 C364 654 358 644 348 644 C312 644 233 700 171 700 C130 700 100 672 100 606 C100 582 115 570 132 570 L132 570 Z " />
<glyph glyph-name="quoteleft" unicode="&#x2018;" horiz-adv-x="381" d="M125 563 C122 563 119 563 116 562 C129 607 159 640 187 666 C218 697 180 739 146 709 C96 664 53 597 53 523 C53 461 84 431 125 431 C168 431 196 456 196 497 C196 537 168 563 125 563 L125 563 Z " />
<glyph glyph-name="quoteright" unicode="&#x2019;" horiz-adv-x="388" d="M126 714 C84 714 55 689 55 648 C55 608 84 582 126 582 C129 582 132 582 135 583 C122 538 92 505 64 479 C33 448 71 406 106 436 C155 481 198 548 198 622 C198 684 167 714 126 714 L126 714 Z " />
<glyph glyph-name="quotesinglbase" unicode="&#x201a;" horiz-adv-x="210" d="M104 110 C65 110 39 87 39 50 C39 14 65 -10 104 -10 C107 -10 110 -10 112 -9 C100 -50 73 -80 47 -104 C19 -132 54 -170 85 -143 C130 -102 169 -41 169 26 C169 83 141 110 104 110 L104 110 Z " />
<glyph glyph-name="quotedblleft" unicode="&#x201c;" horiz-adv-x="381" d="M139 667 C170 698 132 740 97 710 C48 665 5 598 5 524 C5 462 36 432 77 432 C120 432 148 457 148 498 C148 538 120 564 77 564 C74 564 71 564 68 563 C81 608 111 641 139 667 L139 667 Z M264 564 C261 564 258 564 255 563 C268 608 298 641 326 667 C357 698 319 740 285 710 C235 665 192 598 192 524 C192 462 223 432 264 432 C307 432 335 457 335 498 C335 538 307 564 264 564 L264 564 Z " />
<glyph glyph-name="quotedblright" unicode="&#x201d;" horiz-adv-x="388" d="M113 715 C71 715 42 690 42 649 C42 609 71 583 113 583 C116 583 119 583 122 584 C109 539 79 506 51 480 C20 449 58 407 93 437 C142 482 185 549 185 623 C185 685 154 715 113 715 L113 715 Z M300 715 C258 715 229 690 229 649 C229 609 258 583 300 583 C303 583 306 583 309 584 C296 539 266 506 238 480 C207 449 245 407 280 437 C329 482 372 549 372 623 C372 685 341 715 300 715 L300 715 Z " />
<glyph glyph-name="quotedblbase" unicode="&#x201e;" horiz-adv-x="353" d="M104 110 C65 110 39 87 39 50 C39 14 65 -10 104 -10 C107 -10 110 -10 112 -9 C100 -50 73 -80 47 -104 C19 -132 54 -170 85 -143 C130 -102 169 -41 169 26 C169 83 141 110 104 110 L104 110 Z M284 110 C245 110 219 87 219 50 C219 14 245 -10 284 -10 C287 -10 290 -10 292 -9 C280 -50 253 -80 227 -104 C199 -132 234 -170 265 -143 C310 -102 349 -41 349 26 C349 83 321 110 284 110 L284 110 Z " />
<glyph glyph-name="bullet" unicode="&#x2022;" horiz-adv-x="483" d="M242 217 C315 217 375 275 375 349 L375 351 C375 425 314 484 242 484 C170 484 109 425 109 351 L109 349 C109 275 169 217 242 217 L242 217 Z " />
<glyph glyph-name="ellipsis" unicode="&#x2026;" horiz-adv-x="205" d="M102 110 C67 110 42 83 42 51 C42 17 67 -10 102 -10 C137 -10 163 17 163 51 C163 83 135 110 102 110 L102 110 Z " />
<glyph glyph-name="fi" unicode="&#xfb01;" horiz-adv-x="577" d="M43 464 C43 442 61 427 87 427 L128 427 L128 43 C128 11 145 -10 171 -10 C197 -10 214 11 214 43 L214 427 L418 427 L418 37 C418 10 435 -11 461 -11 C487 -11 504 10 504 37 L504 453 C504 481 490 500 463 500 L214 500 L214 572 C214 658 273 696 337 696 C364 696 396 686 414 669 C403 664 399 653 399 641 C399 610 421 587 451 587 C482 587 505 608 505 646 C505 712 413 759 326 759 C222 759 128 702 128 557 L128 500 L88 500 C61 500 43 485 43 464 L43 464 Z " />
<glyph glyph-name="fl" unicode="&#xfb02;" horiz-adv-x="595" d="M486 760 C457 760 448 737 448 718 L448 695 L446 695 C422 732 390 760 319 760 C222 760 128 706 128 571 L128 500 L88 500 C67 500 43 490 43 464 C43 437 67 427 86 427 L128 427 L128 41 C128 19 140 -10 171 -10 C201 -10 214 19 214 41 L214 427 L302 427 C320 427 345 437 345 464 C345 491 319 500 300 500 L214 500 L214 574 C214 669 267 690 326 690 C397 690 442 643 442 574 L442 37 C442 8 460 -10 486 -10 C513 -10 528 12 528 37 L528 715 C528 733 518 760 486 760 L486 760 Z " />
</font>
</svg>
